{
.formatVersion = 3;
axes = (
{
name = Weight;
tag = wght;
}
);
classes = (
{
code = "exclam parenleft parenright comma hyphen period slash colon semicolon question A G I J O bracketleft bracketright o braceleft braceright Adieresis Edieresis Igrave Iacute Icircumflex Odieresis Udieresis edieresis idieresis odieresis udieresis ydieresis Cdotaccent cdotaccent Edotaccent edotaccent Gcircumflex Gbreve Gcommaaccent Itilde Imacron Ibreve Iogonek IJ Ldot Scedilla scedilla Tcedilla tcedilla Ydieresis Zdotaccent zdotaccent Gcaron dotaccentcomb dieresiscomb dotbelowcomb strokeshortcomb slashshortcomb slashlongcomb Wdieresis wdieresis Adotbelow Acircumflexdotbelow Abrevedotbelow Edotbelow edotbelow Ecircumflexdotbelow ecircumflexdotbelow Ihoi idotbelow Odotbelow odotbelow Ocircumflexdotbelow ocircumflexdotbelow Ohorndotbelow ohorndotbelow Udotbelow udotbelow Uhorndotbelow uhorndotbelow Ydotbelow ydotbelow endash emdash quoteleft quoteright quotesinglbase quotedblleft quotedblright quotedblbase bullet ellipsis fi zero.numr one.numr two.numr three.numr four.numr five.numr six.numr seven.numr eight.numr nine.numr f_f_i t_i.liga exclamdown.ss01 periodcentered.loclCAT.case questiondown.ss01 adieresis Gdotaccent.ss01 adotbelow idotbelow.dotless idotaccent";
name = aalt;
},
{

glyphs = (
{
glyphname = .notdef;
layers = (
{
layerId = "805E1B73-1F0E-4383-AACE-2240222288D4";
shapes = (
{
closed = 1;
nodes = (
(323,-12,o),
(337,-6,o),
(337,10,cs),
(337,80,l),
(322,77,o),
(310,76,o),
(298,76,cs),
(262,76,o),
(242,87,o),
(228,103,cs),
(214,119,o),
(205,139,o),
(194,156,cs),
(187,168,o),
(178,177,o),
(168,182,cs),
(158,187,o),
(153,192,o),
(153,199,cs),
(153,206,o),
(158,209,o),
(167,209,cs),
(196,209,o),
(212,187,o),
(229,167,c),
(245,146,o),
(262,124,o),
(294,124,cs),
(310,124,o),
(327,127,o),
(338,134,c),
(342,159,o),
(353,177,o),
(373,186,c),
(257,198,o),
(188,263,o),
(188,366,cs),
(188,417,o),
(203,450,o),
(228,477,c),
(217,509,o),
(219,550,o),
(232,579,c),
(271,582,o),
(312,566,o),
(336,539,c),
(368,550,o),
(400,553,o),
(433,553,cs),
(466,553,o),
(498,550,o),
(530,539,c),
(554,566,o),
(595,582,o),
(634,579,c),
(647,550,o),
(649,509,o),
(638,477,c),
(663,450,o),
(678,417,o),
(678,366,cs),
(678,263,o),
(609,198,o),
(493,186,c),
(516,175,o),
(529,150,o),
(529,115,cs),
(529,10,ls),
(529,-6,o),
(543,-12,o),
(556,-8,cs),
(635,17,o),
(699,64,o),
(745,126,cs),
(791,188,o),
(816,267,o),
(816,356,cs),
(816,471,o),
(778,566,o),
(711,633,cs),
(644,700,o),
(548,738,o),
(433,738,cs),
(318,738,o),
(223,700,o),
(156,633,cs),
(88,566,o),
(50,471,o),
(50,356,cs),
(50,267,o),
(76,188,o),
(122,126,cs),
(168,64,o),
(233,17,o),
(310,-8,cs)
);
},
{
closed = 1;
nodes = (
(226,150,o),
(228,152,o),
(228,155,cs),
(228,158,o),
(225,160,o),
(221,160,cs),
(217,160,o),
(215,158,o),
(215,155,cs),
(215,152,o),
(218,150,o),
(222,150,cs)
);
},
{
closed = 1;
nodes = (
(194,185,o),
(196,186,o),
(196,189,cs),
(196,192,o),
(194,193,o),
(190,193,cs),
(187,193,o),
(185,192,o),
(185,189,cs),
(185,186,o),
(187,185,o),
(191,185,cs)
);
},
{
closed = 1;
nodes = (
(209,171,o),
(211,172,o),
(211,175,cs),
(211,178,o),
(209,179,o),
(205,179,cs),
(202,179,o),
(200,178,o),
(200,175,cs),
(200,172,o),
(202,171,o),
(206,171,cs)
);
},
{
closed = 1;
nodes = (
(270,109,o),
(273,111,o),
(273,115,cs),
(273,119,o),
(270,121,o),
(265,121,cs),
(261,121,o),
(258,119,o),
(258,115,cs),
(258,111,o),
(261,109,o),
(266,109,cs)
);
},
{
closed = 1;
nodes = (
(301,104,o),
(304,106,o),
(304,110,cs),
(304,114,o),
(301,116,o),
(296,116,cs),
(292,116,o),
(289,114,o),
(289,110,cs),
(289,106,o),
(292,104,o),
(297,104,cs)
);
},
{
closed = 1;
nodes = (
(332,110,o),
(335,112,o),
(335,116,cs),
(335,120,o),
(332,122,o),
(327,122,cs),
(323,122,o),
(320,120,o),
(320,116,cs),
(320,112,o),
(323,110,o),
(328,110,cs)
);
},
{
closed = 1;
nodes = (
(244,127,o),
(247,129,o),
(247,133,cs),
(247,137,o),
(244,139,o),
(239,139,cs),
(235,139,o),
(232,137,o),
(232,133,cs),
(232,129,o),
(235,127,o),
(240,127,cs)
);
}
);
width = 866;
},
{
layerId = "61D7B067-829F-4380-BDB7-B27A2BACA267";
shapes = (
{
closed = 1;
nodes = (
(323,-12,o),
(337,-6,o),
(337,10,cs),
(337,80,l),
(322,77,o),
(310,76,o),
(298,76,cs),
(262,76,o),
(242,87,o),
(228,103,cs),
(214,119,o),
(205,139,o),
(194,156,cs),
(187,168,o),
(178,177,o),
(168,182,cs),
(158,187,o),
(153,192,o),
(153,199,cs),
(153,206,o),
(158,209,o),
(167,209,cs),
(196,209,o),
(212,187,o),
(229,167,c),
(245,146,o),
(262,124,o),
(294,124,cs),
(310,124,o),
(327,127,o),
(338,134,c),
(342,159,o),
(353,177,o),
(373,186,c),
(257,198,o),
(188,263,o),
(188,366,cs),
(188,417,o),
(203,450,o),
(228,477,c),
(217,509,o),
(219,550,o),
(232,579,c),
(271,582,o),
(312,566,o),
(336,539,c),
(368,550,o),
(400,553,o),
(433,553,cs),
(466,553,o),
(498,550,o),
(530,539,c),
(554,566,o),
(595,582,o),
(634,579,c),
(647,550,o),
(649,509,o),
(638,477,c),
(663,450,o),
(678,417,o),
(678,366,cs),
(678,263,o),
(609,198,o),
(493,186,c),
(516,175,o),
(529,150,o),
(529,115,cs),
(529,10,ls),
(529,-6,o),
(543,-12,o),
(556,-8,cs),
(635,17,o),
(699,64,o),
(745,126,cs),
(791,188,o),
(816,267,o),
(816,356,cs),
(816,471,o),
(778,566,o),
(711,633,cs),
(644,700,o),
(548,738,o),
(433,738,cs),
(318,738,o),
(223,700,o),
(156,633,cs),
(88,566,o),
(50,471,o),
(50,356,cs),
(50,267,o),
(76,188,o),
(122,126,cs),
(168,64,o),
(233,17,o),
(310,-8,cs)
);
},
{
closed = 1;
nodes = (
(226,150,o),
(228,152,o),
(228,155,cs),
(228,158,o),
(225,160,o),
(221,160,cs),
(217,160,o),
(215,158,o),
(215,155,cs),
(215,152,o),
(218,150,o),
(222,150,cs)
);
},
{
closed = 1;
nodes = (
(194,185,o),
(196,186,o),
(196,189,cs),
(196,192,o),
(194,193,o),
(190,193,cs),
(187,193,o),
(185,192,o),
(185,189,cs),
(185,186,o),
(187,185,o),
(191,185,cs)
);
},
{
closed = 1;
nodes = (
(209,171,o),
(211,172,o),
(211,175,cs),
(211,178,o),
(209,179,o),
(205,179,cs),
(202,179,o),
(200,178,o),
(200,175,cs),
(200,172,o),
(202,171,o),
(206,171,cs)
);
},
{
closed = 1;
nodes = (
(270,109,o),
(273,111,o),
(273,115,cs),
(273,119,o),
(270,121,o),
(265,121,cs),
(261,121,o),
(258,119,o),
(258,115,cs),
(258,111,o),
(261,109,o),
(266,109,cs)
);
},
{
closed = 1;
nodes = (
(301,104,o),
(304,106,o),
(304,110,cs),
(304,114,o),
(301,116,o),
(296,116,cs),
(292,116,o),
(289,114,o),
(289,110,cs),
(289,106,o),
(292,104,o),
(297,104,cs)
);
},
{
closed = 1;
nodes = (
(332,110,o),
(335,112,o),
(335,116,cs),
(335,120,o),
(332,122,o),
(327,122,cs),
(323,122,o),
(320,120,o),
(320,116,cs),
(320,112,o),
(323,110,o),
(328,110,cs)
);
},
{
closed = 1;
nodes = (
(244,127,o),
(247,129,o),
(247,133,cs),
(247,137,o),
(244,139,o),
(239,139,cs),
(235,139,o),
(232,137,o),
(232,133,cs),
(232,129,o),
(235,127,o),
(240,127,cs)
);
}
);
width = 866;
},
{
layerId = "BADC4CB4-4A37-4FEF-A0FC-8F77938ABBAB";
shapes = (
{
closed = 1;
nodes = (
(323,-12,o),
(337,-6,o),
(337,10,cs),
(337,80,l),
(322,77,o),
(310,76,o),
(298,76,cs),
(262,76,o),
(242,87,o),
(228,103,cs),
(214,119,o),
(205,139,o),
(194,156,cs),
(187,168,o),
(178,177,o),
(168,182,cs),
(158,187,o),
(153,192,o),
(153,199,cs),
(153,206,o),
(158,209,o),
(167,209,cs),
(196,209,o),
(212,187,o),
(229,167,c),
(245,146,o),
(262,124,o),
(294,124,cs),
(310,124,o),
(327,127,o),
(338,134,c),
(342,159,o),
(353,177,o),
(373,186,c),
(257,198,o),
(188,263,o),
(188,366,cs),
(188,417,o),
(203,450,o),
(228,477,c),
(217,509,o),
(219,550,o),
(232,579,c),
(271,582,o),
(312,566,o),
(336,539,c),
(368,550,o),
(400,553,o),
(433,553,cs),
(466,553,o),
(498,550,o),
(530,539,c),
(554,566,o),
(595,582,o),
(634,579,c),
(647,550,o),
(649,509,o),
(638,477,c),
(663,450,o),
(678,417,o),
(678,366,cs),
(678,263,o),
(609,198,o),
(493,186,c),
(516,175,o),
(529,150,o),
(529,115,cs),
(529,10,ls),
(529,-6,o),
(543,-12,o),
(556,-8,cs),
(635,17,o),
(699,64,o),
(745,126,cs),
(791,188,o),
(816,267,o),
(816,356,cs),
(816,471,o),
(778,566,o),
(711,633,cs),
(644,700,o),
(548,738,o),
(433,738,cs),
(318,738,o),
(223,700,o),
(156,633,cs),
(88,566,o),
(50,471,o),
(50,356,cs),
(50,267,o),
(76,188,o),
(122,126,cs),
(168,64,o),
(233,17,o),
(310,-8,cs)
);
},
{
closed = 1;
nodes = (
(226,150,o),
(228,152,o),
(228,155,cs),
(228,158,o),
(225,160,o),
(221,160,cs),
(217,160,o),
(215,158,o),
(215,155,cs),
(215,152,o),
(218,150,o),
(222,150,cs)
);
},
{
closed = 1;
nodes = (
(194,185,o),
(196,186,o),
(196,189,cs),
(196,192,o),
(194,193,o),
(190,193,cs),
(187,193,o),
(185,192,o),
(185,189,cs),
(185,186,o),
(187,185,o),
(191,185,cs)
);
},
{
closed = 1;
nodes = (
(209,171,o),
(211,172,o),
(211,175,cs),
(211,178,o),
(209,179,o),
(205,179,cs),
(202,179,o),
(200,178,o),
(200,175,cs),
(200,172,o),
(202,171,o),
(206,171,cs)
);
},
{
closed = 1;
nodes = (
(270,109,o),
(273,111,o),
(273,115,cs),
(273,119,o),
(270,121,o),
(265,121,cs),
(261,121,o),
(258,119,o),
(258,115,cs),
(258,111,o),
(261,109,o),
(266,109,cs)
);
},
{
closed = 1;
nodes = (
(301,104,o),
(304,106,o),
(304,110,cs),
(304,114,o),
(301,116,o),
(296,116,cs),
(292,116,o),
(289,114,o),
(289,110,cs),
(289,106,o),
(292,104,o),
(297,104,cs)
);
},
{
closed = 1;
nodes = (
(332,110,o),
(335,112,o),
(335,116,cs),
(335,120,o),
(332,122,o),
(327,122,cs),
(323,122,o),
(320,120,o),
(320,116,cs),
(320,112,o),
(323,110,o),
(328,110,cs)
);
},
{
closed = 1;
nodes = (
(244,127,o),
(247,129,o),
(247,133,cs),
(247,137,o),
(244,139,o),
(239,139,cs),
(235,139,o),
(232,137,o),
(232,133,cs),
(232,129,o),
(235,127,o),
(240,127,cs)
);
}
);
width = 866;
}
);
},
{
glyphname = exclam;
layers = (
{
layerId = "805E1B73-1F0E-4383-AACE-2240222288D4";
shapes = (
{
closed = 1;
nodes = (
(214,243,l),
(271,484,l),
(271,729,l),
(34,729,l),
(34,484,l),
(93,243,l)
);
},
{
closed = 1;
nodes = (
(229,-9,o),
(272,33,o),
(272,96,cs),
(272,159,o),
(230,201,o),
(153,201,cs),
(76,201,o),
(33,159,o),
(33,96,cs),
(33,33,o),
(74,-9,o),
(153,-9,cs)
);
}
);
width = 306;
},
{
layerId = "61D7B067-829F-4380-BDB7-B27A2BACA267";
shapes = (
{
closed = 1;
nodes = (
(144,202,l),
(167,491,l),
(167,729,l),
(72,729,l),
(72,491,l),
(95,202,l)
);
},
{
closed = 1;
nodes = (
(154,-8,o),
(175,12,o),
(175,43,cs),
(175,74,o),
(154,93,o),
(119,93,cs),
(86,93,o),
(64,74,o),
(64,43,cs),
(64,12,o),
(84,-8,o),
(119,-8,cs)
);
}
);
width = 239;
},
{
layerId = "BADC4CB4-4A37-4FEF-A0FC-8F77938ABBAB";
shapes = (
{
closed = 1;
nodes = (
(116,186,l),
(126,493,l),
(126,729,l),
(87,729,l),
(87,493,l),
(96,186,l)
);
},
{
closed = 1;
nodes = (
(123,-7,o),
(136,5,o),
(136,22,cs),
(136,39,o),
(123,51,o),
(106,51,cs),
(89,51,o),
(76,39,o),
(76,22,cs),
(76,5,o),
(89,-7,o),
(106,-7,cs)
);
}
);
width = 212;
}
);
unicode = 33;
},
{
glyphname = numbersign;
layers = (
{
layerId = "805E1B73-1F0E-4383-AACE-2240222288D4";
shapes = (
{
closed = 1;
nodes = (
(314,0,l),
(314,160,l),
(412,160,l),
(412,0,l),
(589,0,l),
(589,160,l),
(705,160,l),
(705,316,l),
(589,316,l),
(589,411,l),
(705,411,l),
(705,568,l),
(589,568,l),
(589,729,l),
(412,729,l),
(412,568,l),
(314,568,l),
(314,729,l),
(136,729,l),
(136,568,l),
(21,568,l),
(21,411,l),
(136,411,l),
(136,316,l),
(21,316,l),
(21,160,l),
(136,160,l),
(136,0,l)
);
},
{
closed = 1;
nodes = (
(314,411,l),
(412,411,l),
(412,316,l),
(314,316,l)
);
}
);
width = 726;
},
{
layerId = "61D7B067-829F-4380-BDB7-B27A2BACA267";
shapes = (
{
closed = 1;
nodes = (
(252,0,l),
(252,221,l),
(418,221,l),
(418,0,l),
(491,0,l),
(491,221,l),
(640,221,l),
(640,285,l),
(491,285,l),
(491,460,l),
(640,460,l),
(640,524,l),
(491,524,l),
(491,729,l),
(418,729,l),
(418,524,l),
(252,524,l),
(252,729,l),
(179,729,l),
(179,524,l),
(26,524,l),
(26,460,l),
(179,460,l),
(179,285,l),
(26,285,l),
(26,221,l),
(179,221,l),
(179,0,l)
);
},
{
closed = 1;
nodes = (
(252,460,l),
(418,460,l),
(418,285,l),
(252,285,l)
);
}
);
width = 666;
},
{
layerId = "BADC4CB4-4A37-4FEF-A0FC-8F77938ABBAB";
shapes = (
{
closed = 1;
nodes = (
(228,0,l),
(228,245,l),
(420,245,l),
(420,0,l),
(452,0,l),
(452,245,l),
(614,245,l),
(614,273,l),
(452,273,l),
(452,480,l),
(614,480,l),
(614,507,l),
(452,507,l),
(452,729,l),
(420,729,l),
(420,507,l),
(228,507,l),
(228,729,l),
(196,729,l),
(196,507,l),
(28,507,l),
(28,480,l),
(196,480,l),
(196,273,l),
(28,273,l),
(28,245,l),
(196,245,l),
(196,0,l)
);
},
{
closed = 1;
nodes = (
(228,480,l),
(420,480,l),
(420,273,l),
(228,273,l)
);
}
);
width = 642;
}
);
unicode = 35;
},
{
glyphname = dollar;
layers = (
{
layerId = "805E1B73-1F0E-4383-AACE-2240222288D4";
shapes = (
{
closed = 1;
nodes = (
(459,8,o),
(540,32,o),
(595,73,cs),
(650,114,o),
(678,173,o),
(678,242,cs),
(678,329,o),
(650,383,o),
(603,416,cs),
(555,449,o),
(489,464,o),
(416,473,cs),
(359,481,o),
(329,485,o),
(314,490,cs),
(298,495,o),
(296,502,o),
(296,514,cs),
(296,533,o),
(318,543,o),
(347,543,cs),
(358,543,o),
(370,543,o),
(382,538,cs),
(393,533,o),
(401,524,o),
(404,507,c),
(657,507,l),
(656,575,o),
(622,628,o),
(569,665,cs),
(516,702,o),
(441,722,o),
(354,722,cs),
(255,722,o),
(177,700,o),
(122,660,cs),
(66,620,o),
(36,559,o),
(36,483,cs),
(36,415,o),
(60,365,o),
(105,329,cs),
(150,292,o),
(217,271,o),
(305,260,cs),
(361,253,o),
(390,249,o),
(403,243,cs),
(415,237,o),
(415,230,o),
(415,218,cs),
(415,209,o),
(409,202,o),
(400,198,cs),
(391,193,o),
(377,191,o),
(361,191,cs),
(332,191,o),
(311,197,o),
(298,206,cs),
(285,215,o),
(279,227,o),
(279,242,c),
(22,242,l),
(21,173,o),
(50,114,o),
(106,73,cs),
(161,32,o),
(243,8,o),
(348,8,cs)
);
},
{
closed = 1;
nodes = (
(432,-85,l),
(432,96,l),
(268,96,l),
(268,-85,l)
);
},
{
closed = 1;
nodes = (
(432,613,l),
(432,814,l),
(268,814,l),
(268,613,l)
);
}
);
width = 699;
},
{
layerId = "61D7B067-829F-4380-BDB7-B27A2BACA267";
shapes = (
{
closed = 1;
nodes = (
(426,9,o),
(496,29,o),
(544,64,cs),
(591,99,o),
(617,148,o),
(617,209,cs),
(617,286,o),
(590,334,o),
(544,364,cs),
(498,394,o),
(434,407,o),
(363,418,cs),
(292,430,o),
(244,439,o),
(213,456,c),
(181,472,o),
(169,496,o),
(169,536,cs),
(169,601,o),
(225,645,o),
(326,645,cs),
(377,645,o),
(417,634,o),
(446,613,cs),
(474,592,o),
(490,560,o),
(493,517,c),
(594,517,l),
(591,580,o),
(567,630,o),
(522,666,cs),
(477,701,o),
(411,720,o),
(330,720,cs),
(249,720,o),
(182,702,o),
(137,668,cs),
(92,634,o),
(66,584,o),
(66,524,cs),
(66,460,o),
(90,418,o),
(134,389,cs),
(178,360,o),
(242,344,o),
(322,331,cs),
(393,320,o),
(440,309,o),
(471,290,cs),
(502,270,o),
(514,242,o),
(514,201,cs),
(514,164,o),
(498,134,o),
(467,115,cs),
(436,95,o),
(393,85,o),
(338,85,cs),
(277,85,o),
(231,99,o),
(200,124,cs),
(169,149,o),
(154,187,o),
(151,235,c),
(49,235,l),
(50,168,o),
(74,112,o),
(122,72,cs),
(169,32,o),
(239,9,o),
(335,9,cs)
);
},
{
closed = 1;
nodes = (
(369,-85,l),
(369,43,l),
(298,43,l),
(298,-85,l)
);
},
{
closed = 1;
nodes = (
(369,675,l),
(369,814,l),
(298,814,l),
(298,675,l)
);
}
);
width = 666;
},
{
layerId = "BADC4CB4-4A37-4FEF-A0FC-8F77938ABBAB";
shapes = (
{
closed = 1;
nodes = (
(411,10,o),
(479,28,o),
(524,60,cs),
(568,92,o),
(593,139,o),
(593,195,cs),
(593,270,o),
(565,314,o),
(520,343,cs),
(475,371,o),
(412,385,o),
(343,396,cs),
(266,409,o),
(209,422,o),
(173,443,c),
(136,463,o),
(118,493,o),
(118,544,cs),
(118,628,o),
(187,685,o),
(318,685,cs),
(383,685,o),
(435,671,o),
(471,643,cs),
(506,615,o),
(527,574,o),
(528,521,c),
(568,521,l),
(567,582,o),
(544,632,o),
(503,666,cs),
(462,700,o),
(401,719,o),
(321,719,cs),
(246,719,o),
(184,702,o),
(143,671,cs),
(102,639,o),
(77,595,o),
(77,540,cs),
(77,477,o),
(102,439,o),
(146,413,cs),
(189,387,o),
(252,372,o),
(329,359,cs),
(405,347,o),
(461,332,o),
(498,308,cs),
(535,283,o),
(553,249,o),
(553,194,cs),
(553,145,o),
(533,107,o),
(494,82,cs),
(455,57,o),
(400,44,o),
(328,44,cs),
(255,44,o),
(198,60,o),
(161,92,cs),
(124,124,o),
(104,171,o),
(101,232,c),
(60,232,l),
(61,167,o),
(83,111,o),
(128,72,cs),
(172,32,o),
(238,10,o),
(330,10,cs)
);
},
{
closed = 1;
nodes = (
(344,-85,l),
(344,23,l),
(310,23,l),
(310,-85,l)
);
},
{
closed = 1;
nodes = (
(344,699,l),
(344,814,l),
(310,814,l),
(310,699,l)
);
}
);
width = 653;
}
);
unicode = 36;
},
{
glyphname = percent;
layers = (
{
layerId = "805E1B73-1F0E-4383-AACE-2240222288D4";
shapes = (
{
closed = 1;
nodes = (
(291,0,l),
(776,729,l),
(617,729,l),
(132,0,l)
);
},
{
closed = 1;
nodes = (
(266,345,o),
(310,361,o),
(342,393,cs),
(374,424,o),
(391,472,o),
(391,537,cs),
(391,601,o),
(374,649,o),
(343,681,cs),
(311,713,o),
(267,729,o),
(212,729,cs),
(157,729,o),
(113,713,o),
(82,682,cs),
(50,650,o),
(32,601,o),
(32,537,cs),
(32,473,o),
(49,425,o),
(81,393,cs),
(112,361,o),
(156,345,o),
(211,345,cs)
);
},
{
closed = 1;
nodes = (
(202,474,o),
(196,478,o),
(192,489,cs),
(188,500,o),
(186,516,o),
(186,537,cs),
(186,558,o),
(188,574,o),
(192,585,cs),
(196,596,o),
(203,601,o),
(212,601,cs),
(220,601,o),
(227,596,o),
(231,585,cs),
(235,574,o),
(237,558,o),
(237,537,cs),
(237,516,o),
(236,500,o),
(232,489,cs),
(227,478,o),
(220,474,o),
(211,474,cs)
);
},
{
closed = 1;
nodes = (
(751,-9,o),
(796,7,o),
(828,39,cs),
(859,70,o),
(876,117,o),
(876,184,cs),
(876,247,o),
(859,296,o),
(828,328,c),
(796,359,o),
(752,375,o),
(697,375,cs),
(644,375,o),
(599,359,o),
(567,328,cs),
(535,296,o),
(517,248,o),
(517,183,cs),
(517,119,o),
(535,71,o),
(567,39,cs),
(598,7,o),
(643,-9,o),
(696,-9,cs)
);
},
{
closed = 1;
nodes = (
(688,120,o),
(681,126,o),
(677,136,cs),
(673,146,o),
(671,163,o),
(671,184,cs),
(671,205,o),
(673,222,o),
(678,232,cs),
(682,242,o),
(688,247,o),
(697,247,cs),
(706,247,o),
(713,242,o),
(717,232,cs),
(721,222,o),
(723,205,o),
(723,184,cs),
(723,163,o),
(721,146,o),
(717,136,cs),
(713,126,o),
(706,120,o),
(697,120,cs)
);
}
);
width = 908;
},
{
layerId = "61D7B067-829F-4380-BDB7-B27A2BACA267";
shapes = (
{
closed = 1;
nodes = (
(238,0,l),
(721,729,l),
(647,729,l),
(164,0,l)
);
},
{
closed = 1;
nodes = (
(259,330,o),
(299,347,o),
(327,381,cs),
(354,415,o),
(370,463,o),
(370,530,cs),
(370,595,o),
(354,645,o),
(327,678,cs),
(299,711,o),
(260,729,o),
(212,729,cs),
(165,729,o),
(125,712,o),
(98,679,cs),
(70,646,o),
(54,595,o),
(54,530,cs),
(54,465,o),
(70,414,o),
(98,381,cs),
(125,348,o),
(165,330,o),
(212,330,cs)
);
},
{
closed = 1;
nodes = (
(184,389,o),
(162,401,o),
(147,425,cs),
(132,448,o),
(124,483,o),
(124,530,cs),
(124,575,o),
(132,611,o),
(147,635,cs),
(162,658,o),
(184,670,o),
(212,670,cs),
(241,670,o),
(262,658,o),
(277,635,cs),
(292,611,o),
(300,575,o),
(300,530,cs),
(300,483,o),
(292,448,o),
(277,425,cs),
(262,401,o),
(240,389,o),
(212,389,cs)
);
},
{
closed = 1;
nodes = (
(721,-7,o),
(760,10,o),
(788,43,cs),
(816,76,o),
(831,127,o),
(831,192,cs),
(831,259,o),
(816,308,o),
(788,342,cs),
(760,376,o),
(722,392,o),
(674,392,cs),
(627,392,o),
(587,375,o),
(559,342,cs),
(531,309,o),
(515,258,o),
(515,193,cs),
(515,128,o),
(531,78,o),
(559,44,cs),
(587,10,o),
(627,-7,o),
(674,-7,cs)
);
},
{
closed = 1;
nodes = (
(646,52,o),
(624,64,o),
(609,88,c),
(593,111,o),
(585,147,o),
(585,192,cs),
(585,239,o),
(593,274,o),
(609,298,cs),
(624,321,o),
(646,333,o),
(674,333,cs),
(702,333,o),
(723,321,o),
(739,298,c),
(754,274,o),
(761,239,o),
(761,192,cs),
(761,147,o),
(754,111,o),
(739,88,cs),
(723,64,o),
(702,52,o),
(674,52,cs)
);
}
);
width = 885;
},
{
layerId = "BADC4CB4-4A37-4FEF-A0FC-8F77938ABBAB";
shapes = (
{
closed = 1;
nodes = (
(217,0,l),
(700,729,l),
(658,729,l),
(177,0,l)
);
},
{
closed = 1;
nodes = (
(257,324,o),
(295,342,o),
(321,376,cs),
(347,410,o),
(361,460,o),
(361,527,cs),
(361,592,o),
(347,644,o),
(321,678,cs),
(295,712,o),
(257,729,o),
(213,729,cs),
(168,729,o),
(131,712,o),
(104,678,cs),
(77,644,o),
(62,594,o),
(62,527,cs),
(62,460,o),
(78,410,o),
(104,376,cs),
(130,342,o),
(169,324,o),
(213,324,cs)
);
},
{
closed = 1;
nodes = (
(177,355,o),
(149,370,o),
(130,399,cs),
(110,428,o),
(99,471,o),
(99,527,cs),
(99,583,o),
(110,625,o),
(130,654,cs),
(149,682,o),
(177,698,o),
(213,698,cs),
(249,698,o),
(276,682,o),
(296,654,cs),
(315,626,o),
(325,583,o),
(325,527,cs),
(325,471,o),
(315,428,o),
(296,399,cs),
(276,370,o),
(248,355,o),
(213,355,cs)
);
},
{
closed = 1;
nodes = (
(709,-7,o),
(747,12,o),
(773,46,cs),
(799,80,o),
(814,131,o),
(814,196,cs),
(814,263,o),
(799,312,o),
(773,347,cs),
(747,382,o),
(709,399,o),
(665,399,cs),
(621,399,o),
(582,382,o),
(556,348,cs),
(530,314,o),
(515,262,o),
(515,197,cs),
(515,130,o),
(529,80,o),
(556,46,cs),
(583,12,o),
(621,-7,o),
(665,-7,cs)
);
},
{
closed = 1;
nodes = (
(629,25,o),
(601,40,o),
(582,69,c),
(562,97,o),
(551,140,o),
(551,196,cs),
(551,252,o),
(562,295,o),
(582,324,cs),
(601,352,o),
(629,367,o),
(665,367,cs),
(700,367,o),
(728,352,o),
(748,324,c),
(767,295,o),
(777,252,o),
(777,196,cs),
(777,140,o),
(767,97,o),
(748,69,cs),
(728,40,o),
(700,25,o),
(665,25,cs)
);
}
);
width = 876;
}
);
leftKerningGroup = percent;
unicode = 37;
},
{
glyphname = ampersand;
layers = (
{
layerId = "805E1B73-1F0E-4383-AACE-2240222288D4";
shapes = (
{
closed = 1;
nodes = (
(308,-10,o),
(351,-6,o),
(390,6,cs),
(429,18,o),
(465,35,o),
(490,58,c),
(356,196,l),
(351,184,o),
(334,181,o),
(315,182,c),
(302,182,o),
(289,187,o),
(281,195,cs),
(273,203,o),
(269,213,o),
(269,224,cs),
(269,244,o),
(274,251,o),
(277,255,c),
(521,0,l),
(814,0,l),
(631,190,l),
(631,165,l),
(642,172,o),
(653,180,o),
(663,192,cs),
(673,203,o),
(684,215,o),
(691,230,c),
(764,230,l),
(764,401,l),
(542,401,l),
(539,384,o),
(536,368,o),
(531,355,cs),
(526,342,o),
(518,328,o),
(511,317,c),
(463,366,l),
(463,372,l),
(500,388,o),
(529,411,o),
(550,440,cs),
(570,469,o),
(582,504,o),
(582,544,cs),
(582,601,o),
(558,649,o),
(516,684,cs),
(474,719,o),
(415,739,o),
(344,739,cs),
(269,739,o),
(204,718,o),
(159,683,cs),
(114,647,o),
(87,596,o),
(87,533,cs),
(87,501,o),
(94,471,o),
(109,443,cs),
(124,414,o),
(145,388,o),
(173,364,c),
(173,380,l),
(132,367,o),
(96,340,o),
(69,307,cs),
(42,274,o),
(27,233,o),
(27,190,cs),
(27,130,o),
(52,79,o),
(94,44,cs),
(136,9,o),
(196,-10,o),
(267,-10,cs)
);
},
{
closed = 1;
nodes = (
(348,475,l),
(340,479,o),
(333,488,o),
(328,497,cs),
(323,505,o),
(319,515,o),
(319,523,cs),
(319,539,o),
(333,553,o),
(349,553,cs),
(365,553,o),
(377,541,o),
(377,522,cs),
(377,506,o),
(368,486,o),
(355,475,c)
);
}
);
width = 801;
},
{
layerId = "61D7B067-829F-4380-BDB7-B27A2BACA267";
shapes = (
{
closed = 1;
nodes = (
(319,-10,o),
(368,-1,o),
(409,19,cs),
(450,38,o),
(486,66,o),
(513,106,c),
(457,162,l),
(428,105,o),
(371,69,o),
(288,68,cs),
(247,68,o),
(211,79,o),
(185,101,cs),
(159,123,o),
(143,156,o),
(143,197,cs),
(143,265,o),
(185,319,o),
(265,351,c),
(598,0,l),
(715,0,l),
(556,166,l),
(559,147,l),
(572,168,o),
(585,196,o),
(594,226,cs),
(602,256,o),
(609,286,o),
(612,315,c),
(713,315,l),
(713,385,l),
(546,385,l),
(545,357,o),
(542,326,o),
(536,296,cs),
(530,266,o),
(521,235,o),
(510,214,c),
(345,389,l),
(345,393,l),
(392,409,o),
(431,434,o),
(459,465,cs),
(487,496,o),
(503,534,o),
(503,578,cs),
(503,626,o),
(484,666,o),
(452,695,cs),
(420,723,o),
(374,739,o),
(321,739,cs),
(264,739,o),
(216,721,o),
(182,692,cs),
(148,663,o),
(128,620,o),
(128,571,cs),
(128,538,o),
(137,508,o),
(154,480,c),
(170,451,o),
(194,423,o),
(226,392,c),
(226,404,l),
(167,383,o),
(124,350,o),
(94,313,cs),
(64,276,o),
(48,232,o),
(48,185,cs),
(48,122,o),
(72,73,o),
(112,40,cs),
(152,7,o),
(207,-10,o),
(270,-10,cs)
);
},
{
closed = 1;
nodes = (
(294,437,l),
(273,458,o),
(253,479,o),
(241,500,c),
(228,520,o),
(220,543,o),
(220,567,cs),
(220,622,o),
(258,663,o),
(322,663,cs),
(381,663,o),
(420,626,o),
(420,569,cs),
(420,509,o),
(374,462,o),
(299,437,c)
);
}
);
width = 742;
},
{
layerId = "BADC4CB4-4A37-4FEF-A0FC-8F77938ABBAB";
shapes = (
{
closed = 1;
nodes = (
(324,-10,o),
(373,0,o),
(416,23,cs),
(459,46,o),
(495,78,o),
(522,125,c),
(497,148,l),
(458,75,o),
(386,24,o),
(277,23,cs),
(225,23,o),
(178,36,o),
(146,64,c),
(113,91,o),
(93,133,o),
(93,186,cs),
(93,273,o),
(149,347,o),
(260,388,c),
(628,0,l),
(676,0,l),
(527,156,l),
(531,140,l),
(546,167,o),
(558,202,o),
(566,239,cs),
(574,275,o),
(580,315,o),
(581,348,c),
(693,348,l),
(693,378,l),
(547,378,l),
(547,346,o),
(544,308,o),
(538,272,cs),
(532,236,o),
(522,200,o),
(510,173,c),
(298,398,l),
(298,402,l),
(349,418,o),
(394,443,o),
(424,475,cs),
(454,507,o),
(472,546,o),
(472,591,cs),
(472,635,o),
(456,673,o),
(428,699,cs),
(399,725,o),
(359,739,o),
(312,739,cs),
(261,739,o),
(219,723,o),
(190,696,cs),
(161,668,o),
(144,630,o),
(144,585,cs),
(144,552,o),
(154,523,o),
(171,495,cs),
(188,466,o),
(214,438,o),
(247,403,c),
(247,413,l),
(182,389,o),
(135,355,o),
(104,316,cs),
(72,276,o),
(56,231,o),
(56,183,cs),
(56,119,o),
(80,71,o),
(120,39,c),
(159,6,o),
(212,-10,o),
(271,-10,cs)
);
},
{
closed = 1;
nodes = (
(273,422,l),
(246,450,o),
(222,475,o),
(206,501,cs),
(190,527,o),
(181,553,o),
(181,585,cs),
(181,654,o),
(228,707,o),
(312,707,cs),
(387,707,o),
(437,660,o),
(437,588,cs),
(437,511,o),
(376,454,o),
(277,422,c)
);
}
);
width = 719;
}
);
unicode = 38;
},
{
glyphname = quotesingle;
layers = (
{
layerId = "805E1B73-1F0E-4383-AACE-2240222288D4";
shapes = (
{
closed = 1;
nodes = (
(172,389,l),
(227,601,l),
(227,729,l),
(19,729,l),
(19,601,l),
(72,389,l)
);
}
);
width = 244;
},
{
layerId = "61D7B067-829F-4380-BDB7-B27A2BACA267";
shapes = (
{
closed = 1;
nodes = (
(112,463,l),
(132,617,l),
(132,729,l),
(49,729,l),
(49,617,l),
(69,463,l)
);
}
);
width = 181;
},
{
layerId = "BADC4CB4-4A37-4FEF-A0FC-8F77938ABBAB";
shapes = (
{
closed = 1;
nodes = (
(89,492,l),
(95,623,l),
(95,729,l),
(62,729,l),
(62,623,l),
(69,492,l)
);
}
);
width = 157;
}
);
leftKerningGroup = quotedbl2;
rightKerningGroup = quotedbl;
unicode = 39;
},
{
glyphname = parenleft;
layers = (
{
layerId = "805E1B73-1F0E-4383-AACE-2240222288D4";
shapes = (
{
closed = 1;
nodes = (
(402,-167,l),
(355,-106,o),
(318,-28,o),
(291,56,cs),
(264,140,o),
(248,230,o),
(248,313,cs),
(248,397,o),
(264,488,o),
(292,573,cs),
(319,657,o),
(357,733,o),
(402,793,c),
(204,793,l),
(149,738,o),
(103,664,o),
(71,580,cs),
(38,496,o),
(20,402,o),
(20,313,cs),
(20,224,o),
(38,131,o),
(71,47,cs),
(103,-38,o),
(149,-112,o),
(204,-167,c)
);
}
);
width = 405;
},
{
layerId = "61D7B067-829F-4380-BDB7-B27A2BACA267";
shapes = (
{
closed = 1;
nodes = (
(320,-167,l),
(267,-115,o),
(220,-42,o),
(188,42,cs),
(156,125,o),
(137,218,o),
(137,313,cs),
(137,404,o),
(154,495,o),
(186,579,cs),
(217,663,o),
(263,737,o),
(320,793,c),
(238,793,l),
(178,740,o),
(130,665,o),
(98,582,cs),
(65,498,o),
(46,405,o),
(46,313,cs),
(46,221,o),
(65,128,o),
(98,45,cs),
(130,-39,o),
(178,-114,o),
(238,-167,c)
);
}
);
width = 344;
},
{
layerId = "BADC4CB4-4A37-4FEF-A0FC-8F77938ABBAB";
shapes = (
{
closed = 1;
nodes = (
(288,-167,l),
(231,-118,o),
(182,-47,o),
(148,36,cs),
(114,119,o),
(93,214,o),
(93,313,cs),
(93,405,o),
(111,498,o),
(144,582,cs),
(176,665,o),
(225,738,o),
(288,793,c),
(251,793,l),
(190,740,o),
(141,666,o),
(108,583,cs),
(75,499,o),
(57,406,o),
(57,313,cs),
(57,220,o),
(75,127,o),
(108,44,cs),
(141,-40,o),
(190,-114,o),
(251,-167,c)
);
}
);
width = 320;
}
);
unicode = 40;
},
{
glyphname = parenright;
layers = (
{
layerId = "805E1B73-1F0E-4383-AACE-2240222288D4";
shapes = (
{
closed = 1;
nodes = (
(3,793,l),
(48,732,o),
(87,654,o),
(114,570,cs),
(141,486,o),
(156,396,o),
(156,313,cs),
(156,229,o),
(141,138,o),
(114,54,cs),
(86,-31,o),
(48,-107,o),
(3,-167,c),
(201,-167,l),
(254,-112,o),
(302,-38,o),
(334,47,cs),
(366,131,o),
(385,224,o),
(385,313,cs),
(385,402,o),
(366,496,o),
(334,580,cs),
(302,664,o),
(254,738,o),
(201,793,c)
);
}
);
width = 405;
},
{
layerId = "61D7B067-829F-4380-BDB7-B27A2BACA267";
shapes = (
{
closed = 1;
nodes = (
(23,793,l),
(78,741,o),
(123,668,o),
(156,585,cs),
(188,501,o),
(206,408,o),
(206,313,cs),
(206,224,o),
(189,131,o),
(158,47,cs),
(127,-37,o),
(82,-111,o),
(23,-167,c),
(106,-167,l),
(165,-114,o),
(214,-39,o),
(247,45,cs),
(279,128,o),
(297,221,o),
(297,313,cs),
(297,405,o),
(279,498,o),
(247,582,cs),
(214,665,o),
(165,740,o),
(106,793,c)
);
}
);
width = 344;
},
{
layerId = "BADC4CB4-4A37-4FEF-A0FC-8F77938ABBAB";
shapes = (
{
closed = 1;
nodes = (
(32,793,l),
(89,744,o),
(137,673,o),
(172,590,cs),
(207,507,o),
(226,412,o),
(226,313,cs),
(226,221,o),
(208,128,o),
(176,45,cs),
(143,-39,o),
(95,-112,o),
(32,-167,c),
(69,-167,l),
(130,-114,o),
(179,-40,o),
(212,44,cs),
(244,127,o),
(263,220,o),
(263,313,cs),
(263,406,o),
(244,499,o),
(212,583,cs),
(179,666,o),
(130,740,o),
(69,793,c)
);
}
);
width = 320;
}
);
unicode = 41;
},
{
glyphname = asterisk;
layers = (
{
layerId = "805E1B73-1F0E-4383-AACE-2240222288D4";
shapes = (
{
closed = 1;
nodes = (
(201,428,l),
(201,469,l),
(182,531,l),
(229,484,l),
(265,464,l),
(308,541,l),
(274,560,l),
(208,578,l),
(274,596,l),
(309,616,l),
(265,692,l),
(229,672,l),
(182,625,l),
(201,688,l),
(201,729,l),
(111,729,l),
(111,688,l),
(130,625,l),
(83,672,l),
(47,692,l),
(3,616,l),
(38,596,l),
(103,578,l),
(38,560,l),
(3,541,l),
(47,464,l),
(83,484,l),
(130,531,l),
(111,469,l),
(111,428,l)
);
}
);
width = 312;
},
{
layerId = "61D7B067-829F-4380-BDB7-B27A2BACA267";
shapes = (
{
closed = 1;
nodes = (
(177,444,l),
(177,498,l),
(166,565,l),
(220,523,l),
(267,495,l),
(289,535,l),
(242,562,l),
(181,587,l),
(242,612,l),
(288,637,l),
(267,677,l),
(220,651,l),
(166,610,l),
(177,676,l),
(177,729,l),
(130,729,l),
(130,676,l),
(142,610,l),
(89,651,l),
(42,677,l),
(19,637,l),
(65,612,l),
(127,587,l),
(65,562,l),
(19,535,l),
(42,495,l),
(89,523,l),
(142,565,l),
(130,498,l),
(130,444,l)
);
}
);
width = 308;
},
{
layerId = "BADC4CB4-4A37-4FEF-A0FC-8F77938ABBAB";
shapes = (
{
closed = 1;
nodes = (
(167,450,l),
(167,510,l),
(159,579,l),
(216,538,l),
(268,508,l),
(282,533,l),
(230,563,l),
(170,591,l),
(230,618,l),
(281,646,l),
(268,671,l),
(216,643,l),
(159,604,l),
(167,671,l),
(167,729,l),
(138,729,l),
(138,671,l),
(147,604,l),
(92,643,l),
(40,671,l),
(26,646,l),
(76,619,l),
(137,591,l),
(76,563,l),
(25,533,l),
(40,508,l),
(92,538,l),
(147,579,l),
(138,510,l),
(138,450,l)
);
}
);
width = 306;
}
);
unicode = 42;
},
{
glyphname = plus;
layers = (
{
layerId = "805E1B73-1F0E-4383-AACE-2240222288D4";
shapes = (
{
closed = 1;
nodes = (
(416,115,l),
(416,266,l),
(564,266,l),
(564,455,l),
(416,455,l),
(416,606,l),
(220,606,l),
(220,455,l),
(73,455,l),
(73,266,l),
(220,266,l),
(220,115,l)
);
}
);
width = 636;
},
{
layerId = "61D7B067-829F-4380-BDB7-B27A2BACA267";
shapes = (
{
closed = 1;
nodes = (
(358,118,l),
(358,323,l),
(561,323,l),
(561,399,l),
(358,399,l),
(358,604,l),
(278,604,l),
(278,399,l),
(76,399,l),
(76,323,l),
(278,323,l),
(278,118,l)
);
}
);
width = 636;
},
{
layerId = "BADC4CB4-4A37-4FEF-A0FC-8F77938ABBAB";
shapes = (
{
closed = 1;
nodes = (
(335,120,l),
(335,345,l),
(560,345,l),
(560,377,l),
(335,377,l),
(335,603,l),
(301,603,l),
(301,377,l),
(77,377,l),
(77,345,l),
(301,345,l),
(301,120,l)
);
}
);
width = 636;
}
);
unicode = 43;
},
{
glyphname = comma;
layers = (
{
layerId = "805E1B73-1F0E-4383-AACE-2240222288D4";
shapes = (
{
closed = 1;
nodes = (
(127,-178,l),
(159,-150,o),
(190,-109,o),
(214,-65,cs),
(238,-20,o),
(253,31,o),
(253,75,cs),
(253,156,o),
(202,201,o),
(130,201,cs),
(59,201,o),
(11,160,o),
(11,95,cs),
(11,36,o),
(48,-3,o),
(119,-3,cs),
(127,-3,o),
(136,-3,o),
(145,-3,c),
(129,12,l),
(122,-15,o),
(103,-47,o),
(79,-80,cs),
(54,-113,o),
(24,-147,o),
(-7,-178,c)
);
}
);
width = 269;
},
{
layerId = "61D7B067-829F-4380-BDB7-B27A2BACA267";
shapes = (
{
closed = 1;
nodes = (
(78,-139,l),
(95,-123,o),
(114,-95,o),
(130,-65,cs),
(146,-35,o),
(156,0,o),
(156,29,cs),
(156,72,o),
(131,93,o),
(98,93,cs),
(65,93,o),
(43,74,o),
(43,43,cs),
(43,16,o),
(60,-4,o),
(93,-4,cs),
(104,-4,o),
(111,0,o),
(116,5,c),
(108,10,l),
(104,-11,o),
(96,-34,o),
(81,-61,cs),
(66,-88,o),
(47,-114,o),
(24,-139,c)
);
}
);
width = 197;
},
{
layerId = "BADC4CB4-4A37-4FEF-A0FC-8F77938ABBAB";
shapes = (
{
closed = 1;
nodes = (
(59,-124,l),
(71,-112,o),
(85,-89,o),
(97,-65,cs),
(109,-40,o),
(117,-13,o),
(117,11,cs),
(117,39,o),
(104,51,o),
(85,51,cs),
(66,51,o),
(55,40,o),
(55,23,cs),
(55,8,o),
(64,-4,o),
(83,-4,cs),
(94,-4,o),
(101,1,o),
(104,8,c),
(99,9,l),
(98,-10,o),
(93,-30,o),
(82,-54,cs),
(71,-77,o),
(56,-100,o),
(36,-124,c)
);
}
);
width = 169;
}
);
unicode = 44;
},
{
glyphname = hyphen;
layers = (
{
layerId = "805E1B73-1F0E-4383-AACE-2240222288D4";
shapes = (
{
closed = 1;
nodes = (
(408,177,l),
(408,373,l),
(30,373,l),
(30,177,l)
);
}
);
width = 438;
},
{
layerId = "61D7B067-829F-4380-BDB7-B27A2BACA267";
shapes = (
{
closed = 1;
nodes = (
(348,224,l),
(348,303,l),
(49,303,l),
(49,224,l)
);
}
);
width = 396;
},
{
layerId = "BADC4CB4-4A37-4FEF-A0FC-8F77938ABBAB";
shapes = (
{
closed = 1;
nodes = (
(324,242,l),
(324,275,l),
(56,275,l),
(56,242,l)
);
}
);
width = 379;
}
);
leftKerningGroup = hyphen2;
rightKerningGroup = hyphen;
unicode = 45;
},
{
glyphname = period;
layers = (
{
layerId = "805E1B73-1F0E-4383-AACE-2240222288D4";
shapes = (
{
closed = 1;
nodes = (
(207,-9,o),
(250,33,o),
(250,96,cs),
(250,159,o),
(207,201,o),
(131,201,cs),
(54,201,o),
(11,159,o),
(11,96,cs),
(11,33,o),
(54,-9,o),
(131,-9,cs)
);
}
);
width = 261;
},
{
layerId = "61D7B067-829F-4380-BDB7-B27A2BACA267";
shapes = (
{
closed = 1;
nodes = (
(128,-8,o),
(150,12,o),
(150,43,cs),
(150,74,o),
(128,93,o),
(95,93,cs),
(60,93,o),
(40,74,o),
(40,43,cs),
(40,12,o),
(60,-8,o),
(95,-8,cs)
);
}
);
width = 190;
},
{
layerId = "BADC4CB4-4A37-4FEF-A0FC-8F77938ABBAB";
shapes = (
{
closed = 1;
nodes = (
(98,-7,o),
(111,5,o),
(111,22,cs),
(111,39,o),
(98,51,o),
(81,51,cs),
(64,51,o),
(51,39,o),
(51,22,cs),
(51,5,o),
(64,-7,o),
(81,-7,cs)
);
}
);
width = 162;
}
);
unicode = 46;
},
{
glyphname = slash;
layers = (
{
layerId = "805E1B73-1F0E-4383-AACE-2240222288D4";
shapes = (
{
closed = 1;
nodes = (
(216,-82,l),
(510,729,l),
(279,729,l),
(-13,-82,l)
);
}
);
width = 524;
},
{
layerId = "61D7B067-829F-4380-BDB7-B27A2BACA267";
shapes = (
{
closed = 1;
nodes = (
(79,-81,l),
(413,729,l),
(322,729,l),
(-13,-81,l)
);
}
);
width = 423;
},
{
layerId = "BADC4CB4-4A37-4FEF-A0FC-8F77938ABBAB";
shapes = (
{
closed = 1;
nodes = (
(25,-81,l),
(375,729,l),
(339,729,l),
(-14,-81,l)
);
}
);
width = 384;
}
);
unicode = 47;
},
{
glyphname = zero.lf;
layers = (
{
layerId = "805E1B73-1F0E-4383-AACE-2240222288D4";
shapes = (
{
closed = 1;
nodes = (
(441,-10,o),
(522,22,o),
(579,84,cs),
(636,146,o),
(668,239,o),
(668,363,cs),
(668,473,o),
(640,568,o),
(586,634,cs),
(533,700,o),
(451,737,o),
(343,737,cs),
(246,737,o),
(165,706,o),
(108,644,cs),
(51,582,o),
(18,488,o),
(18,363,cs),
(18,253,o),
(45,160,o),
(99,94,cs),
(153,28,o),
(235,-10,o),
(343,-10,cs)
);
},
{
closed = 1;
nodes = (
(326,191,o),
(306,192,o),
(291,215,cs),
(275,239,o),
(264,282,o),
(264,363,cs),
(264,445,o),
(275,488,o),
(291,512,cs),
(306,535,o),
(326,537,o),
(343,537,cs),
(360,537,o),
(380,535,o),
(396,512,cs),
(412,488,o),
(423,445,o),
(423,363,cs),
(423,282,o),
(412,239,o),
(396,215,cs),
(380,192,o),
(360,191,o),
(343,191,cs)
);
}
);
width = 679;
},
{
layerId = "61D7B067-829F-4380-BDB7-B27A2BACA267";
shapes = (
{
closed = 1;
nodes = (
(419,-9,o),
(490,21,o),
(541,83,cs),
(591,145,o),
(620,239,o),
(620,364,cs),
(620,485,o),
(591,579,o),
(543,642,cs),
(493,705,o),
(421,737,o),
(333,737,cs),
(247,737,o),
(175,706,o),
(124,644,cs),
(74,582,o),
(45,489,o),
(45,364,cs),
(45,243,o),
(73,150,o),
(122,86,cs),
(172,22,o),
(244,-9,o),
(333,-9,cs)
);
},
{
closed = 1;
nodes = (
(269,72,o),
(222,96,o),
(191,146,cs),
(159,194,o),
(144,267,o),
(144,364,cs),
(144,461,o),
(159,534,o),
(191,583,cs),
(222,632,o),
(269,656,o),
(333,656,cs),
(394,656,o),
(442,632,o),
(474,583,cs),
(506,534,o),
(522,461,o),
(522,364,cs),
(522,267,o),
(506,194,o),
(474,146,cs),
(442,96,o),
(394,72,o),
(333,72,cs)
);
}
);
width = 657;
},
{
layerId = "BADC4CB4-4A37-4FEF-A0FC-8F77938ABBAB";
shapes = (
{
closed = 1;
nodes = (
(409,-9,o),
(477,21,o),
(526,83,cs),
(573,145,o),
(601,239,o),
(601,364,cs),
(601,489,o),
(573,583,o),
(526,645,cs),
(477,706,o),
(409,737,o),
(329,737,cs),
(247,737,o),
(178,706,o),
(130,645,cs),
(83,583,o),
(56,489,o),
(56,364,cs),
(56,239,o),
(83,145,o),
(131,83,cs),
(179,21,o),
(248,-9,o),
(329,-9,cs)
);
},
{
closed = 1;
nodes = (
(248,25,o),
(190,58,o),
(152,117,cs),
(113,177,o),
(96,262,o),
(96,364,cs),
(96,468,o),
(113,553,o),
(152,612,cs),
(190,670,o),
(248,703,o),
(329,703,cs),
(408,703,o),
(467,670,o),
(505,612,cs),
(542,553,o),
(560,466,o),
(560,364,cs),
(560,262,o),
(542,177,o),
(505,117,cs),
(467,58,o),
(408,25,o),
(329,25,cs)
);
}
);
width = 649;
}
);
},
{
glyphname = one.lf;
layers = (
{
layerId = "805E1B73-1F0E-4383-AACE-2240222288D4";
shapes = (
{
closed = 1;
nodes = (
(454,0,l),
(454,729,l),
(224,729,l),
(221,689,o),
(199,654,o),
(167,631,cs),
(134,607,o),
(91,594,o),
(45,594,cs),
(12,594,l),
(12,409,l),
(209,409,l),
(209,0,l)
);
}
);
width = 496;
},
{
layerId = "61D7B067-829F-4380-BDB7-B27A2BACA267";
shapes = (
{
closed = 1;
nodes = (
(295,0,l),
(295,729,l),
(202,729,l),
(199,694,o),
(186,662,o),
(162,642,cs),
(136,621,o),
(101,609,o),
(53,609,cs),
(23,609,l),
(23,536,l),
(199,536,l),
(199,0,l)
);
}
);
width = 368;
},
{
layerId = "BADC4CB4-4A37-4FEF-A0FC-8F77938ABBAB";
shapes = (
{
closed = 1;
nodes = (
(233,0,l),
(233,729,l),
(193,729,l),
(190,696,o),
(181,666,o),
(160,646,cs),
(139,626,o),
(105,615,o),
(56,615,cs),
(27,615,l),
(27,585,l),
(195,585,l),
(195,0,l)
);
}
);
width = 317;
}
);
},
{
glyphname = two.lf;
layers = (
{
layerId = "805E1B73-1F0E-4383-AACE-2240222288D4";
shapes = (
{
closed = 1;
nodes = (
(600,0,l),
(600,201,l),
(309,201,l),
(323,208,o),
(340,215,o),
(359,223,cs),
(397,240,o),
(440,263,o),
(484,295,cs),
(507,310,o),
(527,329,o),
(544,350,cs),
(578,390,o),
(603,441,o),
(603,505,cs),
(603,573,o),
(577,631,o),
(530,672,cs),
(481,713,o),
(413,737,o),
(328,737,cs),
(238,737,o),
(163,715,o),
(110,671,cs),
(57,628,o),
(25,563,o),
(16,479,c),
(257,479,l),
(258,495,o),
(264,511,o),
(273,521,cs),
(281,531,o),
(295,538,o),
(316,538,cs),
(325,538,o),
(336,535,o),
(344,528,cs),
(352,521,o),
(358,510,o),
(358,496,cs),
(358,477,o),
(350,459,o),
(333,443,cs),
(299,411,o),
(247,376,o),
(187,336,c),
(158,314,o),
(129,290,o),
(104,263,cs),
(53,207,o),
(15,139,o),
(15,38,cs),
(15,0,l)
);
}
);
width = 621;
},
{
layerId = "61D7B067-829F-4380-BDB7-B27A2BACA267";
shapes = (
{
closed = 1;
nodes = (
(542,0,l),
(542,82,l),
(149,82,l),
(154,109,o),
(166,133,o),
(187,156,cs),
(229,199,o),
(288,238,o),
(353,279,cs),
(385,299,o),
(416,322,o),
(443,346,cs),
(497,393,o),
(537,450,o),
(537,527,cs),
(537,590,o),
(515,643,o),
(473,679,cs),
(432,716,o),
(371,737,o),
(295,737,cs),
(218,737,o),
(154,715,o),
(109,675,cs),
(64,635,o),
(37,577,o),
(36,506,c),
(131,507,l),
(131,551,o),
(146,588,o),
(174,615,cs),
(201,641,o),
(242,656,o),
(291,656,cs),
(336,656,o),
(374,645,o),
(399,623,cs),
(424,601,o),
(440,565,o),
(440,524,cs),
(440,491,o),
(430,463,o),
(411,438,cs),
(370,387,o),
(308,344,o),
(240,300,cs),
(204,279,o),
(172,255,o),
(143,230,cs),
(83,177,o),
(38,113,o),
(38,25,cs),
(38,0,l)
);
}
);
width = 574;
},
{
layerId = "BADC4CB4-4A37-4FEF-A0FC-8F77938ABBAB";
shapes = (
{
closed = 1;
nodes = (
(520,0,l),
(520,34,l),
(85,34,l),
(86,70,o),
(98,101,o),
(119,128,cs),
(163,183,o),
(229,227,o),
(301,272,cs),
(338,294,o),
(372,318,o),
(403,344,cs),
(466,394,o),
(512,454,o),
(512,536,cs),
(512,597,o),
(490,647,o),
(451,682,cs),
(412,718,o),
(354,737,o),
(282,737,cs),
(210,737,o),
(150,716,o),
(108,676,cs),
(67,637,o),
(43,582,o),
(44,517,c),
(82,517,l),
(82,573,o),
(99,619,o),
(134,652,cs),
(170,685,o),
(220,703,o),
(282,703,cs),
(340,703,o),
(388,688,o),
(421,659,cs),
(453,631,o),
(472,587,o),
(472,535,cs),
(472,497,o),
(462,464,o),
(441,436,cs),
(399,378,o),
(333,331,o),
(260,286,cs),
(223,264,o),
(189,241,o),
(158,215,cs),
(94,165,o),
(48,104,o),
(48,19,cs),
(48,0,l)
);
}
);
width = 555;
}
);
},
{
glyphname = three.lf;
layers = (
{
layerId = "805E1B73-1F0E-4383-AACE-2240222288D4";
shapes = (
{
closed = 1;
nodes = (
(415,-11,o),
(493,11,o),
(547,50,cs),
(601,88,o),
(632,144,o),
(632,215,cs),
(632,292,o),
(585,355,o),
(512,374,c),
(512,381,l),
(543,393,o),
(569,414,o),
(587,440,cs),
(606,466,o),
(615,497,o),
(615,531,cs),
(615,596,o),
(586,647,o),
(537,684,cs),
(487,719,o),
(417,738,o),
(329,738,cs),
(235,738,o),
(159,716,o),
(106,675,cs),
(54,634,o),
(22,573,o),
(17,495,c),
(255,495,l),
(258,515,o),
(264,526,o),
(275,534,cs),
(286,541,o),
(301,545,o),
(318,545,cs),
(338,545,o),
(350,540,o),
(359,533,cs),
(368,526,o),
(372,514,o),
(372,500,cs),
(372,485,o),
(367,473,o),
(358,465,cs),
(349,457,o),
(334,452,o),
(316,452,cs),
(225,452,l),
(225,284,l),
(321,284,ls),
(344,284,o),
(359,278,o),
(370,270,cs),
(381,262,o),
(385,251,o),
(385,238,cs),
(385,204,o),
(365,183,o),
(321,183,cs),
(301,183,o),
(284,187,o),
(272,196,c),
(259,204,o),
(252,218,o),
(252,236,c),
(11,236,l),
(15,160,o),
(42,99,o),
(94,57,cs),
(146,14,o),
(222,-11,o),
(321,-11,cs)
);
}
);
width = 640;
},
{
layerId = "61D7B067-829F-4380-BDB7-B27A2BACA267";
shapes = (
{
closed = 1;
nodes = (
(376,-9,o),
(445,11,o),
(492,48,cs),
(540,84,o),
(566,138,o),
(566,202,cs),
(566,295,o),
(514,360,o),
(424,377,c),
(424,382,l),
(463,391,o),
(495,413,o),
(520,441,cs),
(543,469,o),
(556,506,o),
(556,547,cs),
(556,607,o),
(532,655,o),
(488,688,cs),
(444,720,o),
(382,738,o),
(306,738,cs),
(230,738,o),
(166,717,o),
(120,679,cs),
(75,642,o),
(49,587,o),
(45,522,c),
(140,522,l),
(143,563,o),
(159,599,o),
(188,623,cs),
(216,646,o),
(256,659,o),
(303,659,cs),
(351,659,o),
(389,648,o),
(418,628,cs),
(445,608,o),
(460,577,o),
(460,537,cs),
(460,500,o),
(447,467,o),
(421,446,cs),
(394,425,o),
(354,412,o),
(301,412,cs),
(231,412,l),
(231,340,l),
(312,340,ls),
(360,340,o),
(398,329,o),
(426,308,cs),
(453,287,o),
(467,254,o),
(467,209,cs),
(467,124,o),
(404,71,o),
(294,71,cs),
(246,71,o),
(204,83,o),
(176,107,cs),
(147,131,o),
(128,166,o),
(127,209,c),
(32,209,l),
(33,145,o),
(60,90,o),
(105,52,cs),
(150,13,o),
(214,-9,o),
(294,-9,cs)
);
}
);
width = 604;
},
{
layerId = "BADC4CB4-4A37-4FEF-A0FC-8F77938ABBAB";
shapes = (
{
closed = 1;
nodes = (
(362,-8,o),
(426,11,o),
(471,48,cs),
(516,83,o),
(541,133,o),
(541,197,cs),
(541,295,o),
(485,362,o),
(389,378,c),
(389,382,l),
(431,391,o),
(468,413,o),
(493,442,cs),
(518,470,o),
(534,509,o),
(534,553,cs),
(534,611,o),
(510,657,o),
(469,690,c),
(428,721,o),
(369,738,o),
(297,738,cs),
(227,738,o),
(169,718,o),
(126,681,cs),
(84,644,o),
(58,594,o),
(58,532,c),
(95,532,l),
(96,583,o),
(117,627,o),
(154,657,cs),
(189,688,o),
(238,704,o),
(297,704,cs),
(357,704,o),
(404,691,o),
(440,665,cs),
(475,640,o),
(494,602,o),
(494,552,cs),
(494,505,o),
(477,466,o),
(445,439,cs),
(412,411,o),
(361,395,o),
(295,395,cs),
(233,395,l),
(233,362,l),
(309,362,ls),
(366,362,o),
(415,350,o),
(448,324,cs),
(481,297,o),
(500,255,o),
(500,198,cs),
(500,93,o),
(421,26,o),
(284,26,cs),
(223,26,o),
(173,42,o),
(138,73,cs),
(101,103,o),
(80,146,o),
(79,199,c),
(40,199,l),
(41,139,o),
(67,86,o),
(109,50,cs),
(152,13,o),
(211,-8,o),
(284,-8,cs)
);
}
);
width = 589;
}
);
},
{
glyphname = four.lf;
layers = (
{
layerId = "805E1B73-1F0E-4383-AACE-2240222288D4";
shapes = (
{
closed = 1;
nodes = (
(585,0,l),
(585,729,l),
(290,729,l),
(12,312,l),
(12,140,l),
(686,140,l),
(686,334,l),
(257,334,l),
(384,540,l),
(341,540,l),
(341,0,l)
);
}
);
width = 691;
},
{
layerId = "61D7B067-829F-4380-BDB7-B27A2BACA267";
shapes = (
{
closed = 1;
nodes = (
(500,0,l),
(500,729,l),
(386,729,l),
(24,256,l),
(24,182,l),
(635,182,l),
(635,261,l),
(125,261,l),
(422,648,l),
(403,648,l),
(403,0,l)
);
}
);
width = 651;
},
{
layerId = "BADC4CB4-4A37-4FEF-A0FC-8F77938ABBAB";
shapes = (
{
closed = 1;
nodes = (
(466,0,l),
(466,729,l),
(425,729,l),
(29,234,l),
(29,198,l),
(615,198,l),
(615,232,l),
(74,232,l),
(437,691,l),
(429,691,l),
(429,0,l)
);
}
);
width = 635;
}
);
},
{
glyphname = five.lf;
layers = (
{
layerId = "805E1B73-1F0E-4383-AACE-2240222288D4";
shapes = (
{
closed = 1;
nodes = (
(415,-11,o),
(492,14,o),
(548,59,cs),
(604,103,o),
(636,169,o),
(636,250,cs),
(636,324,o),
(612,381,o),
(569,422,cs),
(527,462,o),
(466,483,o),
(396,483,cs),
(366,483,o),
(304,475,o),
(281,454,c),
(272,457,l),
(283,524,l),
(611,524,l),
(611,729,l),
(65,729,l),
(33,259,l),
(262,259,l),
(271,283,o),
(296,299,o),
(329,299,cs),
(346,299,o),
(362,294,o),
(373,284,cs),
(384,274,o),
(390,260,o),
(390,244,cs),
(390,231,o),
(384,214,o),
(373,205,cs),
(362,196,o),
(347,188,o),
(327,188,cs),
(311,188,o),
(298,190,o),
(288,195,cs),
(278,199,o),
(268,207,o),
(264,216,c),
(18,216,l),
(26,148,o),
(55,92,o),
(104,53,cs),
(154,12,o),
(227,-11,o),
(322,-11,cs)
);
}
);
width = 649;
},
{
layerId = "61D7B067-829F-4380-BDB7-B27A2BACA267";
shapes = (
{
closed = 1;
nodes = (
(390,-9,o),
(459,16,o),
(508,59,cs),
(555,101,o),
(583,162,o),
(583,238,cs),
(583,310,o),
(560,368,o),
(517,409,cs),
(473,450,o),
(412,473,o),
(336,473,cs),
(273,473,o),
(196,453,o),
(159,398,c),
(154,399,l),
(173,646,l),
(563,646,l),
(563,729,l),
(87,729,l),
(60,313,l),
(154,313,l),
(178,363,o),
(237,397,o),
(312,397,cs),
(365,397,o),
(408,382,o),
(438,355,cs),
(467,327,o),
(484,287,o),
(484,235,cs),
(484,187,o),
(469,146,o),
(440,117,cs),
(411,89,o),
(366,72,o),
(308,72,cs),
(261,72,o),
(220,85,o),
(192,108,cs),
(164,131,o),
(147,164,o),
(144,204,c),
(48,204,l),
(51,141,o),
(77,87,o),
(121,51,cs),
(166,13,o),
(230,-9,o),
(306,-9,cs)
);
}
);
width = 615;
},
{
layerId = "BADC4CB4-4A37-4FEF-A0FC-8F77938ABBAB";
shapes = (
{
closed = 1;
nodes = (
(379,-8,o),
(445,16,o),
(490,58,cs),
(536,99,o),
(562,160,o),
(562,234,cs),
(562,303,o),
(539,363,o),
(495,404,cs),
(452,446,o),
(391,470,o),
(311,470,cs),
(236,470,o),
(153,440,o),
(110,376,c),
(107,377,l),
(129,695,l),
(545,695,l),
(545,729,l),
(96,729,l),
(70,335,l),
(110,335,l),
(142,394,o),
(212,436,o),
(306,436,cs),
(372,436,o),
(427,418,o),
(464,383,cs),
(500,349,o),
(522,297,o),
(522,232,cs),
(522,171,o),
(503,119,o),
(466,83,cs),
(429,47,o),
(374,26,o),
(301,26,cs),
(241,26,o),
(191,44,o),
(155,75,cs),
(118,105,o),
(97,148,o),
(96,199,c),
(59,199,l),
(60,139,o),
(86,86,o),
(128,50,cs),
(171,13,o),
(232,-8,o),
(301,-8,cs)
);
}
);
width = 602;
}
);
},
{
glyphname = six.lf;
layers = (
{
layerId = "805E1B73-1F0E-4383-AACE-2240222288D4";
shapes = (
{
closed = 1;
nodes = (
(443,-9,o),
(522,17,o),
(578,63,cs),
(634,107,o),
(665,174,o),
(665,255,cs),
(665,325,o),
(642,381,o),
(600,422,cs),
(557,461,o),
(496,482,o),
(424,482,cs),
(373,482,o),
(310,471,o),
(270,436,c),
(260,436,l),
(260,473,o),
(272,499,o),
(291,516,cs),
(310,532,o),
(334,540,o),
(358,540,cs),
(371,540,o),
(386,539,o),
(398,535,cs),
(411,530,o),
(421,524,o),
(426,516,c),
(669,516,l),
(660,583,o),
(626,638,o),
(574,677,cs),
(522,717,o),
(451,739,o),
(362,739,cs),
(261,739,o),
(174,708,o),
(114,646,cs),
(54,584,o),
(18,490,o),
(18,365,cs),
(18,223,o),
(55,129,o),
(114,72,cs),
(174,14,o),
(256,-9,o),
(346,-9,cs)
);
},
{
closed = 1;
nodes = (
(332,192,o),
(315,199,o),
(303,208,cs),
(291,217,o),
(284,235,o),
(284,251,cs),
(284,270,o),
(290,284,o),
(302,293,cs),
(314,302,o),
(332,308,o),
(352,308,cs),
(375,308,o),
(391,303,o),
(403,292,cs),
(415,281,o),
(422,269,o),
(422,250,cs),
(422,234,o),
(415,217,o),
(403,208,cs),
(391,199,o),
(374,192,o),
(353,192,cs)
);
}
);
width = 679;
},
{
layerId = "61D7B067-829F-4380-BDB7-B27A2BACA267";
shapes = (
{
closed = 1;
nodes = (
(409,-8,o),
(478,15,o),
(527,58,cs),
(574,100,o),
(602,160,o),
(602,236,cs),
(602,305,o),
(577,364,o),
(535,404,cs),
(492,444,o),
(430,466,o),
(356,466,cs),
(268,466,o),
(177,430,o),
(146,371,c),
(141,371,l),
(142,437,o),
(153,517,o),
(182,571,cs),
(211,626,o),
(261,657,o),
(341,657,cs),
(382,657,o),
(419,649,o),
(447,631,cs),
(474,613,o),
(492,585,o),
(499,549,c),
(596,549,l),
(588,606,o),
(561,653,o),
(518,687,cs),
(473,719,o),
(414,738,o),
(342,738,cs),
(246,738,o),
(172,707,o),
(122,640,cs),
(73,573,o),
(47,469,o),
(47,327,cs),
(47,216,o),
(70,132,o),
(117,77,cs),
(165,20,o),
(236,-8,o),
(329,-8,cs)
);
},
{
closed = 1;
nodes = (
(280,73,o),
(237,87,o),
(206,114,cs),
(176,142,o),
(158,180,o),
(158,230,cs),
(158,275,o),
(175,316,o),
(205,346,cs),
(236,374,o),
(278,392,o),
(334,392,cs),
(383,392,o),
(428,378,o),
(457,351,cs),
(486,324,o),
(504,284,o),
(504,235,cs),
(504,186,o),
(487,146,o),
(458,117,cs),
(429,89,o),
(385,73,o),
(332,73,cs)
);
}
);
width = 636;
},
{
layerId = "BADC4CB4-4A37-4FEF-A0FC-8F77938ABBAB";
shapes = (
{
closed = 1;
nodes = (
(397,-8,o),
(461,14,o),
(506,56,cs),
(550,96,o),
(576,155,o),
(576,229,cs),
(576,298,o),
(552,357,o),
(509,397,cs),
(465,437,o),
(403,459,o),
(330,459,cs),
(227,459,o),
(124,410,o),
(97,303,c),
(93,303,l),
(96,422,o),
(105,523,o),
(140,593,cs),
(174,662,o),
(233,704,o),
(335,704,cs),
(386,704,o),
(432,692,o),
(466,668,cs),
(500,645,o),
(522,610,o),
(529,562,c),
(566,562,l),
(562,615,o),
(536,658,o),
(495,690,cs),
(455,721,o),
(398,738,o),
(335,738,cs),
(241,738,o),
(171,706,o),
(126,637,cs),
(81,568,o),
(58,462,o),
(58,311,cs),
(58,213,o),
(77,133,o),
(119,79,cs),
(162,24,o),
(227,-8,o),
(322,-8,cs)
);
},
{
closed = 1;
nodes = (
(259,26,o),
(206,43,o),
(168,77,cs),
(129,110,o),
(108,160,o),
(108,221,cs),
(108,278,o),
(128,330,o),
(166,366,cs),
(203,402,o),
(258,426,o),
(327,426,cs),
(388,426,o),
(442,407,o),
(478,374,cs),
(515,341,o),
(536,292,o),
(536,229,cs),
(536,168,o),
(516,117,o),
(479,82,cs),
(443,45,o),
(389,26,o),
(324,26,cs)
);
}
);
width = 619;
}
);
leftKerningGroup = zero;
},
{
glyphname = seven.lf;
layers = (
{
layerId = "805E1B73-1F0E-4383-AACE-2240222288D4";
shapes = (
{
closed = 1;
nodes = (
(425,0,l),
(428,126,o),
(450,229,o),
(485,317,cs),
(521,406,o),
(567,484,o),
(623,557,c),
(623,729,l),
(20,729,l),
(20,524,l),
(208,524,l),
(208,524,l),
(349,524,l),
(305,467,o),
(262,395,o),
(229,308,cs),
(195,221,o),
(173,117,o),
(170,0,c)
);
}
);
width = 627;
},
{
layerId = "61D7B067-829F-4380-BDB7-B27A2BACA267";
shapes = (
{
closed = 1;
nodes = (
(300,0,l),
(305,143,o),
(337,263,o),
(382,369,cs),
(428,475,o),
(489,570,o),
(557,662,c),
(557,729,l),
(35,729,l),
(35,647,l),
(112,647,l),
(112,647,l),
(447,647,l),
(383,561,o),
(325,469,o),
(280,364,cs),
(235,259,o),
(204,139,o),
(200,0,c)
);
}
);
width = 572;
},
{
layerId = "BADC4CB4-4A37-4FEF-A0FC-8F77938ABBAB";
shapes = (
{
closed = 1;
nodes = (
(252,0,l),
(257,150,o),
(291,276,o),
(342,390,cs),
(392,504,o),
(458,604,o),
(531,704,c),
(531,729,l),
(41,729,l),
(41,697,l),
(74,697,l),
(74,697,l),
(485,697,l),
(416,599,o),
(349,499,o),
(300,387,cs),
(251,274,o),
(218,149,o),
(211,0,c)
);
}
);
width = 551;
}
);
},
{
glyphname = eight.lf;
layers = (
{
layerId = "805E1B73-1F0E-4383-AACE-2240222288D4";
shapes = (
{
closed = 1;
nodes = (
(428,-10,o),
(507,10,o),
(560,47,cs),
(613,83,o),
(642,135,o),
(642,203,cs),
(642,247,o),
(627,284,o),
(603,313,cs),
(578,343,o),
(544,365,o),
(507,373,c),
(507,382,l),
(574,402,o),
(619,462,o),
(619,535,cs),
(619,600,o),
(591,651,o),
(541,686,cs),
(490,720,o),
(418,737,o),
(328,737,cs),
(242,737,o),
(171,721,o),
(119,688,cs),
(67,654,o),
(37,604,o),
(37,535,cs),
(37,462,o),
(81,402,o),
(149,382,c),
(149,373,l),
(112,365,o),
(77,343,o),
(53,313,cs),
(28,284,o),
(13,247,o),
(13,203,cs),
(13,140,o),
(39,85,o),
(92,49,cs),
(145,11,o),
(222,-10,o),
(328,-10,cs)
);
},
{
closed = 1;
nodes = (
(307,188,o),
(291,191,o),
(280,200,cs),
(269,208,o),
(263,220,o),
(263,238,cs),
(263,254,o),
(268,266,o),
(280,275,cs),
(291,284,o),
(307,288,o),
(328,288,cs),
(348,288,o),
(364,284,o),
(376,275,cs),
(387,266,o),
(392,254,o),
(392,238,cs),
(392,220,o),
(387,208,o),
(376,200,cs),
(364,191,o),
(348,188,o),
(328,188,cs)
);
},
{
closed = 1;
nodes = (
(314,457,o),
(299,460,o),
(289,468,cs),
(279,475,o),
(272,486,o),
(272,503,cs),
(272,518,o),
(278,528,o),
(288,536,cs),
(298,543,o),
(311,546,o),
(328,546,cs),
(344,546,o),
(359,543,o),
(368,536,cs),
(377,528,o),
(383,518,o),
(383,503,cs),
(383,486,o),
(377,475,o),
(367,468,cs),
(357,460,o),
(341,457,o),
(328,457,cs)
);
}
);
width = 648;
},
{
layerId = "61D7B067-829F-4380-BDB7-B27A2BACA267";
shapes = (
{
closed = 1;
nodes = (
(397,-10,o),
(465,10,o),
(514,45,cs),
(561,81,o),
(587,130,o),
(587,194,cs),
(587,240,o),
(572,281,o),
(545,313,c),
(517,345,o),
(475,366,o),
(427,374,c),
(427,379,l),
(511,398,o),
(565,460,o),
(565,545,cs),
(565,606,o),
(541,654,o),
(496,688,cs),
(452,720,o),
(389,737,o),
(313,737,cs),
(240,737,o),
(176,720,o),
(131,688,cs),
(87,655,o),
(62,607,o),
(62,545,cs),
(62,460,o),
(117,398,o),
(201,379,c),
(201,374,l),
(152,366,o),
(111,344,o),
(83,312,cs),
(55,281,o),
(39,240,o),
(39,194,cs),
(39,132,o),
(67,82,o),
(113,47,cs),
(160,10,o),
(229,-10,o),
(313,-10,cs)
);
},
{
closed = 1;
nodes = (
(260,71,o),
(216,84,o),
(186,107,cs),
(156,130,o),
(139,164,o),
(139,205,cs),
(139,246,o),
(152,278,o),
(181,302,cs),
(209,326,o),
(253,339,o),
(313,339,cs),
(374,339,o),
(418,326,o),
(447,302,c),
(475,278,o),
(488,246,o),
(488,205,cs),
(488,165,o),
(471,130,o),
(442,107,cs),
(413,84,o),
(369,71,o),
(313,71,cs)
);
},
{
closed = 1;
nodes = (
(257,412,o),
(216,427,o),
(192,449,cs),
(167,471,o),
(156,503,o),
(156,536,cs),
(156,571,o),
(169,602,o),
(195,624,cs),
(221,646,o),
(260,659,o),
(313,659,cs),
(367,659,o),
(407,646,o),
(433,624,cs),
(458,602,o),
(471,571,o),
(471,536,cs),
(471,503,o),
(460,471,o),
(436,449,cs),
(411,427,o),
(370,412,o),
(313,412,cs)
);
}
);
width = 620;
},
{
layerId = "BADC4CB4-4A37-4FEF-A0FC-8F77938ABBAB";
shapes = (
{
closed = 1;
nodes = (
(385,-9,o),
(450,11,o),
(495,45,cs),
(540,80,o),
(566,129,o),
(566,190,cs),
(566,239,o),
(550,280,o),
(522,312,cs),
(492,345,o),
(450,367,o),
(394,374,c),
(394,378,l),
(484,395,o),
(545,460,o),
(545,549,cs),
(545,609,o),
(521,655,o),
(479,688,cs),
(438,720,o),
(378,737,o),
(308,737,cs),
(239,737,o),
(178,720,o),
(136,688,cs),
(95,655,o),
(72,609,o),
(72,549,cs),
(72,460,o),
(131,395,o),
(221,378,c),
(221,374,l),
(168,367,o),
(124,345,o),
(95,312,cs),
(66,280,o),
(50,239,o),
(50,190,cs),
(50,129,o),
(76,80,o),
(121,45,cs),
(166,11,o),
(232,-9,o),
(308,-9,cs)
);
},
{
closed = 1;
nodes = (
(240,25,o),
(185,41,o),
(149,71,c),
(111,99,o),
(90,142,o),
(90,193,cs),
(90,242,o),
(106,283,o),
(143,312,cs),
(178,341,o),
(232,359,o),
(308,359,cs),
(384,359,o),
(439,341,o),
(474,312,cs),
(510,283,o),
(526,242,o),
(526,193,cs),
(526,142,o),
(505,99,o),
(468,71,cs),
(431,41,o),
(376,25,o),
(308,25,cs)
);
},
{
closed = 1;
nodes = (
(235,393,o),
(185,413,o),
(154,441,cs),
(122,469,o),
(110,509,o),
(110,549,cs),
(110,593,o),
(125,631,o),
(158,659,cs),
(190,687,o),
(240,704,o),
(308,704,cs),
(376,704,o),
(426,687,o),
(458,659,cs),
(490,631,o),
(506,593,o),
(506,549,cs),
(506,509,o),
(494,469,o),
(463,441,cs),
(432,413,o),
(382,393,o),
(308,393,cs)
);
}
);
width = 609;
}
);
},
{
glyphname = nine.lf;
layers = (
{
layerId = "805E1B73-1F0E-4383-AACE-2240222288D4";
shapes = (
{
closed = 1;
nodes = (
(245,739,o),
(165,713,o),
(109,667,cs),
(53,622,o),
(21,555,o),
(21,475,cs),
(21,405,o),
(47,349,o),
(88,309,cs),
(129,269,o),
(190,248,o),
(263,248,cs),
(318,248,o),
(373,261,o),
(417,294,c),
(427,293,l),
(427,257,o),
(415,230,o),
(395,213,cs),
(376,197,o),
(353,190,o),
(330,190,cs),
(314,190,o),
(300,191,o),
(289,195,cs),
(277,199,o),
(266,205,o),
(262,214,c),
(17,214,l),
(26,146,o),
(61,92,o),
(113,53,cs),
(165,12,o),
(236,-9,o),
(325,-9,cs),
(427,-9,o),
(514,22,o),
(574,84,cs),
(634,146,o),
(668,240,o),
(668,364,cs),
(668,506,o),
(632,600,o),
(572,658,cs),
(513,717,o),
(431,739,o),
(341,739,cs)
);
},
{
closed = 1;
nodes = (
(355,538,o),
(371,532,o),
(383,522,cs),
(395,512,o),
(402,497,o),
(402,478,cs),
(402,461,o),
(396,447,o),
(384,437,cs),
(372,427,o),
(355,422,o),
(335,422,cs),
(311,422,o),
(295,428,o),
(284,438,cs),
(272,448,o),
(265,463,o),
(265,480,cs),
(265,497,o),
(272,513,o),
(284,522,cs),
(295,531,o),
(313,538,o),
(335,538,cs)
);
}
);
width = 679;
},
{
layerId = "61D7B067-829F-4380-BDB7-B27A2BACA267";
shapes = (
{
closed = 1;
nodes = (
(234,738,o),
(166,716,o),
(117,673,cs),
(69,631,o),
(41,570,o),
(41,493,cs),
(41,424,o),
(67,366,o),
(109,327,cs),
(152,286,o),
(213,264,o),
(287,264,cs),
(375,264,o),
(466,300,o),
(497,359,c),
(503,359,l),
(499,288,o),
(491,213,o),
(462,160,cs),
(433,105,o),
(382,73,o),
(302,73,cs),
(262,73,o),
(225,82,o),
(198,100,cs),
(170,118,o),
(151,145,o),
(144,181,c),
(48,181,l),
(55,124,o),
(82,77,o),
(126,44,cs),
(170,11,o),
(230,-8,o),
(301,-8,cs),
(398,-8,o),
(471,23,o),
(521,90,cs),
(570,157,o),
(597,259,o),
(597,403,cs),
(597,514,o),
(573,598,o),
(526,654,cs),
(478,710,o),
(407,738,o),
(314,738,cs)
);
},
{
closed = 1;
nodes = (
(363,656,o),
(407,643,o),
(438,616,cs),
(468,588,o),
(485,550,o),
(485,500,cs),
(485,453,o),
(469,414,o),
(439,384,cs),
(408,355,o),
(365,338,o),
(309,338,cs),
(260,338,o),
(215,352,o),
(187,379,cs),
(158,406,o),
(140,446,o),
(140,495,cs),
(140,544,o),
(156,584,o),
(185,613,cs),
(214,640,o),
(258,656,o),
(311,656,cs)
);
}
);
width = 636;
},
{
layerId = "BADC4CB4-4A37-4FEF-A0FC-8F77938ABBAB";
shapes = (
{
closed = 1;
nodes = (
(231,738,o),
(166,716,o),
(121,675,cs),
(76,634,o),
(50,575,o),
(50,502,cs),
(50,430,o),
(74,373,o),
(117,334,cs),
(161,293,o),
(222,270,o),
(296,270,cs),
(398,270,o),
(504,319,o),
(529,426,c),
(533,426,l),
(532,307,o),
(523,209,o),
(488,139,cs),
(454,68,o),
(394,26,o),
(292,26,cs),
(240,26,o),
(196,38,o),
(162,62,cs),
(127,85,o),
(105,120,o),
(97,168,c),
(60,168,l),
(65,115,o),
(91,72,o),
(131,40,cs),
(172,9,o),
(227,-8,o),
(292,-8,cs),
(386,-8,o),
(455,23,o),
(500,92,cs),
(546,161,o),
(568,268,o),
(568,419,cs),
(568,517,o),
(550,598,o),
(508,652,cs),
(465,707,o),
(398,738,o),
(304,738,cs)
);
},
{
closed = 1;
nodes = (
(367,704,o),
(421,686,o),
(459,652,cs),
(497,619,o),
(519,570,o),
(519,509,cs),
(519,452,o),
(497,400,o),
(460,364,cs),
(423,327,o),
(368,304,o),
(300,304,cs),
(239,304,o),
(185,323,o),
(149,356,cs),
(111,389,o),
(90,438,o),
(90,502,cs),
(90,562,o),
(110,613,o),
(147,648,cs),
(183,684,o),
(237,704,o),
(302,704,cs)
);
}
);
width = 619;
}
);
},
{
glyphname = less;
layers = (
{
layerId = "805E1B73-1F0E-4383-AACE-2240222288D4";
shapes = (
{
closed = 1;
nodes = (
(44,495,l),
(44,230,l),
(573,57,l),
(573,294,l),
(282,354,l),
(282,371,l),
(573,427,l),
(573,664,l)
);
}
);
width = 636;
},
{
layerId = "61D7B067-829F-4380-BDB7-B27A2BACA267";
shapes = (
{
closed = 1;
nodes = (
(61,415,l),
(61,308,l),
(566,108,l),
(566,201,l),
(154,358,l),
(154,365,l),
(566,520,l),
(566,614,l)
);
}
);
width = 636;
},
{
layerId = "BADC4CB4-4A37-4FEF-A0FC-8F77938ABBAB";
shapes = (
{
closed = 1;
nodes = (
(68,383,l),
(68,339,l),
(564,128,l),
(564,165,l),
(103,359,l),
(103,363,l),
(564,557,l),
(564,594,l)
);
}
);
width = 636;
}
);
unicode = 60;
},
{
glyphname = equal;
layers = (
{
layerId = "805E1B73-1F0E-4383-AACE-2240222288D4";
shapes = (
{
closed = 1;
nodes = (
(559,395,l),
(559,583,l),
(78,583,l),
(78,395,l)
);
},
{
closed = 1;
nodes = (
(559,138,l),
(559,326,l),
(78,326,l),
(78,138,l)
);
}
);
width = 636;
},
{
layerId = "61D7B067-829F-4380-BDB7-B27A2BACA267";
shapes = (
{
closed = 1;
nodes = (
(559,440,l),
(559,516,l),
(77,516,l),
(77,440,l)
);
},
{
closed = 1;
nodes = (
(559,206,l),
(559,282,l),
(77,282,l),
(77,206,l)
);
}
);
width = 636;
},
{
layerId = "BADC4CB4-4A37-4FEF-A0FC-8F77938ABBAB";
shapes = (
{
closed = 1;
nodes = (
(559,458,l),
(559,490,l),
(76,490,l),
(76,458,l)
);
},
{
closed = 1;
nodes = (
(559,233,l),
(559,265,l),
(76,265,l),
(76,233,l)
);
}
);
width = 636;
}
);
unicode = 61;
},
{
glyphname = greater;
layers = (
{
layerId = "805E1B73-1F0E-4383-AACE-2240222288D4";
shapes = (
{
closed = 1;
nodes = (
(592,226,l),
(592,491,l),
(63,664,l),
(63,427,l),
(354,367,l),
(354,350,l),
(63,294,l),
(63,57,l)
);
}
);
width = 636;
},
{
layerId = "61D7B067-829F-4380-BDB7-B27A2BACA267";
shapes = (
{
closed = 1;
nodes = (
(575,307,l),
(575,414,l),
(70,614,l),
(70,520,l),
(482,364,l),
(482,356,l),
(70,201,l),
(70,108,l)
);
}
);
width = 636;
},
{
layerId = "BADC4CB4-4A37-4FEF-A0FC-8F77938ABBAB";
shapes = (
{
closed = 1;
nodes = (
(569,339,l),
(569,383,l),
(72,594,l),
(72,557,l),
(533,363,l),
(533,359,l),
(72,165,l),
(72,128,l)
);
}
);
width = 636;
}
);
unicode = 62;
},
{
glyphname = question;
layers = (
{
layerId = "805E1B73-1F0E-4383-AACE-2240222288D4";
shapes = (
{
closed = 1;
nodes = (
(415,247,l),
(415,249,ls),
(415,260,o),
(419,271,o),
(428,282,cs),
(445,303,o),
(472,326,o),
(503,354,cs),
(518,367,o),
(532,383,o),
(545,400,cs),
(570,434,o),
(591,474,o),
(591,525,cs),
(591,589,o),
(569,643,o),
(522,680,cs),
(475,717,o),
(405,738,o),
(306,738,cs),
(218,738,o),
(143,715,o),
(91,675,cs),
(39,634,o),
(9,575,o),
(9,500,c),
(241,500,l),
(242,513,o),
(248,523,o),
(257,531,cs),
(266,538,o),
(279,542,o),
(294,542,cs),
(323,542,o),
(341,527,o),
(341,499,cs),
(341,489,o),
(338,479,o),
(331,469,cs),
(317,448,o),
(295,427,o),
(270,404,cs),
(257,392,o),
(246,379,o),
(236,366,cs),
(215,338,o),
(199,307,o),
(199,267,cs),
(199,247,l)
);
},
{
closed = 1;
nodes = (
(380,-9,o),
(424,33,o),
(424,96,cs),
(424,159,o),
(380,201,o),
(304,201,cs),
(228,201,o),
(185,159,o),
(185,96,cs),
(185,33,o),
(228,-9,o),
(304,-9,cs)
);
}
);
width = 604;
},
{
layerId = "61D7B067-829F-4380-BDB7-B27A2BACA267";
shapes = (
{
closed = 1;
nodes = (
(317,190,l),
(317,204,ls),
(317,223,o),
(322,241,o),
(331,258,cs),
(349,291,o),
(378,322,o),
(410,354,cs),
(426,370,o),
(441,387,o),
(455,406,cs),
(482,443,o),
(503,487,o),
(503,543,cs),
(503,603,o),
(482,651,o),
(443,685,cs),
(404,719,o),
(348,738,o),
(273,738,cs),
(201,738,o),
(141,717,o),
(99,680,cs),
(57,643,o),
(32,589,o),
(31,524,c),
(123,524,l),
(123,564,o),
(137,598,o),
(162,622,cs),
(187,645,o),
(223,659,o),
(268,659,cs),
(351,659,o),
(404,619,o),
(404,536,cs),
(404,513,o),
(400,493,o),
(391,474,cs),
(374,437,o),
(348,405,o),
(317,374,cs),
(302,359,o),
(288,343,o),
(275,326,cs),
(250,293,o),
(230,256,o),
(230,207,cs),
(230,190,l)
);
},
{
closed = 1;
nodes = (
(307,-8,o),
(327,12,o),
(327,43,cs),
(327,74,o),
(307,93,o),
(272,93,cs),
(237,93,o),
(217,74,o),
(217,43,cs),
(217,12,o),
(237,-8,o),
(272,-8,cs)
);
}
);
width = 540;
},
{
layerId = "BADC4CB4-4A37-4FEF-A0FC-8F77938ABBAB";
shapes = (
{
closed = 1;
nodes = (
(278,168,l),
(278,186,ls),
(278,209,o),
(283,230,o),
(292,249,c),
(311,285,o),
(341,320,o),
(373,354,cs),
(389,371,o),
(404,389,o),
(419,409,cs),
(447,448,o),
(468,492,o),
(468,551,cs),
(468,608,o),
(448,654,o),
(412,687,cs),
(376,719,o),
(325,738,o),
(260,738,cs),
(195,738,o),
(139,719,o),
(101,683,cs),
(63,647,o),
(41,596,o),
(40,533,c),
(76,533,l),
(77,584,o),
(93,626,o),
(125,657,cs),
(156,688,o),
(201,705,o),
(258,705,cs),
(362,705,o),
(429,655,o),
(429,551,cs),
(429,523,o),
(424,498,o),
(415,476,cs),
(396,432,o),
(368,395,o),
(336,362,cs),
(319,345,o),
(304,328,o),
(291,310,cs),
(263,274,o),
(242,235,o),
(242,183,cs),
(242,168,l)
);
},
{
closed = 1;
nodes = (
(276,-7,o),
(289,5,o),
(289,22,cs),
(289,39,o),
(276,51,o),
(259,51,cs),
(242,51,o),
(229,39,o),
(229,22,cs),
(229,5,o),
(242,-7,o),
(259,-7,cs)
);
}
);
width = 515;
}
);
rightKerningGroup = question;
unicode = 63;
},
{
glyphname = at;
layers = (
{
layerId = "805E1B73-1F0E-4383-AACE-2240222288D4";
shapes = (
{
closed = 1;
nodes = (
(522,-101,o),
(578,-90,o),
(625,-74,cs),
(672,-58,o),
(708,-37,o),
(729,-14,c),
(671,101,l),
(626,68,o),
(564,42,o),
(476,42,cs),
(391,42,o),
(318,63,o),
(267,108,cs),
(215,153,o),
(186,225,o),
(186,326,cs),
(186,398,o),
(207,465,o),
(252,514,cs),
(297,563,o),
(366,595,o),
(461,595,cs),
(533,595,o),
(596,576,o),
(643,537,cs),
(690,497,o),
(717,436,o),
(717,355,cs),
(717,319,o),
(713,292,o),
(705,273,cs),
(696,253,o),
(682,243,o),
(662,243,cs),
(634,243,o),
(617,267,o),
(622,340,c),
(637,504,l),
(543,504,l),
(528,479,l),
(518,479,l),
(503,495,o),
(469,512,o),
(428,512,cs),
(373,512,o),
(328,493,o),
(296,458,cs),
(264,422,o),
(246,368,o),
(246,299,cs),
(246,246,o),
(260,198,o),
(288,164,cs),
(315,130,o),
(356,110,o),
(409,110,cs),
(438,110,o),
(461,116,o),
(479,124,cs),
(497,132,o),
(508,144,o),
(515,153,c),
(526,153,l),
(553,125,o),
(604,102,o),
(661,102,cs),
(720,102,o),
(772,127,o),
(810,172,cs),
(848,217,o),
(871,283,o),
(871,366,cs),
(871,478,o),
(827,571,o),
(755,636,cs),
(682,700,o),
(578,738,o),
(455,738,cs),
(328,738,o),
(221,695,o),
(144,621,cs),
(67,547,o),
(22,442,o),
(22,321,cs),
(22,196,o),
(62,90,o),
(136,15,cs),
(210,-60,o),
(319,-101,o),
(462,-101,cs)
);
},
{
closed = 1;
nodes = (
(413,242,o),
(397,267,o),
(397,306,cs),
(397,327,o),
(399,346,o),
(406,359,cs),
(413,371,o),
(426,377,o),
(443,377,cs),
(470,377,o),
(486,360,o),
(490,309,c),
(489,288,o),
(484,272,o),
(476,260,cs),
(468,248,o),
(457,242,o),
(440,242,cs)
);
}
);
width = 890;
},
{
layerId = "61D7B067-829F-4380-BDB7-B27A2BACA267";
shapes = (
{
closed = 1;
nodes = (
(522,-101,o),
(572,-94,o),
(617,-81,cs),
(661,-68,o),
(701,-50,o),
(729,-26,c),
(703,26,l),
(651,-14,o),
(574,-39,o),
(479,-39,cs),
(368,-39,o),
(279,-4,o),
(218,57,cs),
(157,118,o),
(123,208,o),
(123,317,cs),
(123,422,o),
(157,512,o),
(218,576,cs),
(279,639,o),
(368,676,o),
(479,676,cs),
(579,676,o),
(663,646,o),
(723,591,cs),
(782,536,o),
(817,458,o),
(817,362,cs),
(817,303,o),
(806,254,o),
(784,219,cs),
(762,184,o),
(732,164,o),
(695,164,cs),
(647,164,o),
(621,197,o),
(626,278,cs),
(643,504,l),
(594,504,l),
(583,430,l),
(579,430,l),
(562,482,o),
(516,515,o),
(457,515,cs),
(406,515,o),
(363,494,o),
(333,455,cs),
(303,416,o),
(285,363,o),
(285,296,cs),
(285,233,o),
(302,187,o),
(330,155,cs),
(358,123,o),
(398,107,o),
(441,107,cs),
(470,107,o),
(498,115,o),
(522,131,cs),
(545,147,o),
(564,171,o),
(575,203,c),
(580,203,l),
(587,143,o),
(628,104,o),
(695,104,cs),
(751,104,o),
(799,132,o),
(832,178,cs),
(865,224,o),
(885,288,o),
(885,367,cs),
(885,478,o),
(842,571,o),
(771,636,cs),
(699,701,o),
(598,738,o),
(479,738,cs),
(352,738,o),
(245,696,o),
(170,621,cs),
(94,546,o),
(51,440,o),
(51,315,cs),
(51,190,o),
(92,86,o),
(166,13,cs),
(240,-60,o),
(345,-101,o),
(477,-101,cs)
);
},
{
closed = 1;
nodes = (
(391,166,o),
(352,211,o),
(352,299,cs),
(352,346,o),
(361,385,o),
(381,413,cs),
(400,441,o),
(429,457,o),
(466,457,cs),
(527,457,o),
(567,410,o),
(571,319,c),
(568,274,o),
(556,236,o),
(536,209,cs),
(516,181,o),
(488,166,o),
(452,166,cs)
);
}
);
width = 932;
},
{
layerId = "BADC4CB4-4A37-4FEF-A0FC-8F77938ABBAB";
shapes = (
{
closed = 1;
nodes = (
(523,-101,o),
(569,-96,o),
(613,-84,cs),
(657,-72,o),
(700,-55,o),
(729,-31,c),
(716,-4,l),
(660,-47,o),
(577,-71,o),
(480,-71,cs),
(360,-71,o),
(265,-31,o),
(199,37,cs),
(133,105,o),
(98,202,o),
(98,314,cs),
(98,431,o),
(136,531,o),
(204,600,cs),
(272,668,o),
(369,708,o),
(486,708,cs),
(597,708,o),
(689,673,o),
(754,613,cs),
(818,553,o),
(856,468,o),
(856,365,cs),
(856,297,o),
(842,238,o),
(815,198,cs),
(788,157,o),
(752,133,o),
(708,133,cs),
(652,133,o),
(621,169,o),
(628,254,cs),
(645,504,l),
(614,504,l),
(605,410,l),
(602,410,l),
(586,478,o),
(533,516,o),
(469,516,cs),
(418,516,o),
(377,493,o),
(347,454,cs),
(317,415,o),
(300,360,o),
(300,295,cs),
(300,230,o),
(319,182,o),
(347,151,cs),
(375,120,o),
(414,106,o),
(454,106,cs),
(482,106,o),
(513,115,o),
(538,134,cs),
(563,153,o),
(586,182,o),
(598,223,c),
(601,223,l),
(601,150,o),
(637,105,o),
(708,105,cs),
(764,105,o),
(809,132,o),
(841,179,cs),
(873,226,o),
(890,291,o),
(890,367,cs),
(890,478,o),
(848,571,o),
(777,636,cs),
(706,701,o),
(605,738,o),
(488,738,cs),
(361,738,o),
(255,696,o),
(180,621,cs),
(105,546,o),
(62,440,o),
(62,312,cs),
(62,188,o),
(104,85,o),
(177,13,cs),
(250,-60,o),
(356,-101,o),
(483,-101,cs)
);
},
{
closed = 1;
nodes = (
(382,136,o),
(334,189,o),
(334,296,cs),
(334,353,o),
(347,402,o),
(371,435,cs),
(395,468,o),
(431,489,o),
(475,489,cs),
(551,489,o),
(599,428,o),
(602,323,c),
(599,268,o),
(585,221,o),
(561,189,cs),
(536,156,o),
(501,136,o),
(457,136,cs)
);
}
);
width = 949;
}
);
unicode = 64;
},
{
glyphname = A;
layers = (
{
layerId = "805E1B73-1F0E-4383-AACE-2240222288D4";
shapes = (
{
closed = 1;
nodes = (
(269,0,l),
(382,450,l),
(404,542,l),
(412,542,l),
(434,449,l),
(548,0,l),
(817,0,l),
(585,729,l),
(231,729,l),
(0,0,l)
);
},
{
closed = 1;
nodes = (
(537,110,l),
(476,300,l),
(340,300,l),
(279,110,l)
);
}
);
width = 819;
},
{
layerId = "61D7B067-829F-4380-BDB7-B27A2BACA267";
shapes = (
{
closed = 1;
nodes = (
(124,0,l),
(335,557,l),
(370,652,l),
(376,652,l),
(410,558,l),
(620,0,l),
(725,0,l),
(441,729,l),
(304,729,l),
(19,0,l)
);
},
{
closed = 1;
nodes = (
(564,174,l),
(543,253,l),
(202,253,l),
(180,174,l)
);
}
);
width = 745;
},
{
layerId = "BADC4CB4-4A37-4FEF-A0FC-8F77938ABBAB";
shapes = (
{
closed = 1;
nodes = (
(68,0,l),
(316,599,l),
(356,696,l),
(361,696,l),
(401,600,l),
(649,0,l),
(689,0,l),
(384,729,l),
(333,729,l),
(27,0,l)
);
},
{
closed = 1;
nodes = (
(574,199,l),
(569,234,l),
(147,234,l),
(141,199,l)
);
}
);
width = 716;
}
);
leftKerningGroup = A2;
rightKerningGroup = A;
unicode = 65;
},
{
glyphname = B;
layers = (
{
layerId = "805E1B73-1F0E-4383-AACE-2240222288D4";
shapes = (
{
closed = 1;
nodes = (
(430,0,ls),
(525,0,o),
(596,16,o),
(645,51,cs),
(694,86,o),
(720,140,o),
(720,213,cs),
(720,256,o),
(708,293,o),
(684,321,cs),
(660,349,o),
(624,369,o),
(575,377,c),
(576,386,l),
(648,406,o),
(699,458,o),
(699,542,cs),
(699,599,o),
(680,647,o),
(641,679,cs),
(601,711,o),
(542,729,o),
(458,729,cs),
(47,729,l),
(47,0,l)
);
},
{
closed = 1;
nodes = (
(297,545,l),
(383,545,ls),
(419,545,o),
(444,539,o),
(444,507,cs),
(444,479,o),
(431,461,o),
(380,461,cs),
(279,461,l),
(279,284,l),
(391,284,ls),
(435,284,o),
(463,274,o),
(463,231,cs),
(463,203,o),
(449,184,o),
(393,184,cs),
(297,184,l)
);
}
);
width = 734;
},
{
layerId = "61D7B067-829F-4380-BDB7-B27A2BACA267";
shapes = (
{
closed = 1;
nodes = (
(421,0,ls),
(498,0,o),
(560,18,o),
(604,53,cs),
(647,88,o),
(671,139,o),
(671,204,cs),
(671,247,o),
(659,285,o),
(635,315,cs),
(610,345,o),
(573,366,o),
(525,375,c),
(525,379,l),
(609,399,o),
(651,462,o),
(651,543,cs),
(651,599,o),
(631,646,o),
(594,678,cs),
(557,710,o),
(502,729,o),
(429,729,cs),
(76,729,l),
(76,0,l)
);
},
{
closed = 1;
nodes = (
(174,652,l),
(407,652,ls),
(494,652,o),
(551,608,o),
(551,529,cs),
(551,458,o),
(507,411,o),
(418,411,cs),
(162,411,l),
(162,336,l),
(422,336,ls),
(517,336,o),
(569,291,o),
(569,210,cs),
(569,131,o),
(519,78,o),
(410,78,cs),
(174,78,l)
);
}
);
width = 711;
},
{
layerId = "BADC4CB4-4A37-4FEF-A0FC-8F77938ABBAB";
shapes = (
{
closed = 1;
nodes = (
(417,0,ls),
(489,0,o),
(547,19,o),
(588,54,cs),
(628,89,o),
(651,139,o),
(651,200,cs),
(651,243,o),
(639,281,o),
(615,312,cs),
(590,343,o),
(553,365,o),
(505,374,c),
(505,377,l),
(593,397,o),
(632,463,o),
(632,543,cs),
(632,599,o),
(612,645,o),
(576,678,c),
(539,710,o),
(486,729,o),
(418,729,cs),
(87,729,l),
(87,0,l)
);
},
{
closed = 1;
nodes = (
(125,694,l),
(417,694,ls),
(524,694,o),
(594,635,o),
(594,538,cs),
(594,450,o),
(538,391,o),
(433,391,cs),
(116,391,l),
(116,356,l),
(435,356,ls),
(548,356,o),
(611,298,o),
(611,202,cs),
(611,103,o),
(546,36,o),
(417,36,cs),
(125,36,l)
);
}
);
width = 701;
}
);
leftKerningGroup = B;
unicode = 66;
},
{
glyphname = C;
layers = (
{
layerId = "805E1B73-1F0E-4383-AACE-2240222288D4";
shapes = (
{
closed = 1;
nodes = (
(512,-11,o),
(601,18,o),
(666,66,cs),
(731,113,o),
(775,181,o),
(782,264,c),
(526,264,l),
(521,244,o),
(503,228,o),
(483,217,cs),
(462,206,o),
(436,199,o),
(412,199,cs),
(372,199,o),
(338,210,o),
(314,235,cs),
(290,260,o),
(276,302,o),
(276,365,cs),
(276,429,o),
(290,470,o),
(315,495,cs),
(339,520,o),
(372,530,o),
(412,530,cs),
(439,530,o),
(463,524,o),
(483,513,cs),
(503,501,o),
(518,485,o),
(526,466,c),
(782,466,l),
(775,547,o),
(736,615,o),
(672,663,cs),
(607,711,o),
(519,740,o),
(412,740,cs),
(289,740,o),
(191,706,o),
(123,643,cs),
(55,579,o),
(16,486,o),
(16,365,cs),
(16,244,o),
(55,150,o),
(123,87,cs),
(191,23,o),
(289,-11,o),
(412,-11,cs)
);
}
);
width = 793;
},
{
layerId = "61D7B067-829F-4380-BDB7-B27A2BACA267";
shapes = (
{
closed = 1;
nodes = (
(502,-9,o),
(582,17,o),
(642,61,cs),
(701,105,o),
(739,169,o),
(750,245,c),
(649,245,l),
(640,194,o),
(613,152,o),
(571,123,cs),
(529,94,o),
(474,77,o),
(409,77,cs),
(328,77,o),
(261,104,o),
(215,153,cs),
(169,202,o),
(143,275,o),
(143,364,cs),
(143,455,o),
(169,527,o),
(215,576,cs),
(261,625,o),
(328,652,o),
(409,652,cs),
(473,652,o),
(528,635,o),
(569,606,cs),
(610,577,o),
(638,535,o),
(649,486,c),
(750,486,l),
(738,562,o),
(700,625,o),
(641,669,cs),
(581,712,o),
(502,737,o),
(409,737,cs),
(297,737,o),
(205,701,o),
(141,637,cs),
(77,572,o),
(40,479,o),
(40,364,cs),
(40,251,o),
(77,157,o),
(141,93,cs),
(205,28,o),
(297,-9,o),
(409,-9,cs)
);
}
);
width = 783;
},
{
layerId = "BADC4CB4-4A37-4FEF-A0FC-8F77938ABBAB";
shapes = (
{
closed = 1;
nodes = (
(497,-8,o),
(575,16,o),
(632,59,cs),
(688,102,o),
(726,163,o),
(737,238,c),
(698,238,l),
(687,174,o),
(654,122,o),
(605,86,cs),
(556,49,o),
(489,28,o),
(409,28,cs),
(310,28,o),
(231,61,o),
(176,121,cs),
(120,180,o),
(90,264,o),
(90,364,cs),
(90,464,o),
(120,548,o),
(175,608,cs),
(230,667,o),
(310,700,o),
(409,700,cs),
(486,700,o),
(554,679,o),
(604,643,cs),
(654,607,o),
(686,555,o),
(698,494,c),
(737,494,l),
(724,569,o),
(685,629,o),
(629,671,cs),
(572,713,o),
(496,736,o),
(409,736,cs),
(301,736,o),
(211,699,o),
(148,634,cs),
(85,569,o),
(49,476,o),
(49,364,cs),
(49,253,o),
(86,160,o),
(148,95,cs),
(210,30,o),
(301,-8,o),
(409,-8,cs)
);
}
);
width = 779;
}
);
leftKerningGroup = C2;
rightKerningGroup = C;
unicode = 67;
},
{
glyphname = D;
layers = (
{
layerId = "805E1B73-1F0E-4383-AACE-2240222288D4";
shapes = (
{
closed = 1;
nodes = (
(401,0,ls),
(518,0,o),
(608,34,o),
(670,98,cs),
(732,161,o),
(763,251,o),
(763,364,cs),
(763,472,o),
(733,564,o),
(674,628,cs),
(614,692,o),
(522,729,o),
(401,729,cs),
(47,729,l),
(47,0,l)
);
},
{
closed = 1;
nodes = (
(302,522,l),
(353,522,ls),
(396,522,o),
(434,519,o),
(461,498,cs),
(488,477,o),
(504,438,o),
(504,369,cs),
(504,297,o),
(489,257,o),
(463,234,cs),
(437,211,o),
(398,207,o),
(353,207,cs),
(302,207,l)
);
}
);
width = 780;
},
{
layerId = "61D7B067-829F-4380-BDB7-B27A2BACA267";
shapes = (
{
closed = 1;
nodes = (
(378,0,ls),
(486,0,o),
(571,36,o),
(630,99,cs),
(689,162,o),
(721,253,o),
(721,364,cs),
(721,473,o),
(690,565,o),
(631,629,cs),
(572,693,o),
(487,729,o),
(378,729,cs),
(76,729,l),
(76,0,l)
);
},
{
closed = 1;
nodes = (
(175,645,l),
(364,645,ls),
(441,645,o),
(505,622,o),
(549,576,cs),
(593,530,o),
(619,459,o),
(619,366,cs),
(619,275,o),
(595,205,o),
(551,158,cs),
(507,110,o),
(443,85,o),
(364,85,cs),
(175,85,l)
);
}
);
width = 761;
},
{
layerId = "BADC4CB4-4A37-4FEF-A0FC-8F77938ABBAB";
shapes = (
{
closed = 1;
nodes = (
(369,0,ls),
(473,0,o),
(557,36,o),
(615,100,cs),
(673,163,o),
(704,255,o),
(704,364,cs),
(704,475,o),
(673,566,o),
(615,630,cs),
(557,693,o),
(473,729,o),
(369,729,cs),
(87,729,l),
(87,0,l)
);
},
{
closed = 1;
nodes = (
(125,693,l),
(368,693,ls),
(459,693,o),
(533,662,o),
(584,606,cs),
(635,550,o),
(664,468,o),
(664,365,cs),
(664,266,o),
(637,184,o),
(586,127,cs),
(535,70,o),
(461,37,o),
(368,37,cs),
(125,37,l)
);
}
);
width = 754;
}
);
leftKerningGroup = B;
rightKerningGroup = D;
unicode = 68;
},
{
glyphname = E;
layers = (
{
layerId = "805E1B73-1F0E-4383-AACE-2240222288D4";
shapes = (
{
closed = 1;
nodes = (
(645,0,l),
(645,209,l),
(252,209,l),
(302,159,l),
(302,569,l),
(252,519,l),
(642,519,l),
(642,729,l),
(47,729,l),
(47,0,l)
);
},
{
closed = 1;
nodes = (
(591,268,l),
(591,464,l),
(252,464,l),
(252,268,l)
);
}
);
width = 675;
},
{
layerId = "61D7B067-829F-4380-BDB7-B27A2BACA267";
shapes = (
{
closed = 1;
nodes = (
(608,0,l),
(608,86,l),
(150,86,l),
(175,61,l),
(175,669,l),
(150,644,l),
(607,644,l),
(607,729,l),
(76,729,l),
(76,0,l)
);
},
{
closed = 1;
nodes = (
(559,332,l),
(559,412,l),
(152,412,l),
(152,332,l)
);
}
);
width = 640;
},
{
layerId = "BADC4CB4-4A37-4FEF-A0FC-8F77938ABBAB";
shapes = (
{
closed = 1;
nodes = (
(594,0,l),
(594,37,l),
(110,37,l),
(125,22,l),
(125,708,l),
(110,693,l),
(594,693,l),
(594,729,l),
(87,729,l),
(87,0,l)
);
},
{
closed = 1;
nodes = (
(546,358,l),
(546,392,l),
(113,392,l),
(113,358,l)
);
}
);
width = 626;
}
);
leftKerningGroup = B;
rightKerningGroup = E;
unicode = 69;
},
{
glyphname = F;
layers = (
{
layerId = "805E1B73-1F0E-4383-AACE-2240222288D4";
shapes = (
{
closed = 1;
nodes = (
(302,0,l),
(302,550,l),
(272,519,l),
(631,519,l),
(631,729,l),
(47,729,l),
(47,0,l)
);
},
{
closed = 1;
nodes = (
(591,237,l),
(591,435,l),
(254,435,l),
(254,237,l)
);
}
);
width = 647;
},
{
layerId = "61D7B067-829F-4380-BDB7-B27A2BACA267";
shapes = (
{
closed = 1;
nodes = (
(175,0,l),
(175,661,l),
(158,644,l),
(603,644,l),
(603,729,l),
(76,729,l),
(76,0,l)
);
},
{
closed = 1;
nodes = (
(563,317,l),
(563,398,l),
(147,398,l),
(147,317,l)
);
}
);
width = 627;
},
{
layerId = "BADC4CB4-4A37-4FEF-A0FC-8F77938ABBAB";
shapes = (
{
closed = 1;
nodes = (
(125,0,l),
(125,705,l),
(113,693,l),
(592,693,l),
(592,729,l),
(87,729,l),
(87,0,l)
);
},
{
closed = 1;
nodes = (
(552,349,l),
(552,384,l),
(104,384,l),
(104,349,l)
);
}
);
width = 619;
}
);
leftKerningGroup = B;
unicode = 70;
},
{
glyphname = G;
layers = (
{
layerId = "805E1B73-1F0E-4383-AACE-2240222288D4";
shapes = (
{
closed = 1;
nodes = (
(432,-11,o),
(553,9,o),
(593,73,c),
(601,73,l),
(609,0,l),
(811,0,l),
(811,417,l),
(419,417,l),
(419,243,l),
(582,243,l),
(543,280,l),
(543,271,ls),
(543,247,o),
(530,229,o),
(507,215,cs),
(484,201,o),
(453,192,o),
(417,192,cs),
(376,192,o),
(340,204,o),
(315,231,cs),
(290,258,o),
(275,299,o),
(275,356,cs),
(275,408,o),
(286,452,o),
(310,483,cs),
(334,514,o),
(371,531,o),
(424,531,cs),
(452,531,o),
(480,525,o),
(501,513,cs),
(522,501,o),
(537,485,o),
(545,466,c),
(803,466,l),
(796,549,o),
(756,616,o),
(690,664,cs),
(624,712,o),
(533,740,o),
(425,740,cs),
(301,740,o),
(199,706,o),
(127,640,cs),
(55,574,o),
(16,476,o),
(16,349,cs),
(16,237,o),
(51,148,o),
(112,86,cs),
(172,24,o),
(259,-11,o),
(363,-11,cs)
);
}
);
width = 843;
},
{
layerId = "61D7B067-829F-4380-BDB7-B27A2BACA267";
shapes = (
{
closed = 1;
nodes = (
(498,-9,o),
(633,38,o),
(672,115,c),
(679,115,l),
(685,0,l),
(765,0,l),
(765,388,l),
(387,388,l),
(387,313,l),
(685,313,l),
(660,336,l),
(660,290,ls),
(660,225,o),
(634,170,o),
(590,133,cs),
(545,96,o),
(482,74,o),
(409,74,cs),
(326,74,o),
(261,102,o),
(214,152,cs),
(167,202,o),
(142,274,o),
(142,362,cs),
(142,449,o),
(168,521,o),
(214,573,cs),
(260,624,o),
(327,652,o),
(414,652,cs),
(478,652,o),
(533,638,o),
(574,611,cs),
(614,584,o),
(642,548,o),
(655,501,c),
(756,501,l),
(743,576,o),
(704,634,o),
(645,675,cs),
(585,715,o),
(506,737,o),
(414,737,cs),
(302,737,o),
(207,700,o),
(142,635,cs),
(77,570,o),
(40,476,o),
(40,360,cs),
(40,248,o),
(76,156,o),
(137,92,cs),
(198,28,o),
(287,-9,o),
(394,-9,cs)
);
}
);
width = 821;
},
{
layerId = "BADC4CB4-4A37-4FEF-A0FC-8F77938ABBAB";
shapes = (
{
closed = 1;
nodes = (
(530,-8,o),
(661,50,o),
(704,174,c),
(710,174,l),
(715,0,l),
(747,0,l),
(747,376,l),
(375,376,l),
(375,340,l),
(725,340,l),
(707,358,l),
(707,298,ls),
(707,215,o),
(675,148,o),
(622,101,cs),
(569,54,o),
(494,28,o),
(406,28,cs),
(307,28,o),
(229,61,o),
(174,121,cs),
(119,180,o),
(89,264,o),
(89,364,cs),
(89,464,o),
(120,548,o),
(175,608,cs),
(230,667,o),
(310,700,o),
(410,700,cs),
(489,700,o),
(554,682,o),
(603,650,cs),
(651,618,o),
(683,572,o),
(698,515,c),
(738,515,l),
(722,587,o),
(683,642,o),
(627,679,cs),
(570,716,o),
(495,736,o),
(410,736,cs),
(302,736,o),
(212,699,o),
(149,634,cs),
(85,569,o),
(49,476,o),
(49,364,cs),
(49,253,o),
(86,160,o),
(147,95,cs),
(208,30,o),
(299,-8,o),
(406,-8,cs)
);
}
);
width = 813;
}
);
leftKerningGroup = C2;
rightKerningGroup = G;
unicode = 71;
},
{
glyphname = H;
layers = (
{
layerId = "805E1B73-1F0E-4383-AACE-2240222288D4";
shapes = (
{
closed = 1;
nodes = (
(302,0,l),
(302,729,l),
(47,729,l),
(47,0,l)
);
},
{
closed = 1;
nodes = (
(785,0,l),
(785,729,l),
(530,729,l),
(530,0,l)
);
},
{
closed = 1;
nodes = (
(570,262,l),
(570,471,l),
(262,471,l),
(262,262,l)
);
}
);
width = 832;
},
{
layerId = "61D7B067-829F-4380-BDB7-B27A2BACA267";
shapes = (
{
closed = 1;
nodes = (
(175,0,l),
(175,729,l),
(76,729,l),
(76,0,l)
);
},
{
closed = 1;
nodes = (
(720,0,l),
(720,729,l),
(621,729,l),
(621,0,l)
);
},
{
closed = 1;
nodes = (
(645,334,l),
(645,419,l),
(151,419,l),
(151,334,l)
);
}
);
width = 796;
},
{
layerId = "BADC4CB4-4A37-4FEF-A0FC-8F77938ABBAB";
shapes = (
{
closed = 1;
nodes = (
(125,0,l),
(125,729,l),
(87,729,l),
(87,0,l)
);
},
{
closed = 1;
nodes = (
(695,0,l),
(695,729,l),
(657,729,l),
(657,0,l)
);
},
{
closed = 1;
nodes = (
(675,362,l),
(675,398,l),
(107,398,l),
(107,362,l)
);
}
);
width = 782;
}
);
leftKerningGroup = B;
rightKerningGroup = H;
unicode = 72;
},
{
glyphname = I;
layers = (
{
layerId = "805E1B73-1F0E-4383-AACE-2240222288D4";
shapes = (
{
closed = 1;
nodes = (
(302,0,l),
(302,729,l),
(47,729,l),
(47,0,l)
);
}
);
width = 350;
},
{
layerId = "61D7B067-829F-4380-BDB7-B27A2BACA267";
shapes = (
{
closed = 1;
nodes = (
(175,0,l),
(175,729,l),
(76,729,l),
(76,0,l)
);
}
);
width = 252;
},
{
layerId = "BADC4CB4-4A37-4FEF-A0FC-8F77938ABBAB";
shapes = (
{
closed = 1;
nodes = (
(125,0,l),
(125,729,l),
(87,729,l),
(87,0,l)
);
}
);
width = 213;
}
);
leftKerningGroup = B;
rightKerningGroup = H;
unicode = 73;
},
{
glyphname = J;
layers = (
{
layerId = "805E1B73-1F0E-4383-AACE-2240222288D4";
shapes = (
{
closed = 1;
nodes = (
(224,-8,o),
(292,12,o),
(338,54,cs),
(384,96,o),
(409,162,o),
(409,255,cs),
(409,729,l),
(155,729,l),
(155,271,ls),
(155,220,o),
(133,197,o),
(77,197,cs),
(52,197,o),
(32,202,o),
(16,207,c),
(16,10,l),
(41,-1,o),
(89,-8,o),
(136,-8,cs)
);
}
);
width = 466;
},
{
layerId = "61D7B067-829F-4380-BDB7-B27A2BACA267";
shapes = (
{
closed = 1;
nodes = (
(185,-8,o),
(237,7,o),
(273,40,cs),
(309,73,o),
(329,124,o),
(329,195,cs),
(329,729,l),
(230,729,l),
(230,204,ls),
(230,112,o),
(184,75,o),
(103,75,cs),
(67,75,o),
(40,82,o),
(21,94,c),
(21,12,l),
(42,0,o),
(78,-8,o),
(121,-8,cs)
);
}
);
width = 412;
},
{
layerId = "BADC4CB4-4A37-4FEF-A0FC-8F77938ABBAB";
shapes = (
{
closed = 1;
nodes = (
(171,-8,o),
(216,6,o),
(248,35,cs),
(279,64,o),
(297,109,o),
(297,172,cs),
(297,729,l),
(259,729,l),
(259,177,ls),
(259,69,o),
(205,27,o),
(113,27,cs),
(73,27,o),
(43,35,o),
(23,50,c),
(23,13,l),
(43,1,o),
(74,-8,o),
(115,-8,cs)
);
}
);
width = 391;
}
);
leftKerningGroup = J2;
rightKerningGroup = J;
unicode = 74;
},
{
glyphname = K;
layers = (
{
layerId = "805E1B73-1F0E-4383-AACE-2240222288D4";
shapes = (
{
closed = 1;
nodes = (
(819,0,l),
(548,429,l),
(811,729,l),
(501,729,l),
(292,447,l),
(292,153,l),
(371,248,l),
(512,0,l)
);
},
{
closed = 1;
nodes = (
(302,0,l),
(302,729,l),
(47,729,l),
(47,0,l)
);
}
);
width = 819;
},
{
layerId = "61D7B067-829F-4380-BDB7-B27A2BACA267";
shapes = (
{
closed = 1;
nodes = (
(688,0,l),
(384,423,l),
(680,729,l),
(556,729,l),
(166,318,l),
(166,200,l),
(315,353,l),
(567,0,l)
);
},
{
closed = 1;
nodes = (
(175,0,l),
(175,729,l),
(76,729,l),
(76,0,l)
);
}
);
width = 706;
},
{
layerId = "BADC4CB4-4A37-4FEF-A0FC-8F77938ABBAB";
shapes = (
{
closed = 1;
nodes = (
(636,0,l),
(320,421,l),
(628,729,l),
(578,729,l),
(116,267,l),
(116,218,l),
(293,394,l),
(588,0,l)
);
},
{
closed = 1;
nodes = (
(125,0,l),
(125,729,l),
(87,729,l),
(87,0,l)
);
}
);
width = 662;
}
);
leftKerningGroup = B;
rightKerningGroup = K;
unicode = 75;
},
{
glyphname = L;
layers = (
{
layerId = "805E1B73-1F0E-4383-AACE-2240222288D4";
shapes = (
{
closed = 1;
nodes = (
(589,0,l),
(589,218,l),
(268,218,l),
(302,182,l),
(302,729,l),
(47,729,l),
(47,0,l)
);
}
);
width = 602;
},
{
layerId = "61D7B067-829F-4380-BDB7-B27A2BACA267";
shapes = (
{
closed = 1;
nodes = (
(545,0,l),
(545,88,l),
(153,88,l),
(175,64,l),
(175,729,l),
(76,729,l),
(76,0,l)
);
}
);
width = 567;
},
{
layerId = "BADC4CB4-4A37-4FEF-A0FC-8F77938ABBAB";
shapes = (
{
closed = 1;
nodes = (
(528,0,l),
(528,37,l),
(107,37,l),
(125,17,l),
(125,729,l),
(87,729,l),
(87,0,l)
);
}
);
width = 553;
}
);
leftKerningGroup = B;
rightKerningGroup = L;
unicode = 76;
},
{
glyphname = M;
layers = (
{
layerId = "805E1B73-1F0E-4383-AACE-2240222288D4";
shapes = (
{
closed = 1;
nodes = (
(292,0,l),
(292,254,l),
(286,492,l),
(296,492,l),
(330,297,l),
(384,0,l),
(594,0,l),
(647,293,l),
(681,492,l),
(690,492,l),
(685,255,l),
(685,0,l),
(927,0,l),
(927,729,l),
(537,729,l),
(502,473,l),
(494,340,l),
(485,340,l),
(475,473,l),
(437,729,l),
(47,729,l),
(47,0,l)
);
}
);
width = 974;
},
{
layerId = "61D7B067-829F-4380-BDB7-B27A2BACA267";
shapes = (
{
closed = 1;
nodes = (
(173,0,l),
(173,373,l),
(170,639,l),
(178,639,l),
(258,410,l),
(412,0,l),
(504,0,l),
(658,410,l),
(738,639,l),
(746,639,l),
(743,373,l),
(743,0,l),
(839,0,l),
(839,729,l),
(681,729,l),
(537,342,l),
(462,126,l),
(454,126,l),
(379,342,l),
(235,729,l),
(76,729,l),
(76,0,l)
);
}
);
width = 915;
},
{
layerId = "BADC4CB4-4A37-4FEF-A0FC-8F77938ABBAB";
shapes = (
{
closed = 1;
nodes = (
(125,0,l),
(125,420,l),
(124,697,l),
(131,697,l),
(230,455,l),
(423,0,l),
(469,0,l),
(662,456,l),
(761,697,l),
(768,697,l),
(766,420,l),
(766,0,l),
(805,0,l),
(805,729,l),
(737,729,l),
(551,290,l),
(449,42,l),
(442,42,l),
(340,290,l),
(156,729,l),
(87,729,l),
(87,0,l)
);
}
);
width = 892;
}
);
leftKerningGroup = B;
rightKerningGroup = H;
unicode = 77;
},
{
glyphname = N;
layers = (
{
layerId = "805E1B73-1F0E-4383-AACE-2240222288D4";
shapes = (
{
closed = 1;
nodes = (
(307,0,l),
(307,181,l),
(299,363,l),
(306,363,l),
(489,0,l),
(781,0,l),
(781,729,l),
(533,729,l),
(533,556,l),
(541,356,l),
(534,356,l),
(353,729,l),
(47,729,l),
(47,0,l)
);
}
);
width = 828;
},
{
layerId = "61D7B067-829F-4380-BDB7-B27A2BACA267";
shapes = (
{
closed = 1;
nodes = (
(177,0,l),
(177,364,l),
(172,595,l),
(178,595,l),
(593,0,l),
(715,0,l),
(715,729,l),
(618,729,l),
(618,374,l),
(623,132,l),
(617,132,l),
(201,729,l),
(76,729,l),
(76,0,l)
);
}
);
width = 791;
},
{
layerId = "BADC4CB4-4A37-4FEF-A0FC-8F77938ABBAB";
shapes = (
{
closed = 1;
nodes = (
(125,0,l),
(125,436,l),
(122,686,l),
(127,686,l),
(635,0,l),
(689,0,l),
(689,729,l),
(651,729,l),
(651,303,l),
(655,43,l),
(650,43,l),
(142,729,l),
(87,729,l),
(87,0,l)
);
}
);
width = 776;
}
);
leftKerningGroup = B;
rightKerningGroup = H;
unicode = 78;
},
{
glyphname = O;
layers = (
{
layerId = "805E1B73-1F0E-4383-AACE-2240222288D4";
shapes = (
{
closed = 1;
nodes = (
(533,-11,o),
(633,23,o),
(701,87,cs),
(769,150,o),
(807,245,o),
(807,365,cs),
(807,486,o),
(768,579,o),
(700,643,cs),
(632,707,o),
(533,740,o),
(412,740,cs),
(289,740,o),
(191,706,o),
(123,643,cs),
(55,579,o),
(16,486,o),
(16,365,cs),
(16,244,o),
(55,150,o),
(123,87,cs),
(191,23,o),
(289,-11,o),
(412,-11,cs)
);
},
{
closed = 1;
nodes = (
(372,199,o),
(338,210,o),
(314,235,cs),
(290,260,o),
(276,302,o),
(276,365,cs),
(276,429,o),
(290,470,o),
(315,495,cs),
(339,520,o),
(372,530,o),
(412,530,cs),
(452,530,o),
(486,521,o),
(510,495,cs),
(533,469,o),
(547,428,o),
(547,365,cs),
(547,302,o),
(533,260,o),
(510,235,cs),
(486,210,o),
(452,199,o),
(412,199,cs)
);
}
);
width = 823;
},
{
layerId = "61D7B067-829F-4380-BDB7-B27A2BACA267";
shapes = (
{
closed = 1;
nodes = (
(521,-9,o),
(614,27,o),
(678,92,cs),
(742,157,o),
(779,251,o),
(779,364,cs),
(779,479,o),
(742,572,o),
(678,636,cs),
(614,700,o),
(522,737,o),
(409,737,cs),
(297,737,o),
(205,701,o),
(141,637,cs),
(77,572,o),
(40,479,o),
(40,364,cs),
(40,251,o),
(77,157,o),
(141,93,cs),
(204,28,o),
(297,-9,o),
(409,-9,cs)
);
},
{
closed = 1;
nodes = (
(328,77,o),
(261,104,o),
(215,153,cs),
(169,202,o),
(143,275,o),
(143,364,cs),
(143,455,o),
(169,526,o),
(215,576,cs),
(261,626,o),
(328,652,o),
(409,652,cs),
(492,652,o),
(557,625,o),
(604,576,cs),
(651,527,o),
(676,455,o),
(676,364,cs),
(676,275,o),
(651,202,o),
(605,153,cs),
(559,104,o),
(492,77,o),
(409,77,cs)
);
}
);
width = 819;
},
{
layerId = "BADC4CB4-4A37-4FEF-A0FC-8F77938ABBAB";
shapes = (
{
closed = 1;
nodes = (
(516,-8,o),
(606,29,o),
(669,94,cs),
(732,159,o),
(767,252,o),
(767,364,cs),
(767,476,o),
(732,569,o),
(670,634,cs),
(608,698,o),
(517,736,o),
(408,736,cs),
(300,736,o),
(211,699,o),
(148,634,cs),
(85,569,o),
(49,476,o),
(49,364,cs),
(49,253,o),
(86,160,o),
(148,95,cs),
(210,30,o),
(300,-8,o),
(408,-8,cs)
);
},
{
closed = 1;
nodes = (
(309,28,o),
(231,61,o),
(176,121,cs),
(120,180,o),
(90,264,o),
(90,364,cs),
(90,464,o),
(120,548,o),
(175,608,cs),
(230,667,o),
(309,700,o),
(408,700,cs),
(507,700,o),
(586,667,o),
(642,608,cs),
(697,549,o),
(727,465,o),
(727,364,cs),
(727,264,o),
(697,180,o),
(642,121,cs),
(587,62,o),
(507,28,o),
(408,28,cs)
);
}
);
width = 817;
}
);
leftKerningGroup = C2;
rightKerningGroup = O;
unicode = 79;
},
{
glyphname = P;
layers = (
{
layerId = "805E1B73-1F0E-4383-AACE-2240222288D4";
shapes = (
{
closed = 1;
nodes = (
(302,0,l),
(302,556,l),
(270,523,l),
(369,523,ls),
(386,523,o),
(401,520,o),
(415,514,cs),
(429,507,o),
(436,492,o),
(436,467,cs),
(436,432,o),
(421,407,o),
(369,407,cs),
(285,407,l),
(285,220,l),
(393,220,ls),
(482,220,o),
(558,240,o),
(611,283,cs),
(664,326,o),
(694,389,o),
(694,476,cs),
(694,551,o),
(671,614,o),
(623,659,cs),
(574,703,o),
(499,729,o),
(392,729,cs),
(47,729,l),
(47,0,l)
);
}
);
width = 706;
},
{
layerId = "61D7B067-829F-4380-BDB7-B27A2BACA267";
shapes = (
{
closed = 1;
nodes = (
(175,0,l),
(175,663,l),
(155,644,l),
(373,644,ls),
(426,644,o),
(468,632,o),
(498,607,cs),
(528,582,o),
(543,545,o),
(543,497,cs),
(543,408,o),
(486,348,o),
(373,348,cs),
(164,348,l),
(164,269,l),
(381,269,ls),
(461,269,o),
(527,291,o),
(573,330,cs),
(619,369,o),
(644,427,o),
(644,500,cs),
(644,572,o),
(621,628,o),
(577,668,cs),
(532,708,o),
(466,729,o),
(381,729,cs),
(76,729,l),
(76,0,l)
);
}
);
width = 677;
},
{
layerId = "BADC4CB4-4A37-4FEF-A0FC-8F77938ABBAB";
shapes = (
{
closed = 1;
nodes = (
(125,0,l),
(125,706,l),
(110,692,l),
(374,692,ls),
(442,692,o),
(494,676,o),
(531,644,c),
(567,611,o),
(585,566,o),
(585,509,cs),
(585,398,o),
(511,325,o),
(374,325,cs),
(116,325,l),
(116,289,l),
(376,289,ls),
(452,289,o),
(514,311,o),
(558,349,cs),
(601,387,o),
(625,442,o),
(625,509,cs),
(625,580,o),
(602,634,o),
(559,672,cs),
(515,710,o),
(453,729,o),
(377,729,cs),
(87,729,l),
(87,0,l)
);
}
);
width = 665;
}
);
leftKerningGroup = B;
unicode = 80;
},
{
glyphname = Q;
layers = (
{
layerId = "805E1B73-1F0E-4383-AACE-2240222288D4";
shapes = (
{
closed = 1;
nodes = (
(773,24,l),
(714,24,o),
(656,27,o),
(597,37,c),
(597,30,l),
(669,58,o),
(726,103,o),
(763,163,cs),
(797,218,o),
(815,286,o),
(815,365,cs),
(815,486,o),
(776,579,o),
(708,643,cs),
(640,707,o),
(540,740,o),
(419,740,cs),
(298,740,o),
(199,706,o),
(131,643,cs),
(63,579,o),
(24,486,o),
(24,365,cs),
(24,248,o),
(60,157,o),
(125,93,cs),
(192,26,o),
(291,-9,o),
(415,-12,c),
(384,-4,l),
(509,-97,o),
(663,-167,o),
(773,-180,c)
);
},
{
closed = 1;
nodes = (
(379,199,o),
(346,210,o),
(322,235,cs),
(298,260,o),
(284,302,o),
(284,365,cs),
(284,429,o),
(298,470,o),
(322,495,cs),
(346,520,o),
(379,530,o),
(419,530,cs),
(459,530,o),
(493,521,o),
(517,495,cs),
(541,469,o),
(555,428,o),
(555,365,cs),
(555,302,o),
(541,260,o),
(517,235,cs),
(493,210,o),
(459,199,o),
(419,199,cs)
);
}
);
width = 839;
},
{
layerId = "61D7B067-829F-4380-BDB7-B27A2BACA267";
shapes = (
{
closed = 1;
nodes = (
(689,-75,l),
(621,-66,o),
(544,-28,o),
(488,24,c),
(485,4,l),
(577,18,o),
(652,61,o),
(703,126,cs),
(751,187,o),
(777,269,o),
(777,364,cs),
(777,479,o),
(741,572,o),
(677,636,cs),
(613,700,o),
(520,737,o),
(408,737,cs),
(296,737,o),
(204,701,o),
(140,637,cs),
(75,572,o),
(39,479,o),
(39,364,cs),
(39,252,o),
(74,159,o),
(138,95,cs),
(204,27,o),
(301,-12,o),
(418,-9,c),
(388,-1,l),
(450,-81,o),
(586,-157,o),
(689,-171,c)
);
},
{
closed = 1;
nodes = (
(325,77,o),
(260,104,o),
(214,153,cs),
(168,202,o),
(141,275,o),
(141,364,cs),
(141,455,o),
(168,526,o),
(213,576,cs),
(258,626,o),
(325,652,o),
(408,652,cs),
(489,652,o),
(556,625,o),
(603,576,cs),
(650,527,o),
(675,455,o),
(675,364,cs),
(675,275,o),
(650,202,o),
(604,153,cs),
(558,104,o),
(491,77,o),
(408,77,cs)
);
}
);
width = 816;
},
{
layerId = "BADC4CB4-4A37-4FEF-A0FC-8F77938ABBAB";
shapes = (
{
closed = 1;
nodes = (
(656,-127,l),
(585,-104,o),
(486,-40,o),
(445,3,c),
(442,-7,l),
(541,2,o),
(624,44,o),
(680,112,cs),
(732,175,o),
(763,263,o),
(763,364,cs),
(763,476,o),
(727,569,o),
(665,634,cs),
(603,698,o),
(512,736,o),
(404,736,cs),
(295,736,o),
(206,699,o),
(143,634,cs),
(80,569,o),
(45,476,o),
(45,364,cs),
(45,253,o),
(80,160,o),
(143,95,cs),
(209,27,o),
(304,-12,o),
(420,-8,c),
(390,0,l),
(450,-68,o),
(552,-133,o),
(656,-167,c)
);
},
{
closed = 1;
nodes = (
(304,28,o),
(226,61,o),
(171,121,cs),
(115,180,o),
(85,264,o),
(85,364,cs),
(85,464,o),
(115,548,o),
(170,608,cs),
(225,667,o),
(304,700,o),
(404,700,cs),
(501,700,o),
(581,667,o),
(637,608,cs),
(692,549,o),
(723,465,o),
(723,364,cs),
(723,264,o),
(692,180,o),
(637,121,cs),
(582,62,o),
(503,28,o),
(404,28,cs)
);
}
);
width = 807;
}
);
leftKerningGroup = C2;
unicode = 81;
},
{
glyphname = R;
layers = (
{
layerId = "805E1B73-1F0E-4383-AACE-2240222288D4";
shapes = (
{
closed = 1;
nodes = (
(302,0,l),
(302,528,l),
(416,528,ls),
(437,528,o),
(456,525,o),
(469,517,cs),
(482,509,o),
(489,496,o),
(489,473,cs),
(489,456,o),
(485,442,o),
(474,431,cs),
(462,420,o),
(444,414,o),
(416,414,cs),
(285,414,l),
(285,222,l),
(402,222,ls),
(430,222,o),
(450,216,o),
(462,205,c),
(473,193,o),
(478,177,o),
(478,157,cs),
(478,83,ls),
(478,48,o),
(481,16,o),
(488,0,c),
(745,0,l),
(733,29,o),
(733,57,o),
(733,86,cs),
(733,199,ls),
(733,238,o),
(723,270,o),
(703,291,cs),
(682,312,o),
(653,327,o),
(614,334,c),
(614,341,l),
(693,362,o),
(750,426,o),
(750,518,cs),
(750,587,o),
(725,640,o),
(681,676,cs),
(636,711,o),
(572,729,o),
(488,729,cs),
(47,729,l),
(47,0,l)
);
}
);
width = 772;
},
{
layerId = "61D7B067-829F-4380-BDB7-B27A2BACA267";
shapes = (
{
closed = 1;
nodes = (
(175,0,l),
(175,646,l),
(418,646,ls),
(465,646,o),
(503,637,o),
(530,617,cs),
(557,596,o),
(572,563,o),
(572,518,cs),
(572,479,o),
(561,445,o),
(537,421,cs),
(512,397,o),
(474,383,o),
(418,383,cs),
(164,383,l),
(164,304,l),
(424,304,ls),
(477,304,o),
(511,294,o),
(531,275,cs),
(551,255,o),
(558,225,o),
(558,188,cs),
(558,79,ls),
(558,46,o),
(560,21,o),
(569,0,c),
(669,0,l),
(658,27,o),
(658,52,o),
(658,77,cs),
(658,205,ls),
(658,246,o),
(650,279,o),
(631,303,cs),
(612,327,o),
(583,342,o),
(542,349,c),
(542,355,l),
(627,379,o),
(674,442,o),
(674,534,cs),
(674,597,o),
(653,645,o),
(614,678,cs),
(574,711,o),
(516,729,o),
(441,729,cs),
(76,729,l),
(76,0,l)
);
}
);
width = 724;
},
{
layerId = "BADC4CB4-4A37-4FEF-A0FC-8F77938ABBAB";
shapes = (
{
closed = 1;
nodes = (
(125,0,l),
(125,693,l),
(419,693,ls),
(475,693,o),
(522,682,o),
(554,656,cs),
(586,630,o),
(605,591,o),
(605,536,cs),
(605,488,o),
(592,446,o),
(562,417,cs),
(532,388,o),
(486,371,o),
(419,371,cs),
(116,371,l),
(116,336,l),
(433,336,ls),
(496,336,o),
(535,325,o),
(559,302,cs),
(582,279,o),
(590,245,o),
(590,200,cs),
(590,77,ls),
(590,45,o),
(590,23,o),
(601,0,c),
(640,0,l),
(629,27,o),
(629,50,o),
(629,73,cs),
(629,207,ls),
(629,250,o),
(622,283,o),
(604,308,cs),
(586,332,o),
(556,348,o),
(513,355,c),
(513,360,l),
(601,385,o),
(644,448,o),
(644,540,cs),
(644,600,o),
(624,647,o),
(587,680,cs),
(550,712,o),
(494,729,o),
(423,729,cs),
(87,729,l),
(87,0,l)
);
}
);
width = 706;
}
);
leftKerningGroup = B;
rightKerningGroup = R;
unicode = 82;
},
{
glyphname = S;
layers = (
{
layerId = "805E1B73-1F0E-4383-AACE-2240222288D4";
shapes = (
{
closed = 1;
nodes = (
(469,-11,o),
(554,13,o),
(611,57,cs),
(668,100,o),
(697,161,o),
(697,233,cs),
(697,324,o),
(667,379,o),
(619,415,cs),
(570,450,o),
(502,465,o),
(425,473,c),
(365,481,o),
(332,486,o),
(313,494,cs),
(294,501,o),
(291,509,o),
(291,521,cs),
(291,548,o),
(316,556,o),
(352,556,cs),
(365,556,o),
(381,556,o),
(394,550,cs),
(406,544,o),
(416,531,o),
(419,514,c),
(675,514,l),
(674,583,o),
(640,639,o),
(584,678,cs),
(528,717,o),
(451,738,o),
(359,738,cs),
(255,738,o),
(173,716,o),
(117,673,cs),
(60,630,o),
(28,568,o),
(28,489,cs),
(28,422,o),
(50,370,o),
(96,333,cs),
(142,296,o),
(212,270,o),
(308,258,cs),
(363,251,o),
(395,247,o),
(412,242,cs),
(429,237,o),
(433,230,o),
(433,215,cs),
(433,200,o),
(427,190,o),
(415,184,cs),
(403,178,o),
(387,175,o),
(366,175,cs),
(333,175,o),
(309,183,o),
(294,193,cs),
(279,203,o),
(273,218,o),
(274,234,c),
(13,234,l),
(13,161,o),
(43,100,o),
(100,57,cs),
(157,14,o),
(243,-11,o),
(354,-11,cs)
);
}
);
width = 711;
},
{
layerId = "61D7B067-829F-4380-BDB7-B27A2BACA267";
shapes = (
{
closed = 1;
nodes = (
(433,-9,o),
(506,12,o),
(555,49,cs),
(604,85,o),
(630,137,o),
(630,200,cs),
(630,283,o),
(600,331,o),
(552,363,cs),
(503,394,o),
(436,408,o),
(363,419,cs),
(288,431,o),
(236,442,o),
(204,460,cs),
(171,478,o),
(156,504,o),
(156,545,cs),
(156,617,o),
(217,662,o),
(326,662,cs),
(378,662,o),
(422,651,o),
(453,628,cs),
(484,605,o),
(501,570,o),
(504,525,c),
(605,525,l),
(604,589,o),
(578,643,o),
(531,680,cs),
(484,716,o),
(417,737,o),
(330,737,cs),
(243,737,o),
(175,718,o),
(128,683,cs),
(80,647,o),
(53,596,o),
(53,533,cs),
(53,468,o),
(78,424,o),
(123,393,cs),
(168,362,o),
(235,346,o),
(320,331,c),
(392,320,o),
(444,308,o),
(478,288,cs),
(512,268,o),
(526,239,o),
(526,194,cs),
(526,151,o),
(509,120,o),
(477,100,cs),
(445,79,o),
(398,68,o),
(339,68,cs),
(272,68,o),
(223,83,o),
(190,111,cs),
(157,138,o),
(140,177,o),
(139,228,c),
(35,228,l),
(36,157,o),
(62,100,o),
(111,58,cs),
(160,16,o),
(234,-9,o),
(337,-9,cs)
);
}
);
width = 666;
},
{
layerId = "BADC4CB4-4A37-4FEF-A0FC-8F77938ABBAB";
shapes = (
{
closed = 1;
nodes = (
(418,-8,o),
(486,12,o),
(533,46,cs),
(580,80,o),
(604,128,o),
(604,187,cs),
(604,266,o),
(573,313,o),
(525,343,cs),
(477,373,o),
(410,386,o),
(338,397,cs),
(258,410,o),
(199,424,o),
(161,446,cs),
(123,468,o),
(103,501,o),
(103,554,cs),
(103,645,o),
(179,703,o),
(315,703,cs),
(384,703,o),
(439,688,o),
(477,659,cs),
(515,630,o),
(536,586,o),
(537,529,c),
(577,529,l),
(576,592,o),
(554,644,o),
(511,680,cs),
(467,716,o),
(403,737,o),
(319,737,cs),
(239,737,o),
(176,719,o),
(132,687,cs),
(88,654,o),
(63,607,o),
(63,550,cs),
(63,485,o),
(88,445,o),
(133,417,cs),
(178,389,o),
(244,375,o),
(325,360,cs),
(404,347,o),
(464,333,o),
(504,307,cs),
(544,281,o),
(564,245,o),
(564,185,cs),
(564,133,o),
(542,93,o),
(502,66,cs),
(461,39,o),
(402,26,o),
(329,26,cs),
(249,26,o),
(189,45,o),
(149,78,cs),
(109,111,o),
(89,162,o),
(85,225,c),
(44,225,l),
(47,157,o),
(68,98,o),
(115,58,cs),
(162,17,o),
(231,-8,o),
(330,-8,cs)
);
}
);
width = 648;
}
);
leftKerningGroup = S2;
rightKerningGroup = S;
unicode = 83;
},
{
glyphname = T;
layers = (
{
layerId = "805E1B73-1F0E-4383-AACE-2240222288D4";
shapes = (
{
closed = 1;
nodes = (
(460,0,l),
(460,534,l),
(205,534,l),
(205,0,l)
);
},
{
closed = 1;
nodes = (
(661,517,l),
(661,729,l),
(13,729,l),
(13,517,l)
);
}
);
width = 673;
},
{
layerId = "61D7B067-829F-4380-BDB7-B27A2BACA267";
shapes = (
{
closed = 1;
nodes = (
(364,0,l),
(364,655,l),
(264,655,l),
(264,0,l)
);
},
{
closed = 1;
nodes = (
(608,643,l),
(608,729,l),
(21,729,l),
(21,643,l)
);
}
);
width = 630;
},
{
layerId = "BADC4CB4-4A37-4FEF-A0FC-8F77938ABBAB";
shapes = (
{
closed = 1;
nodes = (
(325,0,l),
(325,703,l),
(287,703,l),
(287,0,l)
);
},
{
closed = 1;
nodes = (
(588,693,l),
(588,729,l),
(24,729,l),
(24,693,l)
);
}
);
width = 612;
}
);
leftKerningGroup = T2;
rightKerningGroup = T;
unicode = 84;
},
{
glyphname = U;
layers = (
{
layerId = "805E1B73-1F0E-4383-AACE-2240222288D4";
shapes = (
{
closed = 1;
nodes = (
(492,-11,o),
(579,19,o),
(639,73,cs),
(698,127,o),
(730,204,o),
(730,301,cs),
(730,729,l),
(477,729,l),
(477,298,ls),
(477,265,o),
(466,242,o),
(450,228,cs),
(433,214,o),
(410,208,o),
(382,208,cs),
(349,208,o),
(324,217,o),
(309,233,cs),
(294,249,o),
(287,271,o),
(287,298,cs),
(287,729,l),
(34,729,l),
(34,301,ls),
(34,204,o),
(66,127,o),
(126,73,cs),
(185,19,o),
(272,-11,o),
(381,-11,cs)
);
}
);
width = 764;
},
{
layerId = "61D7B067-829F-4380-BDB7-B27A2BACA267";
shapes = (
{
closed = 1;
nodes = (
(470,-9,o),
(546,18,o),
(599,67,cs),
(651,115,o),
(680,188,o),
(680,279,cs),
(680,729,l),
(581,729,l),
(581,281,ls),
(581,217,o),
(565,167,o),
(530,133,cs),
(495,99,o),
(443,80,o),
(372,80,cs),
(304,80,o),
(251,97,o),
(216,131,cs),
(180,165,o),
(163,214,o),
(163,281,cs),
(163,729,l),
(64,729,l),
(64,279,ls),
(64,184,o),
(94,113,o),
(147,65,cs),
(199,16,o),
(276,-9,o),
(371,-9,cs)
);
}
);
width = 743;
},
{
layerId = "BADC4CB4-4A37-4FEF-A0FC-8F77938ABBAB";
shapes = (
{
closed = 1;
nodes = (
(460,-8,o),
(534,17,o),
(584,65,cs),
(634,112,o),
(660,182,o),
(660,270,cs),
(660,729,l),
(622,729,l),
(622,274,ls),
(622,199,o),
(604,138,o),
(562,95,cs),
(520,52,o),
(456,29,o),
(368,29,cs),
(287,29,o),
(223,50,o),
(180,91,cs),
(136,131,o),
(113,191,o),
(113,274,cs),
(113,729,l),
(75,729,l),
(75,270,ls),
(75,178,o),
(105,109,o),
(155,62,cs),
(205,15,o),
(279,-8,o),
(368,-8,cs)
);
}
);
width = 735;
}
);
leftKerningGroup = U2;
rightKerningGroup = U;
unicode = 85;
},
{
glyphname = V;
layers = (
{
layerId = "805E1B73-1F0E-4383-AACE-2240222288D4";
shapes = (
{
closed = 1;
nodes = (
(585,0,l),
(831,729,l),
(546,729,l),
(431,266,l),
(420,198,l),
(411,198,l),
(400,267,l),
(284,729,l),
(0,729,l),
(247,0,l)
);
}
);
width = 831;
},
{
layerId = "61D7B067-829F-4380-BDB7-B27A2BACA267";
shapes = (
{
closed = 1;
nodes = (
(443,0,l),
(735,729,l),
(626,729,l),
(446,263,l),
(380,82,l),
(374,82,l),
(309,263,l),
(130,729,l),
(19,729,l),
(311,0,l)
);
}
);
width = 754;
},
{
layerId = "BADC4CB4-4A37-4FEF-A0FC-8F77938ABBAB";
shapes = (
{
closed = 1;
nodes = (
(387,0,l),
(698,729,l),
(657,729,l),
(452,262,l),
(365,37,l),
(359,37,l),
(273,262,l),
(69,729,l),
(27,729,l),
(337,0,l)
);
}
);
width = 724;
}
);
unicode = 86;
},
{
glyphname = W;
layers = (
{
layerId = "805E1B73-1F0E-4383-AACE-2240222288D4";
shapes = (
{
closed = 1;
nodes = (
(502,0,l),
(525,241,l),
(546,430,l),
(554,430,l),
(574,240,l),
(599,0,l),
(938,0,l),
(1093,729,l),
(815,729,l),
(788,447,l),
(769,240,l),
(760,240,l),
(733,445,l),
(699,729,l),
(404,729,l),
(370,425,l),
(349,243,l),
(339,243,l),
(319,427,l),
(285,729,l),
(3,729,l),
(162,0,l)
);
}
);
width = 1096;
},
{
layerId = "61D7B067-829F-4380-BDB7-B27A2BACA267";
shapes = (
{
closed = 1;
nodes = (
(350,0,l),
(458,408,l),
(507,618,l),
(514,618,l),
(562,409,l),
(669,0,l),
(806,0,l),
(998,729,l),
(890,729,l),
(781,293,l),
(740,94,l),
(733,94,l),
(687,292,l),
(573,729,l),
(450,729,l),
(335,288,l),
(290,94,l),
(282,94,l),
(241,287,l),
(132,729,l),
(23,729,l),
(214,0,l)
);
}
);
width = 1020;
},
{
layerId = "BADC4CB4-4A37-4FEF-A0FC-8F77938ABBAB";
shapes = (
{
closed = 1;
nodes = (
(290,0,l),
(432,475,l),
(492,692,l),
(498,692,l),
(558,476,l),
(697,0,l),
(754,0,l),
(960,729,l),
(919,729,l),
(778,232,l),
(729,36,l),
(722,36,l),
(669,232,l),
(523,729,l),
(468,729,l),
(321,234,l),
(266,36,l),
(260,36,l),
(211,232,l),
(71,729,l),
(30,729,l),
(235,0,l)
);
}
);
width = 990;
}
);
leftKerningGroup = W2;
rightKerningGroup = W;
unicode = 87;
},
{
glyphname = X;
layers = (
{
layerId = "805E1B73-1F0E-4383-AACE-2240222288D4";
shapes = (
{
closed = 1;
nodes = (
(297,0,l),
(395,164,l),
(424,216,l),
(432,216,l),
(461,164,l),
(558,0,l),
(865,0,l),
(601,387,l),
(845,729,l),
(540,729,l),
(470,598,l),
(435,534,l),
(427,534,l),
(393,598,l),
(323,729,l),
(16,729,l),
(267,384,l),
(-1,0,l)
);
}
);
width = 864;
},
{
layerId = "61D7B067-829F-4380-BDB7-B27A2BACA267";
shapes = (
{
closed = 1;
nodes = (
(133,0,l),
(293,224,l),
(360,321,l),
(365,321,l),
(431,224,l),
(591,0,l),
(711,0,l),
(430,389,l),
(679,729,l),
(561,729,l),
(424,536,l),
(366,449,l),
(360,449,l),
(302,536,l),
(166,729,l),
(48,729,l),
(298,388,l),
(16,0,l)
);
}
);
width = 728;
},
{
layerId = "BADC4CB4-4A37-4FEF-A0FC-8F77938ABBAB";
shapes = (
{
closed = 1;
nodes = (
(68,0,l),
(253,247,l),
(334,363,l),
(339,363,l),
(419,247,l),
(604,0,l),
(650,0,l),
(363,390,l),
(613,729,l),
(570,729,l),
(407,512,l),
(339,415,l),
(334,415,l),
(266,512,l),
(105,729,l),
(61,729,l),
(311,390,l),
(23,0,l)
);
}
);
width = 675;
}
);
unicode = 88;
},
{
glyphname = Y;
layers = (
{
layerId = "805E1B73-1F0E-4383-AACE-2240222288D4";
shapes = (
{
closed = 1;
nodes = (
(535,0,l),
(535,260,l),
(818,729,l),
(531,729,l),
(450,563,l),
(410,473,l),
(402,473,l),
(364,563,l),
(286,729,l),
(-2,729,l),
(279,260,l),
(279,0,l)
);
}
);
width = 816;
},
{
layerId = "61D7B067-829F-4380-BDB7-B27A2BACA267";
shapes = (
{
closed = 1;
nodes = (
(398,0,l),
(398,289,l),
(682,729,l),
(568,729,l),
(434,514,l),
(351,375,l),
(345,375,l),
(264,514,l),
(131,729,l),
(16,729,l),
(298,289,l),
(298,0,l)
);
}
);
width = 698;
},
{
layerId = "BADC4CB4-4A37-4FEF-A0FC-8F77938ABBAB";
shapes = (
{
closed = 1;
nodes = (
(344,0,l),
(344,300,l),
(629,729,l),
(583,729,l),
(427,494,l),
(328,336,l),
(323,336,l),
(225,494,l),
(69,729,l),
(23,729,l),
(306,300,l),
(306,0,l)
);
}
);
width = 652;
}
);
leftKerningGroup = Y2;
rightKerningGroup = Y;
unicode = 89;
},
{
glyphname = Z;
layers = (
{
layerId = "805E1B73-1F0E-4383-AACE-2240222288D4";
shapes = (
{
closed = 1;
nodes = (
(638,0,l),
(638,209,l),
(333,209,l),
(629,514,l),
(629,729,l),
(44,729,l),
(44,518,l),
(318,518,l),
(24,212,l),
(24,0,l)
);
}
);
width = 665;
},
{
layerId = "61D7B067-829F-4380-BDB7-B27A2BACA267";
shapes = (
{
closed = 1;
nodes = (
(615,0,l),
(615,86,l),
(153,86,l),
(604,647,l),
(604,729,l),
(45,729,l),
(45,644,l),
(478,644,l),
(28,82,l),
(28,0,l)
);
}
);
width = 644;
},
{
layerId = "BADC4CB4-4A37-4FEF-A0FC-8F77938ABBAB";
shapes = (
{
closed = 1;
nodes = (
(605,0,l),
(605,37,l),
(82,37,l),
(593,700,l),
(593,729,l),
(45,729,l),
(45,693,l),
(541,693,l),
(30,30,l),
(30,0,l)
);
}
);
width = 635;
}
);
leftKerningGroup = Z2;
rightKerningGroup = Z;
unicode = 90;
},
{
glyphname = bracketleft;
layers = (
{
layerId = "805E1B73-1F0E-4383-AACE-2240222288D4";
shapes = (
{
closed = 1;
nodes = (
(384,-167,l),
(384,9,l),
(271,9,l),
(271,616,l),
(384,616,l),
(384,793,l),
(51,793,l),
(51,-167,l)
);
}
);
width = 406;
},
{
layerId = "61D7B067-829F-4380-BDB7-B27A2BACA267";
shapes = (
{
closed = 1;
nodes = (
(328,-167,l),
(328,-94,l),
(171,-94,l),
(171,720,l),
(328,720,l),
(328,793,l),
(83,793,l),
(83,-167,l)
);
}
);
width = 360;
},
{
layerId = "BADC4CB4-4A37-4FEF-A0FC-8F77938ABBAB";
shapes = (
{
closed = 1;
nodes = (
(306,-167,l),
(306,-135,l),
(131,-135,l),
(131,761,l),
(306,761,l),
(306,793,l),
(95,793,l),
(95,-167,l)
);
}
);
width = 341;
}
);
unicode = 91;
},
{
glyphname = backslash;
layers = (
{
layerId = "805E1B73-1F0E-4383-AACE-2240222288D4";
shapes = (
{
closed = 1;
nodes = (
(506,-82,l),
(214,729,l),
(-17,729,l),
(278,-82,l)
);
}
);
width = 489;
},
{
layerId = "61D7B067-829F-4380-BDB7-B27A2BACA267";
shapes = (
{
closed = 1;
nodes = (
(417,-81,l),
(82,729,l),
(-9,729,l),
(325,-81,l)
);
}
);
width = 408;
},
{
layerId = "BADC4CB4-4A37-4FEF-A0FC-8F77938ABBAB";
shapes = (
{
closed = 1;
nodes = (
(382,-81,l),
(30,729,l),
(-6,729,l),
(343,-81,l)
);
}
);
width = 376;
}
);
unicode = 92;
},
{
glyphname = bracketright;
layers = (
{
layerId = "805E1B73-1F0E-4383-AACE-2240222288D4";
shapes = (
{
closed = 1;
nodes = (
(22,793,l),
(22,617,l),
(135,617,l),
(135,10,l),
(22,10,l),
(22,-167,l),
(355,-167,l),
(355,793,l)
);
}
);
width = 406;
},
{
layerId = "61D7B067-829F-4380-BDB7-B27A2BACA267";
shapes = (
{
closed = 1;
nodes = (
(32,793,l),
(32,720,l),
(189,720,l),
(189,-94,l),
(32,-94,l),
(32,-167,l),
(277,-167,l),
(277,793,l)
);
}
);
width = 360;
},
{
layerId = "BADC4CB4-4A37-4FEF-A0FC-8F77938ABBAB";
shapes = (
{
closed = 1;
nodes = (
(36,793,l),
(36,761,l),
(210,761,l),
(210,-135,l),
(36,-135,l),
(36,-167,l),
(246,-167,l),
(246,793,l)
);
}
);
width = 341;
}
);
unicode = 93;
},
{
glyphname = asciicircum;
layers = (
{
layerId = "805E1B73-1F0E-4383-AACE-2240222288D4";
shapes = (
{
closed = 1;
nodes = (
(253,466,l),
(320,556,l),
(385,466,l),
(597,466,l),
(439,729,l),
(201,729,l),
(40,466,l)
);
}
);
width = 636;
},
{
layerId = "61D7B067-829F-4380-BDB7-B27A2BACA267";
shapes = (
{
closed = 1;
nodes = (
(214,473,l),
(319,653,l),
(422,473,l),
(512,473,l),
(366,729,l),
(271,729,l),
(125,473,l)
);
}
);
width = 636;
},
{
layerId = "BADC4CB4-4A37-4FEF-A0FC-8F77938ABBAB";
shapes = (
{
closed = 1;
nodes = (
(199,475,l),
(318,692,l),
(436,475,l),
(479,475,l),
(337,729,l),
(299,729,l),
(158,475,l)
);
}
);
width = 636;
}
);
unicode = 94;
},
{
glyphname = underscore;
layers = (
{
layerId = "805E1B73-1F0E-4383-AACE-2240222288D4";
shapes = (
{
closed = 1;
nodes = (
(460,-192,l),
(460,0,l),
(30,0,l),
(30,-192,l)
);
}
);
width = 491;
},
{
layerId = "61D7B067-829F-4380-BDB7-B27A2BACA267";
shapes = (
{
closed = 1;
nodes = (
(413,-78,l),
(413,0,l),
(49,0,l),
(49,-78,l)
);
}
);
width = 461;
},
{
layerId = "BADC4CB4-4A37-4FEF-A0FC-8F77938ABBAB";
shapes = (
{
closed = 1;
nodes = (
(394,-33,l),
(394,0,l),
(56,0,l),
(56,-33,l)
);
}
);
width = 449;
}
);
unicode = 95;
},
{
glyphname = b;
layers = (
{
layerId = "805E1B73-1F0E-4383-AACE-2240222288D4";
shapes = (
{
closed = 1;
nodes = (
(516,-10,o),
(574,17,o),
(615,66,cs),
(655,115,o),
(678,187,o),
(678,276,cs),
(678,367,o),
(655,437,o),
(615,486,cs),
(574,535,o),
(516,561,o),
(445,561,cs),
(389,561,o),
(322,540,o),
(294,487,c),
(285,487,l),
(285,729,l),
(43,729,l),
(43,0,l),
(274,0,l),
(282,66,l),
(292,66,l),
(315,21,o),
(372,-10,o),
(445,-10,cs)
);
},
{
closed = 1;
nodes = (
(334,179,o),
(316,186,o),
(304,200,cs),
(292,214,o),
(285,235,o),
(285,263,cs),
(285,290,ls),
(285,317,o),
(291,337,o),
(303,352,cs),
(315,367,o),
(333,373,o),
(358,373,cs),
(386,373,o),
(405,363,o),
(417,347,c),
(428,330,o),
(433,305,o),
(433,276,cs),
(433,247,o),
(427,223,o),
(415,206,cs),
(402,189,o),
(382,179,o),
(353,179,cs)
);
}
);
width = 695;
},
{
layerId = "61D7B067-829F-4380-BDB7-B27A2BACA267";
shapes = (
{
closed = 1;
nodes = (
(429,-9,o),
(487,16,o),
(528,64,cs),
(568,111,o),
(592,179,o),
(592,263,cs),
(592,347,o),
(568,415,o),
(528,463,cs),
(487,510,o),
(429,536,o),
(360,536,cs),
(281,536,o),
(228,528,o),
(169,450,c),
(164,450,l),
(164,729,l),
(69,729,l),
(69,0,l),
(159,0,l),
(163,74,l),
(168,74,l),
(215,6,o),
(265,-9,o),
(360,-9,cs)
);
},
{
closed = 1;
nodes = (
(278,68,o),
(236,86,o),
(208,117,cs),
(180,148,o),
(164,190,o),
(164,234,cs),
(164,290,ls),
(164,335,o),
(179,377,o),
(207,408,cs),
(235,439,o),
(278,458,o),
(331,458,cs),
(382,458,o),
(423,439,o),
(451,406,cs),
(479,373,o),
(495,323,o),
(495,263,cs),
(495,202,o),
(479,154,o),
(451,120,cs),
(422,86,o),
(381,68,o),
(330,68,cs)
);
}
);
width = 631;
},
{
layerId = "BADC4CB4-4A37-4FEF-A0FC-8F77938ABBAB";
shapes = (
{
closed = 1;
nodes = (
(395,-9,o),
(453,17,o),
(494,63,cs),
(534,109,o),
(557,175,o),
(557,258,cs),
(557,341,o),
(534,408,o),
(494,454,cs),
(453,500,o),
(395,525,o),
(327,525,cs),
(236,525,o),
(152,482,o),
(119,393,c),
(116,393,l),
(116,729,l),
(79,729,l),
(79,0,l),
(114,0,l),
(116,119,l),
(119,119,l),
(147,42,o),
(223,-9,o),
(327,-9,cs)
);
},
{
closed = 1;
nodes = (
(256,24,o),
(205,48,o),
(170,85,cs),
(135,121,o),
(116,171,o),
(116,222,cs),
(116,290,ls),
(116,342,o),
(135,393,o),
(170,430,cs),
(205,467,o),
(256,491,o),
(320,491,cs),
(380,491,o),
(429,470,o),
(465,430,c),
(500,389,o),
(519,330,o),
(519,258,cs),
(519,183,o),
(500,125,o),
(465,85,cs),
(429,45,o),
(380,24,o),
(320,24,cs)
);
}
);
width = 606;
}
);
leftKerningGroup = b2;
rightKerningGroup = b;
unicode = 98;
},
{
glyphname = c;
layers = (
{
layerId = "805E1B73-1F0E-4383-AACE-2240222288D4";
shapes = (
{
closed = 1;
nodes = (
(400,-11,o),
(473,12,o),
(525,52,cs),
(577,92,o),
(610,149,o),
(610,220,c),
(374,220,l),
(371,208,o),
(366,198,o),
(357,191,cs),
(348,183,o),
(336,179,o),
(319,179,cs),
(302,179,o),
(287,185,o),
(276,201,cs),
(265,216,o),
(258,240,o),
(258,277,cs),
(258,306,o),
(263,331,o),
(272,347,cs),
(281,363,o),
(297,372,o),
(320,372,cs),
(351,372,o),
(370,357,o),
(373,328,c),
(610,328,l),
(610,397,o),
(582,456,o),
(532,497,cs),
(482,537,o),
(410,561,o),
(323,561,cs),
(230,561,o),
(151,534,o),
(98,486,cs),
(45,438,o),
(14,366,o),
(14,278,cs),
(14,191,o),
(43,119,o),
(96,68,cs),
(148,17,o),
(224,-11,o),
(316,-11,cs)
);
}
);
width = 624;
},
{
layerId = "61D7B067-829F-4380-BDB7-B27A2BACA267";
shapes = (
{
closed = 1;
nodes = (
(371,-9,o),
(430,10,o),
(474,43,cs),
(518,76,o),
(548,125,o),
(553,182,c),
(460,182,l),
(453,149,o),
(435,120,o),
(408,101,cs),
(381,81,o),
(346,70,o),
(305,70,cs),
(252,70,o),
(210,88,o),
(180,121,cs),
(150,153,o),
(133,202,o),
(133,263,cs),
(133,320,o),
(150,370,o),
(179,404,cs),
(208,438,o),
(251,457,o),
(306,457,cs),
(382,457,o),
(440,420,o),
(457,352,c),
(550,352,l),
(545,407,o),
(517,452,o),
(475,485,cs),
(433,517,o),
(375,535,o),
(308,535,cs),
(227,535,o),
(158,508,o),
(111,461,cs),
(64,413,o),
(37,346,o),
(37,263,cs),
(37,180,o),
(63,113,o),
(110,66,cs),
(157,18,o),
(223,-9,o),
(304,-9,cs)
);
}
);
width = 584;
},
{
layerId = "BADC4CB4-4A37-4FEF-A0FC-8F77938ABBAB";
shapes = (
{
closed = 1;
nodes = (
(359,-8,o),
(413,9,o),
(454,40,cs),
(494,71,o),
(523,115,o),
(531,167,c),
(493,167,l),
(485,126,o),
(461,90,o),
(428,66,cs),
(395,41,o),
(350,27,o),
(299,27,cs),
(232,27,o),
(179,49,o),
(142,89,cs),
(105,129,o),
(84,186,o),
(84,257,cs),
(84,326,o),
(105,385,o),
(142,426,cs),
(179,466,o),
(234,490,o),
(301,490,cs),
(393,490,o),
(469,445,o),
(490,361,c),
(527,361,l),
(518,410,o),
(491,451,o),
(452,480,cs),
(413,509,o),
(361,525,o),
(302,525,cs),
(226,525,o),
(161,498,o),
(117,451,cs),
(72,403,o),
(47,337,o),
(47,257,cs),
(47,177,o),
(72,111,o),
(116,65,cs),
(160,19,o),
(223,-8,o),
(299,-8,cs)
);
}
);
width = 569;
}
);
leftKerningGroup = c2;
rightKerningGroup = c;
unicode = 99;
},
{
glyphname = d;
layers = (
{
layerId = "805E1B73-1F0E-4383-AACE-2240222288D4";
shapes = (
{
closed = 1;
nodes = (
(324,-9,o),
(381,20,o),
(402,65,c),
(413,65,l),
(421,0,l),
(652,0,l),
(652,729,l),
(410,729,l),
(410,487,l),
(400,487,l),
(377,532,o),
(317,561,o),
(249,561,cs),
(180,561,o),
(121,535,o),
(80,486,cs),
(39,437,o),
(17,367,o),
(17,276,cs),
(17,187,o),
(39,115,o),
(80,66,cs),
(121,17,o),
(180,-9,o),
(249,-9,cs)
);
},
{
closed = 1;
nodes = (
(309,179,o),
(291,189,o),
(279,206,cs),
(267,223,o),
(262,247,o),
(262,276,cs),
(262,305,o),
(268,329,o),
(281,346,cs),
(293,362,o),
(313,373,o),
(341,373,cs),
(362,373,o),
(379,365,o),
(391,352,cs),
(403,339,o),
(409,318,o),
(409,290,cs),
(409,262,ls),
(409,235,o),
(404,216,o),
(392,201,cs),
(380,186,o),
(362,179,o),
(337,179,cs)
);
}
);
width = 695;
},
{
layerId = "61D7B067-829F-4380-BDB7-B27A2BACA267";
shapes = (
{
closed = 1;
nodes = (
(368,-10,o),
(435,17,o),
(463,76,c),
(469,76,l),
(472,0,l),
(562,0,l),
(562,729,l),
(467,729,l),
(467,451,l),
(463,451,l),
(416,520,o),
(365,536,o),
(272,536,cs),
(203,536,o),
(145,510,o),
(104,463,cs),
(63,416,o),
(40,348,o),
(40,263,cs),
(40,179,o),
(63,110,o),
(104,63,cs),
(145,16,o),
(203,-10,o),
(272,-10,cs)
);
},
{
closed = 1;
nodes = (
(250,68,o),
(209,87,o),
(181,120,cs),
(152,153,o),
(137,203,o),
(137,263,cs),
(137,324,o),
(152,373,o),
(181,407,cs),
(209,441,o),
(251,459,o),
(303,459,cs),
(354,459,o),
(395,441,o),
(423,410,cs),
(451,379,o),
(467,338,o),
(467,291,cs),
(467,236,ls),
(467,189,o),
(452,148,o),
(424,117,cs),
(396,86,o),
(354,68,o),
(302,68,cs)
);
}
);
width = 631;
},
{
layerId = "BADC4CB4-4A37-4FEF-A0FC-8F77938ABBAB";
shapes = (
{
closed = 1;
nodes = (
(385,-10,o),
(459,42,o),
(488,122,c),
(491,122,l),
(492,0,l),
(527,0,l),
(527,729,l),
(490,729,l),
(490,395,l),
(488,395,l),
(459,474,o),
(385,526,o),
(281,526,cs),
(213,526,o),
(154,500,o),
(114,454,cs),
(73,408,o),
(49,341,o),
(49,258,cs),
(49,175,o),
(73,109,o),
(114,63,cs),
(154,17,o),
(213,-10,o),
(281,-10,cs)
);
},
{
closed = 1;
nodes = (
(227,24,o),
(177,46,o),
(142,86,cs),
(106,126,o),
(87,185,o),
(87,258,cs),
(87,333,o),
(106,391,o),
(142,431,cs),
(177,471,o),
(227,493,o),
(288,493,cs),
(351,493,o),
(401,469,o),
(436,433,cs),
(471,396,o),
(490,346,o),
(490,291,cs),
(490,225,ls),
(490,172,o),
(471,120,o),
(436,84,cs),
(401,47,o),
(351,24,o),
(288,24,cs)
);
}
);
width = 606;
}
);
leftKerningGroup = d2;
rightKerningGroup = d;
unicode = 100;
},
{
glyphname = e;
layers = (
{
layerId = "805E1B73-1F0E-4383-AACE-2240222288D4";
shapes = (
{
closed = 1;
nodes = (
(402,-11,o),
(471,8,o),
(522,41,cs),
(573,74,o),
(606,122,o),
(614,181,c),
(383,181,l),
(379,176,o),
(372,171,o),
(363,168,cs),
(354,165,o),
(342,163,o),
(326,163,cs),
(306,163,o),
(287,168,o),
(275,177,cs),
(263,185,o),
(256,198,o),
(257,217,c),
(619,217,l),
(631,317,o),
(610,403,o),
(559,464,cs),
(508,525,o),
(429,561,o),
(317,561,cs),
(228,561,o),
(151,535,o),
(98,485,cs),
(45,435,o),
(14,362,o),
(14,270,cs),
(14,186,o),
(41,116,o),
(94,67,cs),
(146,18,o),
(222,-11,o),
(321,-11,cs)
);
},
{
closed = 1;
nodes = (
(254,335,l),
(253,352,o),
(258,367,o),
(270,376,cs),
(281,385,o),
(297,391,o),
(318,391,cs),
(338,391,o),
(354,385,o),
(365,377,cs),
(376,368,o),
(381,354,o),
(380,337,c),
(396,352,l),
(239,352,l)
);
}
);
width = 638;
},
{
layerId = "61D7B067-829F-4380-BDB7-B27A2BACA267";
shapes = (
{
closed = 1;
nodes = (
(369,-9,o),
(426,8,o),
(470,37,cs),
(513,65,o),
(543,107,o),
(552,158,c),
(459,158,l),
(451,130,o),
(433,106,o),
(407,90,cs),
(381,74,o),
(347,65,o),
(306,65,cs),
(254,65,o),
(212,81,o),
(182,112,cs),
(152,143,o),
(134,188,o),
(133,245,c),
(556,245,l),
(564,330,o),
(545,402,o),
(502,454,cs),
(458,505,o),
(391,535,o),
(302,535,cs),
(221,535,o),
(154,508,o),
(109,461,cs),
(64,413,o),
(38,345,o),
(38,261,cs),
(38,181,o),
(64,112,o),
(110,65,cs),
(156,18,o),
(222,-9,o),
(305,-9,cs)
);
},
{
closed = 1;
nodes = (
(133,298,l),
(136,349,o),
(153,390,o),
(182,419,cs),
(210,447,o),
(252,463,o),
(301,463,cs),
(350,463,o),
(391,449,o),
(419,421,cs),
(447,393,o),
(463,352,o),
(462,297,c),
(470,312,l),
(126,312,l)
);
}
);
width = 596;
},
{
layerId = "BADC4CB4-4A37-4FEF-A0FC-8F77938ABBAB";
shapes = (
{
closed = 1;
nodes = (
(357,-8,o),
(409,7,o),
(449,35,cs),
(489,63,o),
(518,101,o),
(527,149,c),
(489,149,l),
(480,112,o),
(457,82,o),
(424,60,cs),
(391,38,o),
(349,26,o),
(298,26,cs),
(234,26,o),
(182,47,o),
(145,87,cs),
(108,126,o),
(87,183,o),
(84,256,c),
(531,256,l),
(536,336,o),
(519,402,o),
(479,450,cs),
(439,497,o),
(376,525,o),
(296,525,cs),
(219,525,o),
(157,498,o),
(114,451,cs),
(70,404,o),
(47,338,o),
(47,258,cs),
(47,178,o),
(72,111,o),
(116,65,cs),
(159,19,o),
(222,-8,o),
(298,-8,cs)
);
},
{
closed = 1;
nodes = (
(86,284,l),
(90,347,o),
(111,399,o),
(147,435,cs),
(183,471,o),
(234,491,o),
(295,491,cs),
(355,491,o),
(405,474,o),
(441,439,c),
(476,403,o),
(495,351,o),
(494,282,c),
(500,290,l),
(81,290,l)
);
}
);
width = 580;
}
);
leftKerningGroup = c2;
rightKerningGroup = e;
unicode = 101;
},
{
glyphname = f;
layers = (
{
layerId = "805E1B73-1F0E-4383-AACE-2240222288D4";
shapes = (
{
closed = 1;
nodes = (
(330,0,l),
(330,362,l),
(429,362,l),
(429,551,l),
(330,551,l),
(330,558,ls),
(330,574,o),
(342,577,o),
(357,577,cs),
(437,577,l),
(437,729,l),
(283,729,ls),
(158,729,o),
(88,671,o),
(88,571,cs),
(88,551,l),
(12,551,l),
(12,362,l),
(88,362,l),
(88,0,l)
);
}
);
width = 441;
},
{
layerId = "61D7B067-829F-4380-BDB7-B27A2BACA267";
shapes = (
{
closed = 1;
nodes = (
(211,0,l),
(211,450,l),
(332,450,l),
(332,527,l),
(211,527,l),
(211,591,ls),
(211,642,o),
(232,662,o),
(281,662,cs),
(346,662,l),
(346,729,l),
(255,729,ls),
(168,729,o),
(116,685,o),
(116,598,cs),
(116,527,l),
(17,527,l),
(17,450,l),
(116,450,l),
(116,0,l)
);
}
);
width = 349;
},
{
layerId = "BADC4CB4-4A37-4FEF-A0FC-8F77938ABBAB";
shapes = (
{
closed = 1;
nodes = (
(164,0,l),
(164,485,l),
(294,485,l),
(294,517,l),
(164,517,l),
(164,604,ls),
(164,669,o),
(188,695,o),
(252,695,cs),
(310,695,l),
(310,729,l),
(243,729,ls),
(172,729,o),
(127,690,o),
(127,609,cs),
(127,517,l),
(19,517,l),
(19,485,l),
(127,485,l),
(127,0,l)
);
}
);
width = 312;
}
);
leftKerningGroup = f2;
rightKerningGroup = f;
unicode = 102;
},
{
glyphname = h;
layers = (
{
layerId = "805E1B73-1F0E-4383-AACE-2240222288D4";
shapes = (
{
closed = 1;
nodes = (
(285,0,l),
(285,304,ls),
(285,320,o),
(290,336,o),
(301,350,cs),
(312,364,o),
(329,372,o),
(353,372,cs),
(378,372,o),
(394,363,o),
(403,347,cs),
(411,331,o),
(415,308,o),
(415,280,cs),
(415,0,l),
(657,0,l),
(657,330,ls),
(657,415,o),
(635,474,o),
(599,510,cs),
(563,546,o),
(511,561,o),
(452,561,cs),
(383,561,o),
(320,531,o),
(295,474,c),
(285,474,l),
(285,729,l),
(43,729,l),
(43,0,l)
);
}
);
width = 691;
},
{
layerId = "61D7B067-829F-4380-BDB7-B27A2BACA267";
shapes = (
{
closed = 1;
nodes = (
(164,0,l),
(164,279,ls),
(164,330,o),
(180,374,o),
(209,406,cs),
(238,438,o),
(281,457,o),
(330,457,cs),
(377,457,o),
(411,444,o),
(434,416,cs),
(457,388,o),
(468,345,o),
(468,286,cs),
(468,0,l),
(563,0,l),
(563,305,ls),
(563,389,o),
(542,447,o),
(506,483,cs),
(470,519,o),
(421,535,o),
(362,535,cs),
(278,535,o),
(224,525,o),
(169,448,c),
(164,448,l),
(164,729,l),
(69,729,l),
(69,0,l)
);
}
);
width = 622;
},
{
layerId = "BADC4CB4-4A37-4FEF-A0FC-8F77938ABBAB";
shapes = (
{
closed = 1;
nodes = (
(116,0,l),
(116,269,ls),
(116,334,o),
(137,390,o),
(173,429,cs),
(209,468,o),
(261,491,o),
(321,491,cs),
(377,491,o),
(419,476,o),
(447,443,cs),
(475,410,o),
(489,360,o),
(489,289,cs),
(489,0,l),
(526,0,l),
(526,295,ls),
(526,379,o),
(505,436,o),
(470,473,c),
(434,509,o),
(385,525,o),
(326,525,cs),
(237,525,o),
(157,481,o),
(120,396,c),
(116,396,l),
(116,729,l),
(79,729,l),
(79,0,l)
);
}
);
width = 595;
}
);
leftKerningGroup = b2;
rightKerningGroup = h;
unicode = 104;
},
{
glyphname = k;
layers = (
{
layerId = "805E1B73-1F0E-4383-AACE-2240222288D4";
shapes = (
{
closed = 1;
nodes = (
(288,0,l),
(288,135,l),
(325,173,l),
(356,118,l),
(428,0,l),
(718,0,l),
(496,328,l),
(719,551,l),
(422,551,l),
(335,444,l),
(288,388,l),
(288,729,l),
(43,729,l),
(43,0,l)
);
}
);
width = 715;
},
{
layerId = "61D7B067-829F-4380-BDB7-B27A2BACA267";
shapes = (
{
closed = 1;
nodes = (
(165,0,l),
(165,165,l),
(270,261,l),
(304,208,l),
(452,0,l),
(566,0,l),
(337,322,l),
(557,527,l),
(436,527,l),
(218,320,l),
(165,268,l),
(165,729,l),
(69,729,l),
(69,0,l)
);
}
);
width = 580;
},
{
layerId = "BADC4CB4-4A37-4FEF-A0FC-8F77938ABBAB";
shapes = (
{
closed = 1;
nodes = (
(116,0,l),
(116,177,l),
(249,296,l),
(284,244,l),
(462,0,l),
(506,0,l),
(275,320,l),
(493,517,l),
(442,517,l),
(172,271,l),
(116,220,l),
(116,729,l),
(79,729,l),
(79,0,l)
);
}
);
width = 527;
}
);
leftKerningGroup = b2;
rightKerningGroup = k;
unicode = 107;
},
{
glyphname = m;
layers = (
{
layerId = "805E1B73-1F0E-4383-AACE-2240222288D4";
shapes = (
{
closed = 1;
nodes = (
(285,0,l),
(285,306,ls),
(285,321,o),
(290,337,o),
(299,350,cs),
(308,363,o),
(322,372,o),
(345,372,cs),
(368,372,o),
(382,363,o),
(390,348,cs),
(397,333,o),
(400,311,o),
(400,284,cs),
(400,0,l),
(641,0,l),
(641,306,ls),
(641,322,o),
(646,338,o),
(655,351,cs),
(664,363,o),
(681,372,o),
(701,372,cs),
(724,372,o),
(736,363,o),
(745,348,c),
(753,332,o),
(756,310,o),
(756,282,cs),
(756,0,l),
(998,0,l),
(998,328,ls),
(998,411,o),
(977,471,o),
(942,508,cs),
(907,544,o),
(858,561,o),
(802,561,cs),
(721,561,o),
(657,529,o),
(629,454,c),
(620,454,l),
(588,534,o),
(520,561,o),
(448,561,cs),
(379,561,o),
(320,532,o),
(295,473,c),
(285,473,l),
(277,551,l),
(43,551,l),
(43,0,l)
);
}
);
width = 1031;
},
{
layerId = "61D7B067-829F-4380-BDB7-B27A2BACA267";
shapes = (
{
closed = 1;
nodes = (
(164,0,l),
(164,283,ls),
(164,334,o),
(178,376,o),
(206,408,cs),
(233,439,o),
(272,457,o),
(321,457,cs),
(366,457,o),
(398,444,o),
(419,416,cs),
(440,387,o),
(451,345,o),
(451,288,cs),
(451,0,l),
(547,0,l),
(547,283,ls),
(547,334,o),
(562,376,o),
(589,408,cs),
(616,439,o),
(655,457,o),
(703,457,cs),
(750,457,o),
(783,444,o),
(804,416,cs),
(824,388,o),
(834,346,o),
(834,290,cs),
(834,0,l),
(929,0,l),
(929,307,ls),
(929,388,o),
(910,445,o),
(876,482,cs),
(842,518,o),
(794,535,o),
(735,535,cs),
(634,535,o),
(572,506,o),
(530,439,c),
(522,439,l),
(489,501,o),
(430,535,o),
(353,535,cs),
(268,535,o),
(209,507,o),
(169,450,c),
(164,450,l),
(160,527,l),
(69,527,l),
(69,0,l)
);
}
);
width = 988;
},
{
layerId = "BADC4CB4-4A37-4FEF-A0FC-8F77938ABBAB";
shapes = (
{
closed = 1;
nodes = (
(116,0,l),
(116,274,ls),
(116,338,o),
(135,393,o),
(169,431,cs),
(203,469,o),
(252,491,o),
(312,491,cs),
(365,491,o),
(404,475,o),
(431,442,cs),
(458,409,o),
(472,358,o),
(472,289,cs),
(472,0,l),
(510,0,l),
(510,274,ls),
(510,338,o),
(529,393,o),
(563,431,cs),
(597,469,o),
(645,491,o),
(704,491,cs),
(760,491,o),
(801,475,o),
(827,443,cs),
(853,410,o),
(865,360,o),
(865,293,cs),
(865,0,l),
(902,0,l),
(902,299,ls),
(902,379,o),
(884,435,o),
(850,472,cs),
(816,508,o),
(768,525,o),
(709,525,cs),
(617,525,o),
(540,479,o),
(505,391,c),
(497,391,l),
(473,482,o),
(405,525,o),
(316,525,cs),
(229,525,o),
(155,482,o),
(120,399,c),
(116,399,l),
(115,517,l),
(79,517,l),
(79,0,l)
);
}
);
width = 971;
}
);
leftKerningGroup = m;
rightKerningGroup = h;
unicode = 109;
},
{
glyphname = n;
layers = (
{
layerId = "805E1B73-1F0E-4383-AACE-2240222288D4";
shapes = (
{
closed = 1;
nodes = (
(285,0,l),
(285,304,ls),
(285,320,o),
(290,337,o),
(301,350,cs),
(312,363,o),
(330,372,o),
(353,372,cs),
(378,372,o),
(394,363,o),
(403,347,cs),
(411,331,o),
(415,308,o),
(415,280,cs),
(415,0,l),
(657,0,l),
(657,330,ls),
(657,415,o),
(635,474,o),
(599,510,cs),
(563,546,o),
(511,561,o),
(452,561,cs),
(388,561,o),
(323,536,o),
(295,474,c),
(285,474,l),
(277,551,l),
(43,551,l),
(43,0,l)
);
}
);
width = 691;
},
{
layerId = "61D7B067-829F-4380-BDB7-B27A2BACA267";
shapes = (
{
closed = 1;
nodes = (
(164,0,l),
(164,279,ls),
(164,331,o),
(180,375,o),
(209,407,cs),
(238,439,o),
(281,457,o),
(330,457,cs),
(377,457,o),
(411,444,o),
(434,416,cs),
(457,388,o),
(468,345,o),
(468,286,cs),
(468,0,l),
(563,0,l),
(563,305,ls),
(563,389,o),
(542,447,o),
(506,483,cs),
(470,519,o),
(421,535,o),
(362,535,cs),
(279,535,o),
(223,526,o),
(169,448,c),
(164,448,l),
(160,527,l),
(69,527,l),
(69,0,l)
);
}
);
width = 622;
},
{
layerId = "BADC4CB4-4A37-4FEF-A0FC-8F77938ABBAB";
shapes = (
{
closed = 1;
nodes = (
(116,0,l),
(116,269,ls),
(116,334,o),
(137,390,o),
(173,429,cs),
(209,468,o),
(261,491,o),
(321,491,cs),
(377,491,o),
(419,476,o),
(447,443,cs),
(475,410,o),
(489,360,o),
(489,289,cs),
(489,0,l),
(526,0,l),
(526,295,ls),
(526,379,o),
(505,436,o),
(470,473,c),
(434,509,o),
(385,525,o),
(326,525,cs),
(237,525,o),
(157,479,o),
(120,396,c),
(116,396,l),
(114,517,l),
(79,517,l),
(79,0,l)
);
}
);
width = 595;
}
);
leftKerningGroup = m;
rightKerningGroup = h;
unicode = 110;
},
{
glyphname = o;
layers = (
{
layerId = "805E1B73-1F0E-4383-AACE-2240222288D4";
shapes = (
{
closed = 1;
nodes = (
(419,-10,o),
(495,18,o),
(547,67,cs),
(599,116,o),
(628,188,o),
(628,276,cs),
(628,369,o),
(598,440,o),
(543,489,cs),
(488,537,o),
(413,561,o),
(320,561,cs),
(224,561,o),
(146,533,o),
(94,484,cs),
(42,435,o),
(14,364,o),
(14,276,cs),
(14,184,o),
(45,112,o),
(99,64,cs),
(153,15,o),
(228,-10,o),
(320,-10,cs)
);
},
{
closed = 1;
nodes = (
(301,178,o),
(285,184,o),
(274,200,cs),
(263,215,o),
(257,239,o),
(257,276,cs),
(257,312,o),
(262,336,o),
(274,352,cs),
(285,367,o),
(300,373,o),
(320,373,cs),
(341,373,o),
(356,367,o),
(368,352,c),
(379,336,o),
(385,312,o),
(385,276,cs),
(385,239,o),
(379,215,o),
(368,200,cs),
(357,184,o),
(342,178,o),
(321,178,cs)
);
}
);
width = 641;
},
{
layerId = "61D7B067-829F-4380-BDB7-B27A2BACA267";
shapes = (
{
closed = 1;
nodes = (
(391,-9,o),
(457,18,o),
(504,66,cs),
(551,114,o),
(577,182,o),
(577,263,cs),
(577,347,o),
(551,414,o),
(504,462,cs),
(456,509,o),
(389,535,o),
(308,535,cs),
(225,535,o),
(158,508,o),
(111,460,cs),
(63,412,o),
(37,343,o),
(37,262,cs),
(37,179,o),
(64,112,o),
(112,65,cs),
(159,17,o),
(227,-9,o),
(308,-9,cs)
);
},
{
closed = 1;
nodes = (
(255,70,o),
(211,88,o),
(181,121,cs),
(151,154,o),
(133,203,o),
(133,262,cs),
(133,325,o),
(152,373,o),
(182,406,cs),
(212,438,o),
(256,457,o),
(308,457,cs),
(361,457,o),
(406,438,o),
(435,405,cs),
(464,372,o),
(481,323,o),
(481,263,cs),
(481,202,o),
(465,153,o),
(434,121,cs),
(403,88,o),
(360,70,o),
(308,70,cs)
);
}
);
width = 615;
},
{
layerId = "BADC4CB4-4A37-4FEF-A0FC-8F77938ABBAB";
shapes = (
{
closed = 1;
nodes = (
(379,-9,o),
(443,18,o),
(488,65,cs),
(532,112,o),
(558,178,o),
(558,258,cs),
(558,338,o),
(532,404,o),
(488,451,cs),
(443,498,o),
(379,525,o),
(303,525,cs),
(227,525,o),
(162,498,o),
(117,451,cs),
(72,403,o),
(47,336,o),
(47,257,cs),
(47,178,o),
(72,112,o),
(117,65,cs),
(162,18,o),
(227,-9,o),
(303,-9,cs)
);
},
{
closed = 1;
nodes = (
(236,27,o),
(182,50,o),
(144,90,cs),
(106,130,o),
(85,189,o),
(85,257,cs),
(85,329,o),
(106,387,o),
(145,427,cs),
(184,467,o),
(238,490,o),
(303,490,cs),
(370,490,o),
(425,467,o),
(462,427,cs),
(499,386,o),
(520,327,o),
(520,258,cs),
(520,187,o),
(499,129,o),
(460,89,cs),
(421,49,o),
(368,27,o),
(303,27,cs)
);
}
);
width = 604;
}
);
leftKerningGroup = c2;
rightKerningGroup = o;
unicode = 111;
},
{
glyphname = p;
layers = (
{
layerId = "805E1B73-1F0E-4383-AACE-2240222288D4";
shapes = (
{
closed = 1;
nodes = (
(285,-167,l),
(285,64,l),
(294,64,l),
(321,11,o),
(389,-10,o),
(445,-10,cs),
(516,-10,o),
(573,16,o),
(614,65,cs),
(655,114,o),
(678,186,o),
(678,275,cs),
(678,366,o),
(655,437,o),
(615,486,cs),
(574,534,o),
(516,561,o),
(445,561,cs),
(372,561,o),
(315,530,o),
(292,486,c),
(282,486,l),
(274,551,l),
(43,551,l),
(43,-167,l)
);
},
{
closed = 1;
nodes = (
(334,178,o),
(316,185,o),
(304,198,cs),
(292,211,o),
(285,233,o),
(285,261,cs),
(285,289,ls),
(285,316,o),
(291,336,o),
(303,351,cs),
(315,366,o),
(333,373,o),
(358,373,cs),
(386,373,o),
(405,362,o),
(417,345,cs),
(428,328,o),
(433,304,o),
(433,275,cs),
(433,246,o),
(427,222,o),
(415,205,cs),
(402,188,o),
(382,178,o),
(353,178,cs)
);
}
);
width = 695;
},
{
layerId = "61D7B067-829F-4380-BDB7-B27A2BACA267";
shapes = (
{
closed = 1;
nodes = (
(164,-167,l),
(164,76,l),
(169,76,l),
(218,-3,o),
(280,-9,o),
(360,-9,cs),
(429,-9,o),
(487,16,o),
(528,64,cs),
(568,111,o),
(592,179,o),
(592,263,cs),
(592,348,o),
(568,416,o),
(528,463,cs),
(487,510,o),
(429,535,o),
(360,535,cs),
(265,535,o),
(215,520,o),
(168,452,c),
(163,452,l),
(159,527,l),
(69,527,l),
(69,-167,l)
);
},
{
closed = 1;
nodes = (
(278,68,o),
(236,88,o),
(208,118,cs),
(180,148,o),
(164,191,o),
(164,236,cs),
(164,292,ls),
(164,336,o),
(179,377,o),
(207,408,cs),
(235,439,o),
(278,458,o),
(331,458,cs),
(382,458,o),
(423,439,o),
(451,406,cs),
(479,373,o),
(495,324,o),
(495,263,cs),
(495,202,o),
(479,154,o),
(451,120,cs),
(422,86,o),
(381,68,o),
(330,68,cs)
);
}
);
width = 631;
},
{
layerId = "BADC4CB4-4A37-4FEF-A0FC-8F77938ABBAB";
shapes = (
{
closed = 1;
nodes = (
(116,-167,l),
(116,122,l),
(119,122,l),
(153,34,o),
(236,-9,o),
(327,-9,cs),
(395,-9,o),
(453,16,o),
(494,63,cs),
(534,110,o),
(557,177,o),
(557,258,cs),
(557,341,o),
(534,408,o),
(494,454,cs),
(453,500,o),
(395,525,o),
(327,525,cs),
(223,525,o),
(147,473,o),
(119,397,c),
(116,397,l),
(114,517,l),
(79,517,l),
(79,-167,l)
);
},
{
closed = 1;
nodes = (
(256,24,o),
(205,49,o),
(170,86,cs),
(135,123,o),
(116,174,o),
(116,226,cs),
(116,293,ls),
(116,344,o),
(135,394,o),
(170,431,cs),
(205,467,o),
(256,491,o),
(320,491,cs),
(380,491,o),
(429,470,o),
(465,430,cs),
(500,390,o),
(519,333,o),
(519,258,cs),
(519,185,o),
(500,127,o),
(465,87,cs),
(429,46,o),
(380,24,o),
(320,24,cs)
);
}
);
width = 606;
}
);
leftKerningGroup = m;
rightKerningGroup = b;
unicode = 112;
},
{
glyphname = q;
layers = (
{
layerId = "805E1B73-1F0E-4383-AACE-2240222288D4";
shapes = (
{
closed = 1;
nodes = (
(652,-167,l),
(652,551,l),
(419,551,l),
(412,485,l),
(402,485,l),
(381,530,o),
(323,560,o),
(250,560,cs),
(179,560,o),
(121,534,o),
(80,486,cs),
(39,437,o),
(17,364,o),
(17,275,cs),
(17,186,o),
(39,114,o),
(80,65,cs),
(121,16,o),
(179,-10,o),
(250,-10,cs),
(304,-10,o),
(375,12,o),
(400,64,c),
(410,64,l),
(410,-167,l)
);
},
{
closed = 1;
nodes = (
(309,178,o),
(291,188,o),
(279,205,cs),
(267,221,o),
(262,246,o),
(262,275,cs),
(262,304,o),
(267,328,o),
(280,345,cs),
(292,362,o),
(313,372,o),
(341,372,cs),
(362,372,o),
(379,365,o),
(391,352,cs),
(403,339,o),
(409,317,o),
(409,288,cs),
(409,261,ls),
(409,233,o),
(404,213,o),
(392,199,cs),
(380,185,o),
(362,178,o),
(337,178,cs)
);
}
);
width = 695;
},
{
layerId = "61D7B067-829F-4380-BDB7-B27A2BACA267";
shapes = (
{
closed = 1;
nodes = (
(562,-167,l),
(562,527,l),
(472,527,l),
(469,453,l),
(464,453,l),
(417,521,o),
(367,536,o),
(271,536,cs),
(203,536,o),
(144,510,o),
(104,463,cs),
(63,416,o),
(40,348,o),
(40,264,cs),
(40,179,o),
(63,111,o),
(104,64,cs),
(144,17,o),
(202,-9,o),
(271,-9,cs),
(350,-9,o),
(414,-1,o),
(463,77,c),
(467,77,l),
(467,-167,l)
);
},
{
closed = 1;
nodes = (
(250,69,o),
(209,87,o),
(181,121,cs),
(152,155,o),
(137,203,o),
(137,264,cs),
(137,325,o),
(153,374,o),
(181,407,cs),
(209,440,o),
(251,459,o),
(302,459,cs),
(354,459,o),
(395,440,o),
(424,410,cs),
(452,380,o),
(467,337,o),
(467,293,cs),
(467,237,ls),
(467,192,o),
(452,150,o),
(424,119,cs),
(396,88,o),
(354,69,o),
(301,69,cs)
);
}
);
width = 631;
},
{
layerId = "BADC4CB4-4A37-4FEF-A0FC-8F77938ABBAB";
shapes = (
{
closed = 1;
nodes = (
(527,-167,l),
(527,517,l),
(493,517,l),
(491,398,l),
(488,398,l),
(460,475,o),
(384,526,o),
(280,526,cs),
(212,526,o),
(153,501,o),
(113,455,cs),
(73,409,o),
(49,342,o),
(49,259,cs),
(49,176,o),
(73,110,o),
(113,64,cs),
(153,18,o),
(211,-8,o),
(280,-8,cs),
(371,-8,o),
(455,36,o),
(488,124,c),
(490,124,l),
(490,-167,l)
);
},
{
closed = 1;
nodes = (
(227,26,o),
(177,47,o),
(142,88,cs),
(107,128,o),
(87,187,o),
(87,259,cs),
(87,334,o),
(107,392,o),
(142,432,cs),
(177,472,o),
(227,493,o),
(286,493,cs),
(351,493,o),
(403,469,o),
(437,433,cs),
(471,396,o),
(490,346,o),
(490,295,cs),
(490,227,ls),
(490,175,o),
(471,124,o),
(437,87,cs),
(403,50,o),
(351,26,o),
(286,26,cs)
);
}
);
width = 606;
}
);
leftKerningGroup = d2;
rightKerningGroup = q;
unicode = 113;
},
{
glyphname = r;
layers = (
{
layerId = "805E1B73-1F0E-4383-AACE-2240222288D4";
shapes = (
{
closed = 1;
nodes = (
(286,0,l),
(286,223,l),
(285,263,o),
(289,292,o),
(308,310,cs),
(327,328,o),
(357,337,o),
(408,337,cs),
(423,337,o),
(438,336,o),
(447,336,c),
(447,559,l),
(436,559,o),
(427,558,o),
(414,558,cs),
(351,558,o),
(303,542,o),
(280,479,c),
(271,479,l),
(263,551,l),
(43,551,l),
(43,0,l)
);
}
);
width = 461;
},
{
layerId = "61D7B067-829F-4380-BDB7-B27A2BACA267";
shapes = (
{
closed = 1;
nodes = (
(163,0,l),
(163,304,l),
(166,349,o),
(183,385,o),
(209,409,cs),
(235,433,o),
(272,445,o),
(317,445,cs),
(332,445,o),
(344,445,o),
(355,442,c),
(355,531,l),
(344,532,o),
(333,534,o),
(318,534,cs),
(246,534,o),
(186,497,o),
(163,432,c),
(159,432,l),
(154,527,l),
(69,527,l),
(69,0,l)
);
}
);
width = 372;
},
{
layerId = "BADC4CB4-4A37-4FEF-A0FC-8F77938ABBAB";
shapes = (
{
closed = 1;
nodes = (
(115,0,l),
(115,336,l),
(119,384,o),
(140,423,o),
(169,449,cs),
(198,475,o),
(237,488,o),
(281,488,cs),
(294,488,o),
(309,486,o),
(318,485,c),
(318,521,l),
(309,522,o),
(296,524,o),
(280,524,cs),
(205,524,o),
(140,481,o),
(117,413,c),
(115,413,l),
(111,517,l),
(79,517,l),
(79,0,l)
);
}
);
width = 337;
}
);
leftKerningGroup = m;
rightKerningGroup = r;
unicode = 114;
},
{
glyphname = s;
layers = (
{
layerId = "805E1B73-1F0E-4383-AACE-2240222288D4";
shapes = (
{
closed = 1;
nodes = (
(380,-10,o),
(452,8,o),
(501,41,cs),
(550,74,o),
(576,123,o),
(576,183,cs),
(576,238,o),
(562,278,o),
(528,307,cs),
(494,335,o),
(436,352,o),
(352,361,cs),
(319,365,o),
(297,368,o),
(283,371,cs),
(269,374,o),
(264,379,o),
(264,388,cs),
(264,395,o),
(268,398,o),
(273,401,cs),
(277,404,o),
(286,405,o),
(294,405,cs),
(315,405,o),
(325,397,o),
(328,384,c),
(562,384,l),
(558,439,o),
(529,482,o),
(483,513,cs),
(437,544,o),
(373,561,o),
(300,561,cs),
(215,561,o),
(146,542,o),
(99,508,cs),
(51,474,o),
(25,425,o),
(25,366,cs),
(25,309,o),
(41,269,o),
(80,242,cs),
(119,214,o),
(178,198,o),
(265,187,cs),
(292,184,o),
(308,183,o),
(319,180,cs),
(330,176,o),
(333,173,o),
(333,164,cs),
(333,153,o),
(325,146,o),
(297,146,cs),
(268,146,o),
(252,154,o),
(248,177,c),
(11,177,l),
(12,121,o),
(40,74,o),
(88,41,cs),
(136,8,o),
(204,-10,o),
(291,-10,cs)
);
}
);
width = 589;
},
{
layerId = "61D7B067-829F-4380-BDB7-B27A2BACA267";
shapes = (
{
closed = 1;
nodes = (
(338,-10,o),
(394,4,o),
(434,32,cs),
(473,59,o),
(494,98,o),
(494,149,cs),
(494,202,o),
(477,236,o),
(442,260,cs),
(407,284,o),
(356,296,o),
(288,304,cs),
(237,311,o),
(201,318,o),
(178,331,c),
(154,343,o),
(143,361,o),
(143,388,cs),
(143,415,o),
(156,434,o),
(177,448,cs),
(197,462,o),
(228,469,o),
(265,469,cs),
(337,469,o),
(385,442,o),
(390,375,c),
(482,375,l),
(479,424,o),
(458,465,o),
(422,493,cs),
(385,521,o),
(333,537,o),
(266,537,cs),
(201,537,o),
(147,522,o),
(109,494,cs),
(71,466,o),
(49,427,o),
(49,380,cs),
(49,331,o),
(65,298,o),
(101,275,c),
(136,251,o),
(187,239,o),
(259,230,cs),
(310,223,o),
(345,216,o),
(367,203,cs),
(389,190,o),
(398,172,o),
(398,141,cs),
(398,86,o),
(350,58,o),
(269,58,cs),
(185,58,o),
(131,92,o),
(127,159,c),
(33,159,l),
(36,108,o),
(57,65,o),
(97,36,cs),
(137,7,o),
(194,-10,o),
(266,-10,cs)
);
}
);
width = 530;
},
{
layerId = "BADC4CB4-4A37-4FEF-A0FC-8F77938ABBAB";
shapes = (
{
closed = 1;
nodes = (
(321,-10,o),
(372,4,o),
(407,29,cs),
(442,53,o),
(462,90,o),
(462,135,cs),
(462,188,o),
(443,221,o),
(408,242,cs),
(373,263,o),
(325,274,o),
(262,282,cs),
(205,289,o),
(164,298,o),
(136,315,cs),
(108,331,o),
(96,353,o),
(96,388,cs),
(96,423,o),
(111,447,o),
(139,466,cs),
(166,485,o),
(205,494,o),
(254,494,cs),
(346,494,o),
(409,459,o),
(414,371,c),
(451,371,l),
(448,419,o),
(430,458,o),
(397,485,cs),
(364,512,o),
(316,527,o),
(253,527,cs),
(196,527,o),
(147,513,o),
(112,489,cs),
(77,464,o),
(59,429,o),
(59,385,cs),
(59,340,o),
(75,309,o),
(109,288,cs),
(143,267,o),
(190,255,o),
(257,247,cs),
(317,239,o),
(358,229,o),
(386,212,cs),
(413,195,o),
(424,171,o),
(424,132,cs),
(424,60,o),
(361,23,o),
(257,23,cs),
(153,23,o),
(84,68,o),
(79,152,c),
(42,152,l),
(45,104,o),
(65,63,o),
(101,35,cs),
(137,6,o),
(190,-10,o),
(257,-10,cs)
);
}
);
width = 508;
}
);
leftKerningGroup = s2;
rightKerningGroup = s;
unicode = 115;
},
{
glyphname = t;
layers = (
{
layerId = "805E1B73-1F0E-4383-AACE-2240222288D4";
shapes = (
{
closed = 1;
nodes = (
(440,0,l),
(440,196,l),
(372,196,ls),
(355,196,o),
(339,199,o),
(339,222,cs),
(339,362,l),
(440,362,l),
(440,551,l),
(339,551,l),
(339,705,l),
(98,678,l),
(98,551,l),
(12,551,l),
(12,362,l),
(98,362,l),
(98,167,ls),
(98,55,o),
(148,0,o),
(264,0,cs)
);
}
);
width = 474;
},
{
layerId = "61D7B067-829F-4380-BDB7-B27A2BACA267";
shapes = (
{
closed = 1;
nodes = (
(341,0,l),
(341,81,l),
(270,81,ls),
(233,81,o),
(215,97,o),
(215,136,cs),
(215,450,l),
(340,450,l),
(340,527,l),
(214,527,l),
(214,694,l),
(120,680,l),
(120,527,l),
(17,527,l),
(17,450,l),
(120,450,l),
(120,118,ls),
(120,35,o),
(159,0,o),
(238,0,cs)
);
}
);
width = 371;
},
{
layerId = "BADC4CB4-4A37-4FEF-A0FC-8F77938ABBAB";
shapes = (
{
closed = 1;
nodes = (
(302,0,l),
(302,36,l),
(229,36,ls),
(185,36,o),
(166,56,o),
(166,103,cs),
(166,485,l),
(301,485,l),
(301,517,l),
(165,517,l),
(165,690,l),
(129,681,l),
(129,517,l),
(19,517,l),
(19,485,l),
(129,485,l),
(129,99,ls),
(129,28,o),
(164,0,o),
(227,0,cs)
);
}
);
width = 330;
}
);
leftKerningGroup = t2;
rightKerningGroup = t;
unicode = 116;
},
{
glyphname = u;
layers = (
{
layerId = "805E1B73-1F0E-4383-AACE-2240222288D4";
shapes = (
{
closed = 1;
nodes = (
(310,-11,o),
(372,19,o),
(397,76,c),
(407,76,l),
(415,0,l),
(648,0,l),
(648,551,l),
(407,551,l),
(407,246,ls),
(407,231,o),
(402,214,o),
(391,201,cs),
(380,188,o),
(363,178,o),
(338,178,cs),
(314,178,o),
(298,188,o),
(290,204,cs),
(281,220,o),
(277,244,o),
(277,273,cs),
(277,551,l),
(35,551,l),
(35,214,ls),
(35,138,o),
(52,82,o),
(87,45,cs),
(122,8,o),
(173,-11,o),
(241,-11,cs)
);
}
);
width = 692;
},
{
layerId = "61D7B067-829F-4380-BDB7-B27A2BACA267";
shapes = (
{
closed = 1;
nodes = (
(348,-9,o),
(403,5,o),
(452,80,c),
(458,80,l),
(462,0,l),
(553,0,l),
(553,527,l),
(458,527,l),
(458,251,ls),
(458,198,o),
(441,152,o),
(413,120,cs),
(384,87,o),
(343,69,o),
(294,69,cs),
(245,69,o),
(210,84,o),
(187,112,cs),
(164,139,o),
(154,181,o),
(154,234,cs),
(154,527,l),
(59,527,l),
(59,213,ls),
(59,137,o),
(78,82,o),
(114,46,c),
(149,9,o),
(200,-9,o),
(261,-9,cs)
);
}
);
width = 622;
},
{
layerId = "BADC4CB4-4A37-4FEF-A0FC-8F77938ABBAB";
shapes = (
{
closed = 1;
nodes = (
(364,-8,o),
(442,41,o),
(474,124,c),
(478,124,l),
(481,0,l),
(515,0,l),
(515,517,l),
(478,517,l),
(478,253,ls),
(478,184,o),
(457,127,o),
(421,88,cs),
(385,48,o),
(336,26,o),
(276,26,cs),
(217,26,o),
(175,43,o),
(147,75,cs),
(119,107,o),
(106,156,o),
(106,219,cs),
(106,517,l),
(69,517,l),
(69,212,ls),
(69,136,o),
(89,81,o),
(125,45,cs),
(160,9,o),
(210,-8,o),
(269,-8,cs)
);
}
);
width = 595;
}
);
leftKerningGroup = u;
rightKerningGroup = q;
unicode = 117;
},
{
glyphname = v;
layers = (
{
layerId = "805E1B73-1F0E-4383-AACE-2240222288D4";
shapes = (
{
closed = 1;
nodes = (
(481,0,l),
(665,551,l),
(409,551,l),
(352,277,l),
(335,181,l),
(327,181,l),
(311,277,l),
(253,551,l),
(-2,551,l),
(182,0,l)
);
}
);
width = 663;
},
{
layerId = "61D7B067-829F-4380-BDB7-B27A2BACA267";
shapes = (
{
closed = 1;
nodes = (
(337,0,l),
(542,527,l),
(441,527,l),
(332,221,l),
(281,74,l),
(276,74,l),
(225,221,l),
(116,527,l),
(15,527,l),
(220,0,l)
);
}
);
width = 557;
},
{
layerId = "BADC4CB4-4A37-4FEF-A0FC-8F77938ABBAB";
shapes = (
{
closed = 1;
nodes = (
(280,0,l),
(494,517,l),
(453,517,l),
(324,199,l),
(260,33,l),
(256,33,l),
(192,199,l),
(62,517,l),
(22,517,l),
(236,0,l)
);
}
);
width = 516;
}
);
unicode = 118;
},
{
glyphname = w;
layers = (
{
layerId = "805E1B73-1F0E-4383-AACE-2240222288D4";
shapes = (
{
closed = 1;
nodes = (
(422,0,l),
(438,145,l),
(450,279,l),
(457,279,l),
(470,145,l),
(485,0,l),
(789,0,l),
(914,551,l),
(682,551,l),
(645,327,l),
(631,204,l),
(625,204,l),
(616,327,l),
(591,551,l),
(339,551,l),
(311,327,l),
(301,208,l),
(293,208,l),
(280,327,l),
(245,551,l),
(2,551,l),
(123,0,l)
);
}
);
width = 916;
},
{
layerId = "61D7B067-829F-4380-BDB7-B27A2BACA267";
shapes = (
{
closed = 1;
nodes = (
(287,0,l),
(357,260,l),
(395,419,l),
(400,419,l),
(439,260,l),
(510,0,l),
(632,0,l),
(779,527,l),
(686,527,l),
(612,245,l),
(571,81,l),
(566,81,l),
(526,245,l),
(453,527,l),
(349,527,l),
(276,245,l),
(236,82,l),
(231,82,l),
(190,245,l),
(115,527,l),
(19,527,l),
(167,0,l)
);
}
);
width = 798;
},
{
layerId = "BADC4CB4-4A37-4FEF-A0FC-8F77938ABBAB";
shapes = (
{
closed = 1;
nodes = (
(234,0,l),
(325,306,l),
(373,475,l),
(377,475,l),
(427,306,l),
(521,0,l),
(569,0,l),
(726,517,l),
(688,517,l),
(599,212,l),
(548,32,l),
(543,32,l),
(490,212,l),
(398,517,l),
(353,517,l),
(262,212,l),
(211,32,l),
(206,32,l),
(154,212,l),
(64,517,l),
(26,517,l),
(184,0,l)
);
}
);
width = 752;
}
);
leftKerningGroup = w2;
rightKerningGroup = w;
unicode = 119;
},
{
glyphname = x;
layers = (
{
layerId = "805E1B73-1F0E-4383-AACE-2240222288D4";
shapes = (
{
closed = 1;
nodes = (
(268,0,l),
(338,122,l),
(350,146,l),
(357,146,l),
(369,122,l),
(436,0,l),
(719,0,l),
(525,287,l),
(705,551,l),
(431,551,l),
(375,441,l),
(365,420,l),
(358,420,l),
(348,441,l),
(295,551,l),
(10,551,l),
(198,281,l),
(-4,0,l)
);
}
);
width = 716;
},
{
layerId = "61D7B067-829F-4380-BDB7-B27A2BACA267";
shapes = (
{
closed = 1;
nodes = (
(120,0,l),
(268,194,l),
(285,217,l),
(290,217,l),
(306,194,l),
(450,0,l),
(563,0,l),
(353,274,l),
(545,527,l),
(436,527,l),
(307,350,l),
(293,328,l),
(288,328,l),
(273,350,l),
(142,527,l),
(30,527,l),
(226,272,l),
(12,0,l)
);
}
);
width = 576;
},
{
layerId = "BADC4CB4-4A37-4FEF-A0FC-8F77938ABBAB";
shapes = (
{
closed = 1;
nodes = (
(61,0,l),
(241,223,l),
(259,245,l),
(263,245,l),
(281,223,l),
(456,0,l),
(501,0,l),
(285,270,l),
(482,517,l),
(438,517,l),
(280,313,l),
(264,292,l),
(260,292,l),
(243,313,l),
(82,517,l),
(38,517,l),
(238,269,l),
(19,0,l)
);
}
);
width = 521;
}
);
unicode = 120;
},
{
glyphname = y;
layers = (
{
layerId = "805E1B73-1F0E-4383-AACE-2240222288D4";
shapes = (
{
closed = 1;
nodes = (
(183,-167,ls),
(243,-167,o),
(295,-159,o),
(340,-133,cs),
(384,-107,o),
(420,-64,o),
(448,8,cs),
(654,551,l),
(397,551,l),
(338,309,l),
(335,265,l),
(326,265,l),
(323,309,l),
(260,551,l),
(-4,551,l),
(226,15,l),
(226,90,l),
(217,66,l),
(205,38,o),
(185,27,o),
(140,27,cs),
(63,27,l),
(63,-167,l)
);
}
);
width = 651;
},
{
layerId = "61D7B067-829F-4380-BDB7-B27A2BACA267";
shapes = (
{
closed = 1;
nodes = (
(124,-167,ls),
(167,-167,o),
(202,-159,o),
(230,-140,cs),
(258,-121,o),
(279,-93,o),
(298,-49,cs),
(537,527,l),
(436,527,l),
(333,254,l),
(285,126,l),
(279,126,l),
(227,254,l),
(118,527,l),
(14,527,l),
(242,21,l),
(242,53,l),
(210,-24,ls),
(191,-68,o),
(166,-89,o),
(111,-89,cs),
(53,-89,l),
(53,-167,l)
);
}
);
width = 551;
},
{
layerId = "BADC4CB4-4A37-4FEF-A0FC-8F77938ABBAB";
shapes = (
{
closed = 1;
nodes = (
(101,-167,ls),
(137,-167,o),
(165,-159,o),
(187,-144,cs),
(209,-128,o),
(224,-104,o),
(239,-72,c),
(490,517,l),
(451,517,l),
(331,233,l),
(265,71,l),
(260,71,l),
(189,233,l),
(62,517,l),
(21,517,l),
(248,23,l),
(248,38,l),
(207,-59,ls),
(186,-110,o),
(157,-134,o),
(100,-134,cs),
(49,-134,l),
(49,-167,l)
);
}
);
width = 512;
}
);
leftKerningGroup = y2;
rightKerningGroup = y;
unicode = 121;
},
{
glyphname = z;
layers = (
{
layerId = "805E1B73-1F0E-4383-AACE-2240222288D4";
shapes = (
{
closed = 1;
nodes = (
(556,0,l),
(556,189,l),
(338,189,l),
(545,389,l),
(545,551,l),
(43,551,l),
(43,362,l),
(228,362,l),
(23,167,l),
(23,0,l)
);
}
);
width = 582;
},
{
layerId = "61D7B067-829F-4380-BDB7-B27A2BACA267";
shapes = (
{
closed = 1;
nodes = (
(495,0,l),
(495,76,l),
(148,76,l),
(483,459,l),
(483,527,l),
(39,527,l),
(39,450,l),
(361,450,l),
(25,68,l),
(25,0,l)
);
}
);
width = 521;
},
{
layerId = "BADC4CB4-4A37-4FEF-A0FC-8F77938ABBAB";
shapes = (
{
closed = 1;
nodes = (
(471,0,l),
(471,32,l),
(73,32,l),
(459,487,l),
(459,517,l),
(37,517,l),
(37,485,l),
(414,485,l),
(26,29,l),
(26,0,l)
);
}
);
width = 497;
}
);
leftKerningGroup = z2;
rightKerningGroup = z;
unicode = 122;
},
{
glyphname = braceleft;
layers = (
{
layerId = "805E1B73-1F0E-4383-AACE-2240222288D4";
shapes = (
{
closed = 1;
nodes = (
(434,-167,l),
(434,9,l),
(319,9,l),
(319,160,ls),
(319,224,o),
(302,276,o),
(225,308,c),
(225,311,l),
(254,319,o),
(277,333,o),
(294,353,cs),
(311,373,o),
(319,406,o),
(319,453,cs),
(319,616,l),
(434,616,l),
(434,793,l),
(253,793,ls),
(201,793,o),
(163,779,o),
(138,750,cs),
(113,721,o),
(100,685,o),
(100,643,cs),
(100,466,ls),
(100,422,o),
(80,390,o),
(37,390,cs),
(12,390,l),
(12,215,l),
(37,215,ls),
(78,215,o),
(100,186,o),
(100,141,cs),
(100,-17,ls),
(100,-59,o),
(113,-95,o),
(138,-124,cs),
(163,-153,o),
(201,-167,o),
(253,-167,cs)
);
}
);
width = 455;
},
{
layerId = "61D7B067-829F-4380-BDB7-B27A2BACA267";
shapes = (
{
closed = 1;
nodes = (
(367,-167,l),
(367,-94,l),
(211,-94,l),
(211,194,ls),
(211,254,o),
(183,301,o),
(134,310,c),
(134,314,l),
(155,317,o),
(174,327,o),
(189,346,cs),
(204,365,o),
(211,392,o),
(211,427,cs),
(211,720,l),
(367,720,l),
(367,793,l),
(196,793,ls),
(171,793,o),
(153,786,o),
(141,772,cs),
(129,758,o),
(123,741,o),
(123,720,cs),
(123,431,ls),
(123,378,o),
(95,348,o),
(60,348,cs),
(27,348,l),
(27,272,l),
(60,272,ls),
(95,272,o),
(123,243,o),
(123,190,cs),
(123,-94,ls),
(123,-115,o),
(129,-132,o),
(141,-146,cs),
(153,-160,o),
(171,-167,o),
(196,-167,cs)
);
}
);
width = 399;
},
{
layerId = "BADC4CB4-4A37-4FEF-A0FC-8F77938ABBAB";
shapes = (
{
closed = 1;
nodes = (
(341,-167,l),
(341,-135,l),
(169,-135,l),
(169,208,ls),
(169,267,o),
(136,310,o),
(99,311,c),
(99,315,l),
(116,316,o),
(132,325,o),
(147,344,cs),
(162,362,o),
(169,386,o),
(169,417,cs),
(169,761,l),
(341,761,l),
(341,793,l),
(174,793,ls),
(160,793,o),
(150,789,o),
(143,781,cs),
(136,773,o),
(133,763,o),
(133,750,cs),
(133,417,ls),
(133,361,o),
(101,331,o),
(70,331,cs),
(34,331,l),
(34,294,l),
(70,294,ls),
(101,294,o),
(133,265,o),
(133,209,cs),
(133,-124,ls),
(133,-137,o),
(136,-147,o),
(143,-155,cs),
(150,-163,o),
(160,-167,o),
(174,-167,cs)
);
}
);
width = 376;
}
);
unicode = 123;
},
{
glyphname = bar;
layers = (
{
layerId = "805E1B73-1F0E-4383-AACE-2240222288D4";
shapes = (
{
closed = 1;
nodes = (
(273,-67,l),
(273,729,l),
(56,729,l),
(56,-67,l)
);
}
);
width = 329;
},
{
layerId = "61D7B067-829F-4380-BDB7-B27A2BACA267";
shapes = (
{
closed = 1;
nodes = (
(177,-67,l),
(177,729,l),
(90,729,l),
(90,-67,l)
);
}
);
width = 267;
},
{
layerId = "BADC4CB4-4A37-4FEF-A0FC-8F77938ABBAB";
shapes = (
{
closed = 1;
nodes = (
(139,-67,l),
(139,729,l),
(103,729,l),
(103,-67,l)
);
}
);
width = 242;
}
);
unicode = 124;
},
{
glyphname = braceright;
layers = (
{
layerId = "805E1B73-1F0E-4383-AACE-2240222288D4";
shapes = (
{
closed = 1;
nodes = (
(22,793,l),
(22,617,l),
(136,617,l),
(136,466,ls),
(136,402,o),
(153,350,o),
(230,318,c),
(230,315,l),
(201,307,o),
(178,293,o),
(161,273,cs),
(144,253,o),
(136,220,o),
(136,173,cs),
(136,10,l),
(22,10,l),
(22,-167,l),
(202,-167,ls),
(254,-167,o),
(293,-153,o),
(318,-124,cs),
(343,-95,o),
(355,-59,o),
(355,-17,cs),
(355,160,ls),
(355,204,o),
(375,236,o),
(418,236,cs),
(444,236,l),
(444,411,l),
(418,411,ls),
(378,411,o),
(355,440,o),
(355,485,cs),
(355,643,ls),
(355,685,o),
(343,721,o),
(318,750,cs),
(293,779,o),
(254,793,o),
(202,793,cs)
);
}
);
width = 455;
},
{
layerId = "61D7B067-829F-4380-BDB7-B27A2BACA267";
shapes = (
{
closed = 1;
nodes = (
(32,793,l),
(32,720,l),
(187,720,l),
(187,432,ls),
(187,372,o),
(216,327,o),
(264,316,c),
(264,312,l),
(243,309,o),
(225,299,o),
(210,280,cs),
(195,261,o),
(187,234,o),
(187,199,cs),
(187,-94,l),
(32,-94,l),
(32,-167,l),
(202,-167,ls),
(227,-167,o),
(246,-160,o),
(258,-146,cs),
(269,-132,o),
(275,-115,o),
(275,-94,cs),
(275,195,ls),
(275,248,o),
(305,278,o),
(338,278,cs),
(371,278,l),
(371,354,l),
(338,354,ls),
(305,354,o),
(275,383,o),
(275,436,cs),
(275,720,ls),
(275,741,o),
(269,758,o),
(258,772,cs),
(246,786,o),
(227,793,o),
(202,793,cs)
);
}
);
width = 399;
},
{
layerId = "BADC4CB4-4A37-4FEF-A0FC-8F77938ABBAB";
shapes = (
{
closed = 1;
nodes = (
(36,793,l),
(36,761,l),
(208,761,l),
(208,418,ls),
(208,359,o),
(241,318,o),
(278,315,c),
(278,311,l),
(261,310,o),
(245,301,o),
(230,283,cs),
(215,264,o),
(208,240,o),
(208,209,cs),
(208,-135,l),
(36,-135,l),
(36,-167,l),
(203,-167,ls),
(217,-167,o),
(227,-163,o),
(234,-155,cs),
(241,-147,o),
(244,-137,o),
(244,-124,cs),
(244,209,ls),
(244,265,o),
(276,295,o),
(307,295,cs),
(343,295,l),
(343,332,l),
(307,332,ls),
(276,332,o),
(244,361,o),
(244,417,cs),
(244,750,ls),
(244,763,o),
(241,773,o),
(234,781,cs),
(227,789,o),
(217,793,o),
(203,793,cs)
);
}
);
width = 376;
}
);
unicode = 125;
},
{
glyphname = asciitilde;
layers = (
{
layerId = "805E1B73-1F0E-4383-AACE-2240222288D4";
shapes = (
{
closed = 1;
nodes = (
(208,258,l),
(207,269,o),
(209,282,o),
(217,294,cs),
(225,306,o),
(239,316,o),
(259,316,cs),
(290,316,o),
(313,298,o),
(343,280,cs),
(373,262,o),
(410,243,o),
(467,243,cs),
(503,243,o),
(545,255,o),
(577,291,cs),
(609,327,o),
(631,387,o),
(624,479,c),
(514,479,l),
(511,452,o),
(494,422,o),
(451,422,cs),
(415,422,o),
(388,439,o),
(360,456,c),
(331,472,o),
(299,490,o),
(251,490,cs),
(204,490,o),
(163,471,o),
(135,433,cs),
(107,395,o),
(90,337,o),
(97,258,c)
);
}
);
width = 636;
},
{
layerId = "61D7B067-829F-4380-BDB7-B27A2BACA267";
shapes = (
{
closed = 1;
nodes = (
(152,289,l),
(151,306,o),
(154,321,o),
(162,333,cs),
(169,344,o),
(182,350,o),
(198,350,cs),
(223,350,o),
(249,336,o),
(278,323,cs),
(307,310,o),
(340,295,o),
(377,295,cs),
(405,295,o),
(434,305,o),
(454,327,cs),
(474,349,o),
(487,385,o),
(483,437,c),
(430,437,l),
(430,398,o),
(410,375,o),
(373,375,cs),
(344,375,o),
(315,389,o),
(287,402,cs),
(258,415,o),
(229,429,o),
(196,429,cs),
(169,429,o),
(144,420,o),
(125,398,cs),
(106,376,o),
(95,341,o),
(99,289,c)
);
}
);
width = 636;
},
{
layerId = "BADC4CB4-4A37-4FEF-A0FC-8F77938ABBAB";
shapes = (
{
closed = 1;
nodes = (
(130,301,l),
(129,321,o),
(132,337,o),
(140,348,cs),
(147,359,o),
(159,364,o),
(174,364,cs),
(197,364,o),
(224,352,o),
(253,340,cs),
(281,328,o),
(313,316,o),
(341,316,cs),
(366,316,o),
(390,324,o),
(406,341,cs),
(421,357,o),
(430,384,o),
(427,421,c),
(397,421,l),
(398,377,o),
(378,357,o),
(342,357,cs),
(315,357,o),
(286,369,o),
(258,381,cs),
(230,393,o),
(202,405,o),
(175,405,cs),
(156,405,o),
(136,399,o),
(121,384,cs),
(106,368,o),
(96,342,o),
(99,301,c)
);
}
);
width = 636;
}
);
unicode = 126;
},
{
glyphname = exclamdown;
layers = (
{
layerId = "805E1B73-1F0E-4383-AACE-2240222288D4";
shapes = (
{
closed = 1;
nodes = (
(92,308,l),
(34,67,l),
(34,-178,l),
(272,-178,l),
(272,67,l),
(212,308,l)
);
},
{
closed = 1;
nodes = (
(77,560,o),
(33,518,o),
(33,455,cs),
(33,392,o),
(74,350,o),
(153,350,cs),
(229,350,o),
(273,392,o),
(273,455,cs),
(273,518,o),
(232,560,o),
(153,560,cs)
);
}
);
width = 306;
},
{
layerId = "61D7B067-829F-4380-BDB7-B27A2BACA267";
shapes = (
{
closed = 1;
nodes = (
(95,324,l),
(72,36,l),
(72,-202,l),
(167,-202,l),
(167,36,l),
(143,324,l)
);
},
{
closed = 1;
nodes = (
(86,534,o),
(64,513,o),
(64,484,cs),
(64,453,o),
(84,433,o),
(119,433,cs),
(154,433,o),
(175,453,o),
(175,484,cs),
(175,513,o),
(154,534,o),
(119,534,cs)
);
}
);
width = 239;
},
{
layerId = "BADC4CB4-4A37-4FEF-A0FC-8F77938ABBAB";
shapes = (
{
closed = 1;
nodes = (
(96,331,l),
(86,24,l),
(86,-212,l),
(125,-212,l),
(125,24,l),
(116,331,l)
);
},
{
closed = 1;
nodes = (
(89,524,o),
(76,512,o),
(76,495,cs),
(76,478,o),
(89,466,o),
(106,466,cs),
(123,466,o),
(136,478,o),
(136,495,cs),
(136,512,o),
(123,524,o),
(106,524,cs)
);
}
);
width = 212;
}
);
unicode = 161;
},
{
glyphname = cent;
layers = (
{
layerId = "805E1B73-1F0E-4383-AACE-2240222288D4";
shapes = (
{
closed = 1;
nodes = (
(406,79,o),
(479,101,o),
(531,141,cs),
(583,180,o),
(616,239,o),
(616,308,c),
(380,308,l),
(377,296,o),
(372,287,o),
(363,280,cs),
(354,272,o),
(343,268,o),
(326,268,cs),
(307,268,o),
(294,274,o),
(283,290,c),
(271,305,o),
(265,330,o),
(265,366,cs),
(265,397,o),
(270,420,o),
(279,437,cs),
(287,453,o),
(304,462,o),
(327,462,cs),
(356,462,o),
(375,448,o),
(379,420,c),
(616,420,l),
(616,488,o),
(588,546,o),
(538,587,cs),
(488,627,o),
(417,651,o),
(330,651,cs),
(237,651,o),
(159,624,o),
(105,576,cs),
(51,527,o),
(21,456,o),
(21,368,cs),
(21,281,o),
(50,208,o),
(103,158,cs),
(155,108,o),
(230,79,o),
(323,79,cs)
);
},
{
closed = 1;
nodes = (
(395,0,l),
(395,180,l),
(242,180,l),
(242,0,l)
);
},
{
closed = 1;
nodes = (
(395,536,l),
(395,729,l),
(242,729,l),
(242,536,l)
);
}
);
width = 637;
},
{
layerId = "61D7B067-829F-4380-BDB7-B27A2BACA267";
shapes = (
{
closed = 1;
nodes = (
(383,93,o),
(443,113,o),
(487,146,cs),
(531,179,o),
(560,228,o),
(565,288,c),
(471,288,l),
(466,253,o),
(449,224,o),
(422,204,cs),
(394,183,o),
(359,171,o),
(316,171,cs),
(264,171,o),
(222,189,o),
(192,222,cs),
(162,255,o),
(145,303,o),
(145,364,cs),
(145,423,o),
(161,471,o),
(190,505,cs),
(219,539,o),
(264,558,o),
(317,558,cs),
(396,558,o),
(454,521,o),
(469,449,c),
(562,449,l),
(557,505,o),
(531,552,o),
(488,585,cs),
(445,617,o),
(387,637,o),
(319,637,cs),
(238,637,o),
(170,610,o),
(123,562,cs),
(75,514,o),
(49,447,o),
(49,364,cs),
(49,283,o),
(74,214,o),
(121,167,cs),
(168,119,o),
(235,93,o),
(315,93,cs)
);
},
{
closed = 1;
nodes = (
(341,0,l),
(341,133,l),
(275,133,l),
(275,0,l)
);
},
{
closed = 1;
nodes = (
(341,593,l),
(341,729,l),
(275,729,l),
(275,593,l)
);
}
);
width = 611;
},
{
layerId = "BADC4CB4-4A37-4FEF-A0FC-8F77938ABBAB";
shapes = (
{
closed = 1;
nodes = (
(375,98,o),
(429,116,o),
(470,148,cs),
(510,180,o),
(538,225,o),
(545,280,c),
(508,280,l),
(501,236,o),
(479,200,o),
(444,174,cs),
(409,148,o),
(364,133,o),
(312,133,cs),
(247,133,o),
(192,155,o),
(155,195,cs),
(118,235,o),
(97,292,o),
(97,363,cs),
(97,432,o),
(118,491,o),
(155,532,cs),
(192,572,o),
(247,596,o),
(314,596,cs),
(410,596,o),
(485,549,o),
(505,460,c),
(542,460,l),
(534,511,o),
(508,554,o),
(469,584,cs),
(429,614,o),
(376,631,o),
(315,631,cs),
(239,631,o),
(174,604,o),
(130,557,cs),
(86,509,o),
(60,443,o),
(60,363,cs),
(60,283,o),
(85,217,o),
(129,171,cs),
(173,125,o),
(236,98,o),
(312,98,cs)
);
},
{
closed = 1;
nodes = (
(320,0,l),
(320,114,l),
(287,114,l),
(287,0,l)
);
},
{
closed = 1;
nodes = (
(320,616,l),
(320,729,l),
(287,729,l),
(287,616,l)
);
}
);
width = 600;
}
);
unicode = 162;
},
{
glyphname = sterling;
layers = (
{
layerId = "805E1B73-1F0E-4383-AACE-2240222288D4";
shapes = (
{
closed = 1;
nodes = (
(693,0,l),
(693,231,l),
(495,231,l),
(495,199,l),
(357,199,l),
(357,267,l),
(489,267,l),
(489,438,l),
(357,438,l),
(357,481,ls),
(357,497,o),
(360,510,o),
(368,518,cs),
(376,526,o),
(388,531,o),
(401,531,cs),
(428,531,o),
(447,517,o),
(447,488,cs),
(447,478,l),
(678,478,l),
(678,500,ls),
(678,571,o),
(653,631,o),
(605,673,cs),
(557,715,o),
(486,739,o),
(395,739,cs),
(310,739,o),
(239,717,o),
(188,674,cs),
(137,630,o),
(107,566,o),
(107,481,cs),
(107,438,l),
(30,438,l),
(30,267,l),
(107,267,l),
(107,199,l),
(30,199,l),
(30,0,l)
);
}
);
width = 725;
},
{
layerId = "61D7B067-829F-4380-BDB7-B27A2BACA267";
shapes = (
{
closed = 1;
nodes = (
(603,0,l),
(603,193,l),
(520,193,l),
(520,82,l),
(212,82,l),
(212,322,l),
(430,322,l),
(430,396,l),
(212,396,l),
(212,512,ls),
(212,556,o),
(224,591,o),
(248,616,cs),
(271,640,o),
(306,653,o),
(354,653,cs),
(441,653,o),
(496,608,o),
(496,517,cs),
(496,498,l),
(587,498,l),
(587,523,ls),
(587,588,o),
(565,642,o),
(525,679,cs),
(485,716,o),
(426,737,o),
(353,737,cs),
(281,737,o),
(223,718,o),
(181,680,cs),
(139,642,o),
(115,586,o),
(115,514,cs),
(115,396,l),
(28,396,l),
(28,322,l),
(115,322,l),
(115,82,l),
(28,82,l),
(28,0,l)
);
}
);
width = 640;
},
{
layerId = "BADC4CB4-4A37-4FEF-A0FC-8F77938ABBAB";
shapes = (
{
closed = 1;
nodes = (
(567,0,l),
(567,178,l),
(531,178,l),
(531,36,l),
(155,36,l),
(155,344,l),
(406,344,l),
(406,379,l),
(155,379,l),
(155,525,ls),
(155,580,o),
(171,623,o),
(201,654,cs),
(231,685,o),
(275,702,o),
(336,702,cs),
(445,702,o),
(515,642,o),
(515,529,cs),
(515,505,l),
(551,505,l),
(551,532,ls),
(551,596,o),
(530,646,o),
(494,682,c),
(457,717,o),
(404,736,o),
(336,736,cs),
(271,736,o),
(216,717,o),
(178,682,cs),
(140,646,o),
(119,594,o),
(119,527,cs),
(119,379,l),
(27,379,l),
(27,344,l),
(119,344,l),
(119,36,l),
(27,36,l),
(27,0,l)
);
}
);
width = 606;
}
);
unicode = 163;
},
{
glyphname = currency;
layers = (
{
layerId = "805E1B73-1F0E-4383-AACE-2240222288D4";
shapes = (
{
closed = 1;
nodes = (
(240,144,l),
(265,143,o),
(288,140,o),
(320,140,cs),
(344,140,o),
(375,141,o),
(402,144,c),
(500,48,l),
(631,180,l),
(542,267,l),
(553,296,o),
(556,324,o),
(556,352,cs),
(556,383,o),
(552,409,o),
(540,440,c),
(629,526,l),
(499,658,l),
(399,559,l),
(370,564,o),
(340,566,o),
(320,566,cs),
(300,566,o),
(270,564,o),
(242,559,c),
(143,658,l),
(12,526,l),
(102,440,l),
(91,413,o),
(88,385,o),
(88,352,cs),
(88,329,o),
(89,299,o),
(101,267,c),
(11,180,l),
(142,48,l)
);
},
{
closed = 1;
nodes = (
(311,318,o),
(301,321,o),
(294,326,cs),
(287,331,o),
(283,340,o),
(283,351,cs),
(283,362,o),
(287,370,o),
(294,377,cs),
(301,384,o),
(309,387,o),
(320,387,cs),
(332,387,o),
(341,384,o),
(348,378,cs),
(355,372,o),
(359,363,o),
(359,351,cs),
(359,342,o),
(356,332,o),
(349,327,cs),
(341,322,o),
(332,318,o),
(320,318,cs)
);
}
);
width = 642;
},
{
layerId = "61D7B067-829F-4380-BDB7-B27A2BACA267";
shapes = (
{
closed = 1;
nodes = (
(199,188,l),
(231,169,o),
(268,157,o),
(309,157,cs),
(349,157,o),
(389,168,o),
(418,189,c),
(527,80,l),
(581,133,l),
(475,239,l),
(499,270,o),
(511,310,o),
(511,350,cs),
(511,393,o),
(498,431,o),
(475,463,c),
(581,567,l),
(526,622,l),
(418,512,l),
(386,533,o),
(348,542,o),
(309,542,cs),
(268,542,o),
(230,531,o),
(201,512,c),
(92,622,l),
(38,567,l),
(143,463,l),
(120,432,o),
(107,393,o),
(107,350,cs),
(107,309,o),
(119,270,o),
(142,239,c),
(38,133,l),
(92,80,l)
);
},
{
closed = 1;
nodes = (
(274,233,o),
(243,245,o),
(222,266,cs),
(201,286,o),
(188,317,o),
(188,350,cs),
(188,385,o),
(201,414,o),
(222,435,cs),
(243,456,o),
(274,468,o),
(309,468,cs),
(344,468,o),
(374,456,o),
(396,435,cs),
(418,414,o),
(430,385,o),
(430,350,cs),
(430,317,o),
(417,286,o),
(396,266,cs),
(375,245,o),
(344,233,o),
(309,233,cs)
);
}
);
width = 618;
},
{
layerId = "BADC4CB4-4A37-4FEF-A0FC-8F77938ABBAB";
shapes = (
{
closed = 1;
nodes = (
(183,205,l),
(216,180,o),
(258,164,o),
(305,164,cs),
(350,164,o),
(393,179,o),
(425,206,c),
(537,93,l),
(561,115,l),
(449,229,l),
(477,260,o),
(493,304,o),
(493,349,cs),
(493,397,o),
(477,440,o),
(450,472,c),
(561,583,l),
(537,607,l),
(425,494,l),
(393,521,o),
(350,533,o),
(305,533,cs),
(256,533,o),
(215,518,o),
(184,494,c),
(72,607,l),
(48,583,l),
(159,472,l),
(131,440,o),
(115,396,o),
(115,349,cs),
(115,301,o),
(131,258,o),
(158,229,c),
(48,115,l),
(72,93,l)
);
},
{
closed = 1;
nodes = (
(260,199,o),
(221,214,o),
(194,242,c),
(166,269,o),
(150,306,o),
(150,349,cs),
(150,393,o),
(166,431,o),
(194,458,cs),
(222,485,o),
(261,501,o),
(305,501,cs),
(349,501,o),
(387,485,o),
(415,458,cs),
(442,431,o),
(458,393,o),
(458,349,cs),
(458,306,o),
(442,269,o),
(415,242,cs),
(388,214,o),
(349,199,o),
(305,199,cs)
);
}
);
width = 609;
}
);
unicode = 164;
},
{
glyphname = yen;
layers = (
{
layerId = "805E1B73-1F0E-4383-AACE-2240222288D4";
shapes = (
{
closed = 1;
nodes = (
(515,0,l),
(515,63,l),
(684,63,l),
(684,220,l),
(515,220,l),
(515,268,l),
(684,268,l),
(684,425,l),
(614,425,l),
(774,729,l),
(507,729,l),
(393,464,l),
(383,464,l),
(276,729,l),
(6,729,l),
(168,425,l),
(97,425,l),
(97,268,l),
(266,268,l),
(266,220,l),
(97,220,l),
(97,63,l),
(266,63,l),
(266,0,l)
);
}
);
width = 780;
},
{
layerId = "61D7B067-829F-4380-BDB7-B27A2BACA267";
shapes = (
{
closed = 1;
nodes = (
(390,0,l),
(390,132,l),
(577,132,l),
(577,200,l),
(390,200,l),
(390,297,l),
(577,297,l),
(577,365,l),
(434,365,l),
(652,729,l),
(547,729,l),
(344,378,l),
(339,378,l),
(137,729,l),
(31,729,l),
(251,365,l),
(106,365,l),
(106,297,l),
(293,297,l),
(293,200,l),
(106,200,l),
(106,132,l),
(293,132,l),
(293,0,l)
);
}
);
width = 683;
},
{
layerId = "BADC4CB4-4A37-4FEF-A0FC-8F77938ABBAB";
shapes = (
{
closed = 1;
nodes = (
(341,0,l),
(341,159,l),
(535,159,l),
(535,192,l),
(341,192,l),
(341,309,l),
(535,309,l),
(535,342,l),
(362,342,l),
(604,729,l),
(562,729,l),
(324,344,l),
(321,344,l),
(83,729,l),
(40,729,l),
(283,342,l),
(109,342,l),
(109,309,l),
(304,309,l),
(304,192,l),
(109,192,l),
(109,159,l),
(304,159,l),
(304,0,l)
);
}
);
width = 645;
}
);
unicode = 165;
},
{
glyphname = brokenbar;
layers = (
{
layerId = "805E1B73-1F0E-4383-AACE-2240222288D4";
shapes = (
{
closed = 1;
nodes = (
(273,370,l),
(273,729,l),
(56,729,l),
(56,370,l)
);
},
{
closed = 1;
nodes = (
(273,-67,l),
(273,292,l),
(56,292,l),
(56,-67,l)
);
}
);
width = 329;
},
{
layerId = "61D7B067-829F-4380-BDB7-B27A2BACA267";
shapes = (
{
closed = 1;
nodes = (
(177,404,l),
(177,729,l),
(90,729,l),
(90,404,l)
);
},
{
closed = 1;
nodes = (
(177,-67,l),
(177,258,l),
(90,258,l),
(90,-67,l)
);
}
);
width = 267;
},
{
layerId = "BADC4CB4-4A37-4FEF-A0FC-8F77938ABBAB";
shapes = (
{
closed = 1;
nodes = (
(139,417,l),
(139,729,l),
(103,729,l),
(103,417,l)
);
},
{
closed = 1;
nodes = (
(139,-67,l),
(139,245,l),
(103,245,l),
(103,-67,l)
);
}
);
width = 242;
}
);
unicode = 166;
},
{
glyphname = section;
layers = (
{
layerId = "805E1B73-1F0E-4383-AACE-2240222288D4";
shapes = (
{
closed = 1;
nodes = (
(359,-10,o),
(426,7,o),
(474,39,cs),
(521,70,o),
(548,116,o),
(548,173,cs),
(548,213,o),
(532,251,o),
(499,286,c),
(534,306,o),
(556,341,o),
(556,380,cs),
(556,425,o),
(542,457,o),
(513,482,cs),
(484,506,o),
(435,523,o),
(366,538,c),
(338,545,o),
(316,548,o),
(302,553,cs),
(288,558,o),
(280,562,o),
(280,570,cs),
(280,582,o),
(290,582,o),
(301,582,cs),
(318,582,o),
(328,575,o),
(328,564,c),
(555,564,l),
(548,615,o),
(523,659,o),
(480,690,cs),
(437,721,o),
(378,739,o),
(309,739,cs),
(230,739,o),
(165,721,o),
(120,690,cs),
(75,658,o),
(49,612,o),
(49,557,cs),
(49,514,o),
(61,476,o),
(101,447,c),
(60,418,o),
(40,382,o),
(40,338,cs),
(40,291,o),
(60,261,o),
(93,239,cs),
(125,217,o),
(171,203,o),
(222,191,c),
(262,180,o),
(284,176,o),
(297,172,c),
(309,167,o),
(313,162,o),
(313,157,cs),
(313,149,o),
(306,147,o),
(285,147,cs),
(262,147,o),
(246,154,o),
(245,177,c),
(18,177,l),
(18,122,o),
(44,75,o),
(90,42,cs),
(136,9,o),
(199,-10,o),
(279,-10,cs)
);
},
{
closed = 1;
nodes = (
(317,354,o),
(296,360,o),
(276,365,c),
(257,373,o),
(254,380,o),
(254,384,c),
(254,383,o),
(251,384,o),
(247,388,c),
(264,381,o),
(278,379,o),
(291,374,c),
(302,371,o),
(310,367,o),
(316,364,cs),
(322,360,o),
(325,357,o),
(325,352,cs),
(325,351,o),
(327,351,o),
(330,350,c)
);
}
);
width = 584;
},
{
layerId = "61D7B067-829F-4380-BDB7-B27A2BACA267";
shapes = (
{
closed = 1;
nodes = (
(330,-10,o),
(384,4,o),
(421,31,cs),
(458,58,o),
(480,97,o),
(480,146,cs),
(480,193,o),
(464,226,o),
(433,251,c),
(468,275,o),
(489,311,o),
(489,356,cs),
(489,407,o),
(473,438,o),
(442,462,cs),
(411,485,o),
(366,495,o),
(310,506,c),
(265,513,o),
(230,521,o),
(207,534,cs),
(184,547,o),
(173,565,o),
(173,592,cs),
(173,641,o),
(213,671,o),
(285,671,cs),
(352,671,o),
(395,646,o),
(399,579,c),
(489,579,l),
(486,628,o),
(466,668,o),
(432,696,cs),
(398,724,o),
(349,739,o),
(286,739,cs),
(225,739,o),
(173,724,o),
(138,697,cs),
(102,670,o),
(81,631,o),
(81,586,cs),
(81,539,o),
(98,507,o),
(134,482,c),
(95,455,o),
(72,416,o),
(72,372,cs),
(72,325,o),
(88,294,o),
(119,274,cs),
(150,253,o),
(195,239,o),
(251,230,cs),
(302,222,o),
(335,214,o),
(356,200,cs),
(377,186,o),
(386,167,o),
(386,139,cs),
(386,86,o),
(345,58,o),
(268,58,cs),
(193,58,o),
(143,89,o),
(138,157,c),
(47,157,l),
(50,106,o),
(71,65,o),
(108,36,cs),
(145,7,o),
(200,-10,o),
(265,-10,cs)
);
},
{
closed = 1;
nodes = (
(340,292,o),
(307,298,o),
(270,305,c),
(194,317,o),
(159,336,o),
(159,388,cs),
(159,413,o),
(174,438,o),
(198,455,c),
(222,446,o),
(252,441,o),
(285,434,c),
(324,427,o),
(351,419,o),
(370,407,cs),
(389,394,o),
(397,374,o),
(397,346,cs),
(397,318,o),
(386,299,o),
(365,280,c)
);
}
);
width = 551;
},
{
layerId = "BADC4CB4-4A37-4FEF-A0FC-8F77938ABBAB";
shapes = (
{
closed = 1;
nodes = (
(319,-10,o),
(367,3,o),
(400,28,cs),
(433,52,o),
(453,88,o),
(453,135,cs),
(453,184,o),
(436,216,o),
(407,237,c),
(442,262,o),
(463,299,o),
(463,347,cs),
(463,399,o),
(445,432,o),
(414,454,cs),
(383,476,o),
(339,485,o),
(288,493,cs),
(235,501,o),
(196,510,o),
(170,527,cs),
(144,543,o),
(131,566,o),
(131,601,cs),
(131,665,o),
(183,706,o),
(278,706,cs),
(365,706,o),
(422,673,o),
(427,585,c),
(463,585,l),
(462,633,o),
(444,671,o),
(413,698,cs),
(381,725,o),
(336,739,o),
(277,739,cs),
(222,739,o),
(176,725,o),
(144,700,cs),
(112,675,o),
(94,640,o),
(94,597,cs),
(94,549,o),
(112,519,o),
(147,496,c),
(108,471,o),
(84,429,o),
(84,385,cs),
(84,340,o),
(100,308,o),
(130,288,cs),
(160,267,o),
(203,254,o),
(262,246,cs),
(317,238,o),
(354,228,o),
(379,211,cs),
(404,194,o),
(415,169,o),
(415,132,cs),
(415,61,o),
(361,23,o),
(261,23,cs),
(166,23,o),
(103,64,o),
(96,149,c),
(59,149,l),
(62,101,o),
(81,61,o),
(115,34,cs),
(149,6,o),
(199,-10,o),
(260,-10,cs)
);
},
{
closed = 1;
nodes = (
(348,268,o),
(311,274,o),
(268,281,cs),
(168,296,o),
(121,320,o),
(121,389,cs),
(121,426,o),
(143,458,o),
(179,482,c),
(206,471,o),
(241,465,o),
(282,458,cs),
(333,450,o),
(368,440,o),
(392,424,c),
(415,407,o),
(425,381,o),
(425,344,cs),
(425,305,o),
(410,278,o),
(379,253,c)
);
}
);
width = 537;
}
);
unicode = 167;
},
{
glyphname = copyright;
layers = (
{
layerId = "805E1B73-1F0E-4383-AACE-2240222288D4";
shapes = (
{
closed = 1;
nodes = (
(539,-9,o),
(636,28,o),
(706,93,cs),
(776,158,o),
(817,252,o),
(817,365,cs),
(817,478,o),
(776,572,o),
(706,637,cs),
(636,702,o),
(539,740,o),
(426,740,cs),
(314,740,o),
(215,702,o),
(146,637,cs),
(77,572,o),
(35,478,o),
(35,365,cs),
(35,252,o),
(77,158,o),
(146,93,cs),
(215,28,o),
(314,-9,o),
(426,-9,cs)
);
},
{
closed = 1;
nodes = (
(339,79,o),
(265,108,o),
(213,158,cs),
(161,208,o),
(131,278,o),
(131,365,cs),
(131,452,o),
(161,524,o),
(213,574,cs),
(265,624,o),
(339,651,o),
(426,651,cs),
(514,651,o),
(587,624,o),
(639,574,cs),
(691,524,o),
(721,452,o),
(721,365,cs),
(721,278,o),
(691,208,o),
(640,158,cs),
(588,108,o),
(514,79,o),
(426,79,cs)
);
},
{
closed = 1;
nodes = (
(490,160,o),
(543,176,o),
(580,205,cs),
(617,233,o),
(640,273,o),
(641,324,c),
(473,324,l),
(469,305,o),
(456,295,o),
(432,295,cs),
(419,295,o),
(407,298,o),
(399,310,cs),
(390,322,o),
(385,339,o),
(385,366,cs),
(385,387,o),
(388,404,o),
(396,416,cs),
(403,428,o),
(415,435,o),
(432,435,cs),
(455,435,o),
(469,424,o),
(472,404,c),
(641,404,l),
(641,451,o),
(621,493,o),
(586,523,cs),
(550,553,o),
(499,570,o),
(435,570,cs),
(367,570,o),
(311,550,o),
(272,515,cs),
(233,480,o),
(211,430,o),
(211,366,cs),
(211,303,o),
(233,253,o),
(270,217,cs),
(307,181,o),
(364,160,o),
(429,160,cs)
);
}
);
width = 852;
},
{
layerId = "61D7B067-829F-4380-BDB7-B27A2BACA267";
shapes = (
{
closed = 1;
nodes = (
(546,-10,o),
(641,28,o),
(709,93,cs),
(777,158,o),
(815,251,o),
(815,364,cs),
(815,476,o),
(777,570,o),
(709,635,cs),
(641,699,o),
(546,737,o),
(434,737,cs),
(322,737,o),
(227,699,o),
(160,635,cs),
(92,570,o),
(53,476,o),
(53,364,cs),
(53,251,o),
(92,158,o),
(160,93,cs),
(227,28,o),
(322,-10,o),
(434,-10,cs)
);
},
{
closed = 1;
nodes = (
(337,38,o),
(255,71,o),
(197,128,cs),
(139,185,o),
(105,267,o),
(105,364,cs),
(105,461,o),
(139,543,o),
(197,600,cs),
(255,657,o),
(337,690,o),
(434,690,cs),
(531,690,o),
(615,657,o),
(672,600,cs),
(729,543,o),
(763,461,o),
(763,364,cs),
(763,267,o),
(729,185,o),
(672,128,cs),
(615,71,o),
(531,38,o),
(434,38,cs)
);
},
{
closed = 1;
nodes = (
(492,160,o),
(538,175,o),
(571,201,cs),
(603,227,o),
(624,263,o),
(628,307,c),
(555,307,l),
(547,252,o),
(502,221,o),
(441,221,cs),
(404,221,o),
(372,234,o),
(350,259,cs),
(328,283,o),
(315,319,o),
(315,363,cs),
(315,406,o),
(327,442,o),
(349,467,cs),
(371,492,o),
(402,506,o),
(442,506,cs),
(497,506,o),
(542,481,o),
(554,426,c),
(626,426,l),
(623,467,o),
(602,503,o),
(571,528,cs),
(539,553,o),
(495,567,o),
(444,567,cs),
(383,567,o),
(332,547,o),
(297,512,cs),
(261,476,o),
(241,424,o),
(241,363,cs),
(241,302,o),
(260,251,o),
(295,216,cs),
(330,180,o),
(380,160,o),
(440,160,cs)
);
}
);
width = 868;
},
{
layerId = "BADC4CB4-4A37-4FEF-A0FC-8F77938ABBAB";
shapes = (
{
closed = 1;
nodes = (
(549,-10,o),
(643,28,o),
(710,93,cs),
(777,158,o),
(815,251,o),
(815,363,cs),
(815,475,o),
(777,569,o),
(710,634,cs),
(643,698,o),
(549,736,o),
(437,736,cs),
(325,736,o),
(232,698,o),
(165,634,cs),
(98,569,o),
(60,475,o),
(60,363,cs),
(60,251,o),
(98,158,o),
(165,93,cs),
(232,28,o),
(325,-10,o),
(437,-10,cs)
);
},
{
closed = 1;
nodes = (
(336,22,o),
(250,57,o),
(190,117,cs),
(130,176,o),
(95,262,o),
(95,363,cs),
(95,466,o),
(130,550,o),
(190,610,cs),
(250,670,o),
(336,705,o),
(437,705,cs),
(540,705,o),
(625,670,o),
(685,610,cs),
(745,550,o),
(780,466,o),
(780,363,cs),
(780,262,o),
(745,176,o),
(685,117,cs),
(625,57,o),
(540,22,o),
(437,22,cs)
);
},
{
closed = 1;
nodes = (
(493,160,o),
(535,174,o),
(567,199,cs),
(598,223,o),
(618,259,o),
(623,300,c),
(587,300,l),
(578,232,o),
(520,192,o),
(445,192,cs),
(397,192,o),
(358,209,o),
(331,238,cs),
(303,267,o),
(288,310,o),
(288,362,cs),
(288,413,o),
(303,456,o),
(331,487,cs),
(358,518,o),
(397,534,o),
(446,534,cs),
(513,534,o),
(571,502,o),
(586,435,c),
(620,435,l),
(616,474,o),
(596,507,o),
(566,530,cs),
(536,553,o),
(493,566,o),
(448,566,cs),
(389,566,o),
(341,546,o),
(306,510,cs),
(271,474,o),
(252,423,o),
(252,362,cs),
(252,302,o),
(272,251,o),
(305,216,cs),
(338,180,o),
(386,160,o),
(445,160,cs)
);
}
);
width = 875;
}
);
unicode = 169;
},
{
glyphname = ordfeminine;
layers = (
{
hints = (
{
horizontal = 1;
place = (485,107);
type = Stem;
},
{
horizontal = 1;
place = (627,83);
type = Stem;
},
{
horizontal = 1;
place = (745,117);
type = Stem;
},
{
place = (15,160);
type = Stem;
}
);
layerId = "805E1B73-1F0E-4383-AACE-2240222288D4";
shapes = (
{
closed = 1;
nodes = (
(209,359,o),
(256,385,o),
(268,418,c),
(274,418,l),
(274,416,ls),
(274,371,o),
(331,360,o),
(371,360,cs),
(397,360,o),
(430,366,o),
(447,379,c),
(447,470,l),
(442,468,o),
(438,467,o),
(434,467,cs),
(425,467,o),
(422,472,o),
(422,482,cs),
(422,600,ls),
(422,706,o),
(336,737,o),
(229,737,cs),
(132,737,o),
(33,704,o),
(33,599,c),
(181,599,l),
(178,618,o),
(210,620,o),
(222,620,cs),
(249,620,o),
(262,612,o),
(262,598,cs),
(262,585,l),
(185,585,ls),
(99,585,o),
(15,559,o),
(15,465,cs),
(15,393,o),
(78,359,o),
(148,359,cs)
);
},
{
closed = 1;
nodes = (
(189,469,o),
(175,475,o),
(175,486,cs),
(175,502,o),
(199,502,o),
(218,502,cs),
(263,502,l),
(263,495,ls),
(263,471,o),
(232,469,o),
(215,469,cs)
);
}
);
width = 454;
},
{
hints = (
{
horizontal = 1;
place = (468,53);
type = Stem;
},
{
horizontal = 1;
place = (632,51);
type = Stem;
},
{
horizontal = 1;
place = (775,56);
type = Stem;
},
{
place = (25,71);
type = Stem;
},
{
place = (36,68);
type = Stem;
},
{
place = (282,71);
type = Stem;
}
);
layerId = "61D7B067-829F-4380-BDB7-B27A2BACA267";
shapes = (
{
closed = 1;
nodes = (
(216,374,o),
(267,403,o),
(283,428,c),
(286,428,l),
(286,426,ls),
(286,390,o),
(314,374,o),
(348,374,cs),
(365,374,o),
(381,378,o),
(392,386,c),
(392,431,l),
(387,426,o),
(379,425,o),
(372,425,cs),
(359,425,o),
(353,431,o),
(353,451,cs),
(353,614,ls),
(353,705,o),
(287,737,o),
(198,737,cs),
(121,737,o),
(41,708,o),
(36,624,c),
(104,624,l),
(105,668,o),
(154,681,o),
(195,681,cs),
(255,681,o),
(282,655,o),
(282,613,cs),
(282,589,l),
(179,589,ls),
(104,589,o),
(25,558,o),
(25,475,cs),
(25,406,o),
(86,374,o),
(150,374,cs)
);
},
{
closed = 1;
nodes = (
(124,427,o),
(96,447,o),
(96,482,cs),
(96,533,o),
(147,538,o),
(192,538,cs),
(282,538,l),
(282,503,ls),
(282,449,o),
(229,427,o),
(176,427,cs)
);
}
);
width = 403;
},
{
hints = (
{
horizontal = 1;
place = (460,26);
type = Stem;
},
{
horizontal = 1;
place = (641,25);
type = Stem;
},
{
horizontal = 1;
place = (790,26);
type = Stem;
},
{
place = (29,28);
type = Stem;
},
{
place = (38,28);
type = Stem;
},
{
place = (291,28);
type = Stem;
}
);
layerId = "BADC4CB4-4A37-4FEF-A0FC-8F77938ABBAB";
shapes = (
{
closed = 1;
nodes = (
(219,381,o),
(274,411,o),
(291,457,c),
(293,457,l),
(293,429,ls),
(293,400,o),
(306,381,o),
(337,381,cs),
(348,381,o),
(356,384,o),
(364,389,c),
(364,413,l),
(359,408,o),
(350,405,o),
(342,405,cs),
(326,405,o),
(319,412,o),
(319,436,cs),
(319,621,ls),
(319,704,o),
(264,737,o),
(183,737,cs),
(117,737,o),
(43,710,o),
(38,636,c),
(66,636,l),
(71,695,o),
(129,711,o),
(182,711,cs),
(258,711,o),
(291,676,o),
(291,619,cs),
(291,587,l),
(177,587,ls),
(105,587,o),
(29,563,o),
(29,480,cs),
(29,412,o),
(89,381,o),
(151,381,cs)
);
},
{
closed = 1;
nodes = (
(92,407,o),
(57,435,o),
(57,482,cs),
(57,548,o),
(123,562,o),
(179,562,cs),
(291,562,l),
(291,507,ls),
(291,436,o),
(223,407,o),
(157,407,cs)
);
}
);
width = 377;
}
);
unicode = 170;
},
{
glyphname = guillemotleft;
layers = (
{
layerId = "805E1B73-1F0E-4383-AACE-2240222288D4";
shapes = (
{
closed = 1;
nodes = (
(345,63,l),
(239,308,l),
(345,551,l),
(141,551,l),
(9,308,l),
(141,63,l)
);
},
{
closed = 1;
nodes = (
(639,63,l),
(534,308,l),
(639,551,l),
(435,551,l),
(304,308,l),
(435,63,l)
);
}
);
width = 650;
},
{
layerId = "61D7B067-829F-4380-BDB7-B27A2BACA267";
shapes = (
{
closed = 1;
nodes = (
(241,75,l),
(130,302,l),
(241,527,l),
(159,527,l),
(36,302,l),
(159,75,l)
);
},
{
closed = 1;
nodes = (
(428,75,l),
(317,302,l),
(428,527,l),
(346,527,l),
(223,302,l),
(346,75,l)
);
}
);
width = 465;
},
{
layerId = "BADC4CB4-4A37-4FEF-A0FC-8F77938ABBAB";
shapes = (
{
closed = 1;
nodes = (
(200,80,l),
(87,299,l),
(200,517,l),
(166,517,l),
(46,299,l),
(166,80,l)
);
},
{
closed = 1;
nodes = (
(345,80,l),
(232,299,l),
(345,517,l),
(311,517,l),
(191,299,l),
(311,80,l)
);
}
);
width = 391;
}
);
leftKerningGroup = guillemotleft;
unicode = 171;
},
{
glyphname = logicalnot;
layers = (
{
layerId = "805E1B73-1F0E-4383-AACE-2240222288D4";
shapes = (
{
closed = 1;
nodes = (
(550,129,l),
(550,444,l),
(71,444,l),
(71,258,l),
(365,258,l),
(365,129,l)
);
}
);
width = 636;
},
{
layerId = "61D7B067-829F-4380-BDB7-B27A2BACA267";
shapes = (
{
closed = 1;
nodes = (
(539,139,l),
(539,407,l),
(57,407,l),
(57,331,l),
(464,331,l),
(464,139,l)
);
}
);
width = 636;
},
{
layerId = "BADC4CB4-4A37-4FEF-A0FC-8F77938ABBAB";
shapes = (
{
closed = 1;
nodes = (
(534,143,l),
(534,392,l),
(52,392,l),
(52,360,l),
(503,360,l),
(503,143,l)
);
}
);
width = 636;
}
);
unicode = 172;
},
{
glyphname = registered;
layers = (
{
layerId = "805E1B73-1F0E-4383-AACE-2240222288D4";
shapes = (
{
closed = 1;
nodes = (
(379,201,o),
(448,228,o),
(499,276,cs),
(550,323,o),
(580,390,o),
(580,470,cs),
(580,551,o),
(550,617,o),
(499,665,cs),
(448,712,o),
(379,738,o),
(302,738,cs),
(226,738,o),
(157,712,o),
(107,665,cs),
(57,617,o),
(25,551,o),
(25,470,cs),
(25,390,o),
(57,323,o),
(107,276,cs),
(157,228,o),
(226,201,o),
(302,201,cs)
);
},
{
closed = 1;
nodes = (
(243,258,o),
(189,279,o),
(150,315,cs),
(110,351,o),
(86,404,o),
(86,468,cs),
(86,531,o),
(111,585,o),
(151,622,cs),
(191,659,o),
(246,680,o),
(303,680,cs),
(364,680,o),
(417,659,o),
(457,622,cs),
(496,585,o),
(521,532,o),
(521,469,cs),
(521,405,o),
(496,352,o),
(457,316,cs),
(417,279,o),
(362,258,o),
(302,258,cs)
);
},
{
closed = 1;
nodes = (
(284,338,l),
(284,527,l),
(314,527,ls),
(327,527,o),
(337,522,o),
(337,507,cs),
(337,498,o),
(331,490,o),
(314,490,cs),
(268,490,l),
(268,426,l),
(307,426,ls),
(328,426,o),
(336,416,o),
(336,399,cs),
(336,368,ls),
(336,356,o),
(337,345,o),
(340,338,c),
(447,338,l),
(443,347,o),
(443,359,o),
(443,371,cs),
(443,413,ls),
(443,441,o),
(432,455,o),
(403,463,c),
(403,464,l),
(430,473,o),
(448,498,o),
(448,527,cs),
(448,571,o),
(417,604,o),
(336,604,cs),
(178,604,l),
(178,338,l)
);
}
);
width = 605;
},
{
layerId = "61D7B067-829F-4380-BDB7-B27A2BACA267";
shapes = (
{
closed = 1;
nodes = (
(392,222,o),
(457,249,o),
(504,294,cs),
(551,339,o),
(579,405,o),
(579,481,cs),
(579,557,o),
(551,621,o),
(504,667,cs),
(457,713,o),
(392,738,o),
(316,738,cs),
(243,738,o),
(178,713,o),
(131,667,cs),
(84,621,o),
(56,557,o),
(56,481,cs),
(56,404,o),
(85,339,o),
(131,294,cs),
(177,249,o),
(243,222,o),
(316,222,cs)
);
},
{
closed = 1;
nodes = (
(256,258,o),
(199,281,o),
(160,320,cs),
(120,359,o),
(96,414,o),
(96,479,cs),
(96,544,o),
(119,601,o),
(159,641,cs),
(199,680,o),
(255,702,o),
(318,702,cs),
(381,702,o),
(436,680,o),
(476,641,cs),
(516,601,o),
(540,545,o),
(540,480,cs),
(540,415,o),
(516,359,o),
(477,320,cs),
(437,281,o),
(381,258,o),
(317,258,cs)
);
},
{
closed = 1;
nodes = (
(260,346,l),
(260,576,l),
(339,576,ls),
(370,576,o),
(390,564,o),
(390,536,cs),
(390,509,o),
(372,493,o),
(339,493,cs),
(251,493,l),
(251,456,l),
(348,456,ls),
(379,456,o),
(386,442,o),
(386,421,cs),
(386,377,ls),
(386,357,o),
(386,353,o),
(390,346,c),
(439,346,l),
(435,357,o),
(435,369,o),
(435,374,cs),
(435,423,ls),
(435,452,o),
(423,470,o),
(394,477,c),
(394,478,l),
(422,486,o),
(441,510,o),
(441,543,cs),
(441,587,o),
(410,617,o),
(346,617,cs),
(211,617,l),
(211,346,l)
);
}
);
width = 635;
},
{
layerId = "BADC4CB4-4A37-4FEF-A0FC-8F77938ABBAB";
shapes = (
{
closed = 1;
nodes = (
(397,231,o),
(461,257,o),
(506,302,cs),
(551,346,o),
(578,410,o),
(578,485,cs),
(578,560,o),
(551,623,o),
(506,668,cs),
(461,712,o),
(397,738,o),
(322,738,cs),
(249,738,o),
(186,712,o),
(141,668,cs),
(96,623,o),
(68,560,o),
(68,485,cs),
(68,409,o),
(96,346,o),
(141,301,cs),
(185,256,o),
(249,231,o),
(322,231,cs)
);
},
{
closed = 1;
nodes = (
(260,258,o),
(203,281,o),
(164,321,cs),
(124,361,o),
(99,417,o),
(99,484,cs),
(99,551,o),
(123,607,o),
(163,647,cs),
(203,687,o),
(259,711,o),
(323,711,cs),
(387,711,o),
(444,687,o),
(484,648,cs),
(524,608,o),
(548,551,o),
(548,484,cs),
(548,417,o),
(524,361,o),
(484,321,cs),
(444,281,o),
(388,258,o),
(323,258,cs)
);
},
{
closed = 1;
nodes = (
(251,350,l),
(251,595,l),
(349,595,ls),
(386,595,o),
(411,580,o),
(411,547,cs),
(411,515,o),
(389,494,o),
(349,494,cs),
(244,494,l),
(244,468,l),
(364,468,ls),
(397,468,o),
(406,453,o),
(406,430,cs),
(406,380,ls),
(406,359,o),
(406,357,o),
(411,350,c),
(436,350,l),
(433,359,o),
(433,372,o),
(433,376,cs),
(433,427,ls),
(433,458,o),
(420,476,o),
(391,483,c),
(391,484,l),
(418,492,o),
(439,514,o),
(439,549,cs),
(439,594,o),
(409,622,o),
(350,622,cs),
(224,622,l),
(224,350,l)
);
}
);
width = 646;
}
);
unicode = 174;
},
{
glyphname = degree;
layers = (
{
layerId = "805E1B73-1F0E-4383-AACE-2240222288D4";
shapes = (
{
closed = 1;
nodes = (
(290,371,o),
(340,391,o),
(376,423,cs),
(411,454,o),
(433,500,o),
(433,556,cs),
(433,612,o),
(411,658,o),
(376,690,c),
(340,721,o),
(290,740,o),
(231,740,cs),
(171,740,o),
(121,721,o),
(86,690,cs),
(50,658,o),
(28,612,o),
(28,556,cs),
(28,500,o),
(50,454,o),
(86,423,c),
(121,391,o),
(171,371,o),
(231,371,cs)
);
},
{
closed = 1;
nodes = (
(207,513,o),
(187,528,o),
(187,556,cs),
(187,584,o),
(207,598,o),
(231,598,cs),
(254,598,o),
(274,584,o),
(274,556,cs),
(274,528,o),
(254,513,o),
(231,513,cs)
);
}
);
width = 461;
},
{
layerId = "61D7B067-829F-4380-BDB7-B27A2BACA267";
shapes = (
{
closed = 1;
nodes = (
(277,423,o),
(319,439,o),
(348,467,cs),
(377,494,o),
(396,533,o),
(396,580,cs),
(396,628,o),
(377,667,o),
(348,695,cs),
(319,722,o),
(277,738,o),
(229,738,cs),
(182,738,o),
(140,722,o),
(111,695,cs),
(82,667,o),
(63,628,o),
(63,580,cs),
(63,533,o),
(82,494,o),
(111,467,cs),
(140,439,o),
(182,423,o),
(229,423,cs)
);
},
{
closed = 1;
nodes = (
(176,488,o),
(135,525,o),
(135,580,cs),
(135,636,o),
(176,672,o),
(229,672,cs),
(284,672,o),
(325,636,o),
(325,580,cs),
(325,525,o),
(284,488,o),
(229,488,cs)
);
}
);
width = 459;
},
{
layerId = "BADC4CB4-4A37-4FEF-A0FC-8F77938ABBAB";
shapes = (
{
closed = 1;
nodes = (
(272,443,o),
(310,458,o),
(338,484,cs),
(365,510,o),
(382,546,o),
(382,590,cs),
(382,634,o),
(365,671,o),
(338,697,cs),
(310,723,o),
(272,737,o),
(229,737,cs),
(186,737,o),
(149,723,o),
(122,697,cs),
(94,671,o),
(77,634,o),
(77,590,cs),
(77,546,o),
(94,510,o),
(122,484,cs),
(149,458,o),
(186,443,o),
(229,443,cs)
);
},
{
closed = 1;
nodes = (
(164,478,o),
(114,523,o),
(114,590,cs),
(114,657,o),
(164,702,o),
(229,702,cs),
(296,702,o),
(345,657,o),
(345,590,cs),
(345,523,o),
(296,478,o),
(229,478,cs)
);
}
);
width = 459;
}
);
unicode = 176;
},
{
glyphname = plusminus;
layers = (
{
layerId = "805E1B73-1F0E-4383-AACE-2240222288D4";
shapes = (
{
closed = 1;
nodes = (
(413,206,l),
(413,317,l),
(578,317,l),
(578,502,l),
(413,502,l),
(413,613,l),
(220,613,l),
(220,502,l),
(57,502,l),
(57,317,l),
(220,317,l),
(220,206,l)
);
},
{
closed = 1;
nodes = (
(578,0,l),
(578,162,l),
(57,162,l),
(57,0,l)
);
}
);
width = 636;
},
{
layerId = "61D7B067-829F-4380-BDB7-B27A2BACA267";
shapes = (
{
closed = 1;
nodes = (
(357,177,l),
(357,351,l),
(565,351,l),
(565,427,l),
(357,427,l),
(357,601,l),
(278,601,l),
(278,427,l),
(71,427,l),
(71,351,l),
(278,351,l),
(278,177,l)
);
},
{
closed = 1;
nodes = (
(565,0,l),
(565,69,l),
(71,69,l),
(71,0,l)
);
}
);
width = 636;
},
{
layerId = "BADC4CB4-4A37-4FEF-A0FC-8F77938ABBAB";
shapes = (
{
closed = 1;
nodes = (
(335,165,l),
(335,365,l),
(560,365,l),
(560,398,l),
(335,398,l),
(335,596,l),
(301,596,l),
(301,398,l),
(76,398,l),
(76,365,l),
(301,365,l),
(301,165,l)
);
},
{
closed = 1;
nodes = (
(560,0,l),
(560,33,l),
(76,33,l),
(76,0,l)
);
}
);
width = 636;
}
);
unicode = 177;
},
{
glyphname = paragraph;
layers = (
{
layerId = "805E1B73-1F0E-4383-AACE-2240222288D4";
shapes = (
{
closed = 1;
nodes = (
(413,0,l),
(413,526,l),
(479,526,l),
(479,0,l),
(708,0,l),
(708,526,l),
(781,526,l),
(781,729,l),
(267,729,ls),
(186,729,o),
(122,709,o),
(81,673,cs),
(40,636,o),
(18,581,o),
(18,512,cs),
(18,449,o),
(39,399,o),
(80,364,c),
(120,328,o),
(179,308,o),
(252,311,c),
(252,0,l)
);
}
);
width = 801;
},
{
layerId = "61D7B067-829F-4380-BDB7-B27A2BACA267";
shapes = (
{
closed = 1;
nodes = (
(311,0,l),
(311,647,l),
(424,647,l),
(424,0,l),
(514,0,l),
(514,647,l),
(610,647,l),
(610,729,l),
(244,729,ls),
(181,729,o),
(131,713,o),
(96,684,cs),
(61,655,o),
(43,611,o),
(43,554,cs),
(43,501,o),
(60,457,o),
(94,426,cs),
(128,395,o),
(177,379,o),
(240,379,c),
(240,0,l)
);
}
);
width = 645;
},
{
layerId = "BADC4CB4-4A37-4FEF-A0FC-8F77938ABBAB";
shapes = (
{
closed = 1;
nodes = (
(271,0,l),
(271,695,l),
(402,695,l),
(402,0,l),
(437,0,l),
(437,695,l),
(543,695,l),
(543,729,l),
(236,729,ls),
(180,729,o),
(134,716,o),
(102,689,cs),
(70,662,o),
(52,623,o),
(52,571,cs),
(52,522,o),
(68,479,o),
(99,451,cs),
(130,422,o),
(176,406,o),
(235,406,c),
(235,0,l)
);
}
);
width = 583;
}
);
unicode = 182;
},
{
glyphname = periodcentered;
layers = (
{
layerId = "805E1B73-1F0E-4383-AACE-2240222288D4";
shapes = (
{
closed = 1;
nodes = (
(184,169,o),
(228,214,o),
(228,277,cs),
(228,340,o),
(184,385,o),
(119,385,cs),
(56,385,o),
(10,340,o),
(10,277,cs),
(10,214,o),
(56,169,o),
(119,169,cs)
);
}
);
width = 238;
},
{
layerId = "61D7B067-829F-4380-BDB7-B27A2BACA267";
shapes = (
{
closed = 1;
nodes = (
(147,209,o),
(174,237,o),
(174,277,cs),
(174,317,o),
(147,345,o),
(106,345,cs),
(65,345,o),
(36,317,o),
(36,277,cs),
(36,237,o),
(65,209,o),
(106,209,cs)
);
}
);
width = 211;
},
{
layerId = "BADC4CB4-4A37-4FEF-A0FC-8F77938ABBAB";
shapes = (
{
closed = 1;
nodes = (
(133,224,o),
(154,246,o),
(154,277,cs),
(154,308,o),
(133,330,o),
(100,330,cs),
(69,330,o),
(46,308,o),
(46,277,cs),
(46,246,o),
(69,224,o),
(100,224,cs)
);
}
);
width = 200;
}
);
unicode = 183;
},
{
glyphname = ordmasculine;
layers = (
{
guides = (
{
position = "{0, 886}";
}
);
hints = (
{
horizontal = 1;
place = (485,125);
type = Stem;
},
{
horizontal = 1;
place = (737,125);
type = Stem;
},
{
place = (13,160);
type = Stem;
},
{
place = (288,161);
type = Stem;
}
);
layerId = "805E1B73-1F0E-4383-AACE-2240222288D4";
shapes = (
{
closed = 1;
nodes = (
(358,360,o),
(449,428,o),
(449,549,cs),
(449,672,o),
(360,737,o),
(230,737,cs),
(100,737,o),
(13,671,o),
(13,549,cs),
(13,428,o),
(102,360,o),
(230,360,cs)
);
},
{
closed = 1;
nodes = (
(185,485,o),
(173,518,o),
(173,549,cs),
(173,581,o),
(184,612,o),
(230,612,cs),
(276,612,o),
(288,581,o),
(288,549,cs),
(288,517,o),
(276,485,o),
(230,485,cs)
);
}
);
width = 460;
},
{
guides = (
{
position = "{0, 886}";
}
);
hints = (
{
horizontal = 1;
place = (468,59);
type = Stem;
},
{
horizontal = 1;
place = (772,59);
type = Stem;
},
{
place = (25,72);
type = Stem;
},
{
place = (329,72);
type = Stem;
}
);
layerId = "61D7B067-829F-4380-BDB7-B27A2BACA267";
shapes = (
{
closed = 1;
nodes = (
(327,374,o),
(401,447,o),
(401,556,cs),
(401,666,o),
(329,737,o),
(213,737,cs),
(98,737,o),
(25,664,o),
(25,555,cs),
(25,446,o),
(100,374,o),
(213,374,cs)
);
},
{
closed = 1;
nodes = (
(136,433,o),
(97,486,o),
(97,555,cs),
(97,624,o),
(136,678,o),
(213,678,cs),
(290,678,o),
(329,624,o),
(329,555,cs),
(329,486,o),
(290,433,o),
(213,433,cs)
);
}
);
width = 426;
},
{
guides = (
{
position = "{0, 886}";
}
);
hints = (
{
horizontal = 1;
place = (459,27);
type = Stem;
},
{
horizontal = 1;
place = (789,26);
type = Stem;
},
{
place = (31,29);
type = Stem;
},
{
place = (350,29);
type = Stem;
}
);
layerId = "BADC4CB4-4A37-4FEF-A0FC-8F77938ABBAB";
shapes = (
{
closed = 1;
nodes = (
(314,381,o),
(379,456,o),
(379,559,cs),
(379,662,o),
(314,737,o),
(206,737,cs),
(98,737,o),
(31,661,o),
(31,558,cs),
(31,455,o),
(98,381,o),
(206,381,cs)
);
},
{
closed = 1;
nodes = (
(114,408,o),
(60,471,o),
(60,559,cs),
(60,647,o),
(113,711,o),
(206,711,cs),
(299,711,o),
(350,647,o),
(350,559,cs),
(350,472,o),
(298,408,o),
(206,408,cs)
);
}
);
width = 410;
}
);
unicode = 186;
},
{
glyphname = guillemotright;
layers = (
{
layerId = "805E1B73-1F0E-4383-AACE-2240222288D4";
shapes = (
{
closed = 1;
nodes = (
(306,551,l),
(411,306,l),
(306,63,l),
(510,63,l),
(641,306,l),
(510,551,l)
);
},
{
closed = 1;
nodes = (
(11,551,l),
(116,306,l),
(11,63,l),
(215,63,l),
(346,306,l),
(215,551,l)
);
}
);
width = 650;
},
{
layerId = "61D7B067-829F-4380-BDB7-B27A2BACA267";
shapes = (
{
closed = 1;
nodes = (
(224,527,l),
(335,300,l),
(224,75,l),
(305,75,l),
(429,300,l),
(305,527,l)
);
},
{
closed = 1;
nodes = (
(36,527,l),
(147,300,l),
(36,75,l),
(118,75,l),
(241,300,l),
(118,527,l)
);
}
);
width = 465;
},
{
layerId = "BADC4CB4-4A37-4FEF-A0FC-8F77938ABBAB";
shapes = (
{
closed = 1;
nodes = (
(192,517,l),
(305,298,l),
(192,80,l),
(225,80,l),
(345,298,l),
(225,517,l)
);
},
{
closed = 1;
nodes = (
(47,517,l),
(160,298,l),
(47,80,l),
(80,80,l),
(200,298,l),
(80,517,l)
);
}
);
width = 391;
}
);
leftKerningGroup = guillemotright2;
rightKerningGroup = guillemotright;
unicode = 187;
},
{
glyphname = questiondown;
layers = (
{
layerId = "805E1B73-1F0E-4383-AACE-2240222288D4";
shapes = (
{
closed = 1;
nodes = (
(189,304,l),
(189,302,ls),
(189,291,o),
(185,280,o),
(176,269,cs),
(159,248,o),
(132,225,o),
(101,197,cs),
(86,183,o),
(72,168,o),
(59,151,cs),
(33,118,o),
(13,77,o),
(13,25,cs),
(13,-38,o),
(34,-92,o),
(81,-129,cs),
(128,-166,o),
(200,-187,o),
(297,-187,cs),
(386,-187,o),
(460,-164,o),
(513,-124,cs),
(565,-83,o),
(595,-24,o),
(595,51,c),
(362,51,l),
(362,38,o),
(357,28,o),
(348,21,cs),
(339,13,o),
(325,9,o),
(309,9,cs),
(281,9,o),
(262,24,o),
(262,52,cs),
(262,63,o),
(266,73,o),
(273,83,cs),
(287,103,o),
(309,124,o),
(334,148,c),
(347,159,o),
(358,172,o),
(369,186,cs),
(389,213,o),
(405,245,o),
(405,284,cs),
(405,304,l)
);
},
{
closed = 1;
nodes = (
(223,560,o),
(180,518,o),
(180,455,cs),
(180,392,o),
(223,350,o),
(300,350,cs),
(376,350,o),
(419,392,o),
(419,455,cs),
(419,518,o),
(376,560,o),
(300,560,cs)
);
}
);
width = 604;
},
{
layerId = "61D7B067-829F-4380-BDB7-B27A2BACA267";
shapes = (
{
closed = 1;
nodes = (
(223,336,l),
(223,322,ls),
(223,303,o),
(219,285,o),
(210,269,cs),
(192,236,o),
(162,205,o),
(130,173,cs),
(114,157,o),
(99,140,o),
(86,121,cs),
(58,83,o),
(37,40,o),
(37,-17,cs),
(37,-76,o),
(57,-125,o),
(97,-159,cs),
(136,-193,o),
(192,-212,o),
(267,-212,cs),
(339,-212,o),
(400,-191,o),
(442,-154,cs),
(484,-117,o),
(508,-64,o),
(509,3,c),
(417,3,l),
(417,-37,o),
(403,-71,o),
(379,-95,cs),
(354,-119,o),
(317,-132,o),
(272,-132,cs),
(189,-132,o),
(136,-92,o),
(136,-9,cs),
(136,14,o),
(140,34,o),
(149,53,cs),
(166,90,o),
(192,122,o),
(223,153,cs),
(238,168,o),
(252,184,o),
(265,201,cs),
(290,234,o),
(310,272,o),
(310,320,cs),
(310,336,l)
);
},
{
closed = 1;
nodes = (
(233,534,o),
(213,513,o),
(213,484,cs),
(213,453,o),
(233,433,o),
(268,433,cs),
(301,433,o),
(323,453,o),
(323,484,cs),
(323,513,o),
(301,534,o),
(268,534,cs)
);
}
);
width = 540;
},
{
layerId = "BADC4CB4-4A37-4FEF-A0FC-8F77938ABBAB";
shapes = (
{
closed = 1;
nodes = (
(237,349,l),
(237,331,ls),
(237,308,o),
(232,288,o),
(223,269,cs),
(204,232,o),
(174,198,o),
(142,164,cs),
(125,147,o),
(110,128,o),
(96,109,cs),
(68,69,o),
(47,25,o),
(47,-34,cs),
(47,-91,o),
(67,-137,o),
(103,-170,cs),
(138,-202,o),
(190,-221,o),
(255,-221,cs),
(320,-221,o),
(376,-202,o),
(414,-166,cs),
(452,-130,o),
(474,-79,o),
(475,-16,c),
(439,-16,l),
(438,-67,o),
(422,-109,o),
(391,-140,cs),
(359,-171,o),
(314,-188,o),
(257,-188,cs),
(153,-188,o),
(86,-138,o),
(86,-34,cs),
(86,-6,o),
(91,19,o),
(100,41,cs),
(118,85,o),
(147,122,o),
(179,155,cs),
(195,172,o),
(210,189,o),
(224,207,cs),
(252,243,o),
(273,282,o),
(273,334,cs),
(273,349,l)
);
},
{
closed = 1;
nodes = (
(238,524,o),
(225,512,o),
(225,495,cs),
(225,478,o),
(238,466,o),
(255,466,cs),
(272,466,o),
(285,478,o),
(285,495,cs),
(285,512,o),
(272,524,o),
(255,524,cs)
);
}
);
width = 515;
}
);
unicode = 191;
},
{
glyphname = AE;
layers = (
{
layerId = "805E1B73-1F0E-4383-AACE-2240222288D4";
shapes = (
{
closed = 1;
nodes = (
(269,0,l),
(295,110,l),
(522,110,l),
(548,0,l),
(1013,0,l),
(1013,209,l),
(746,209,l),
(733,268,l),
(959,268,l),
(959,464,l),
(668,464,l),
(656,519,l),
(1009,519,l),
(1009,729,l),
(231,729,l),
(0,0,l)
);
},
{
closed = 1;
nodes = (
(382,450,l),
(404,542,l),
(412,542,l),
(434,450,l),
(466,300,l),
(350,300,l)
);
}
);
width = 1043;
},
{
layerId = "61D7B067-829F-4380-BDB7-B27A2BACA267";
shapes = (
{
closed = 1;
nodes = (
(124,0,l),
(191,174,l),
(554,174,l),
(620,0,l),
(965,0,l),
(965,86,l),
(694,86,l),
(594,332,l),
(915,332,l),
(915,412,l),
(565,412,l),
(472,644,l),
(964,644,l),
(964,729,l),
(304,729,l),
(19,0,l)
);
},
{
closed = 1;
nodes = (
(335,557,l),
(370,652,l),
(376,652,l),
(411,556,l),
(528,253,l),
(217,253,l)
);
}
);
width = 997;
},
{
layerId = "BADC4CB4-4A37-4FEF-A0FC-8F77938ABBAB";
shapes = (
{
closed = 1;
nodes = (
(68,0,l),
(150,199,l),
(566,199,l),
(649,0,l),
(946,0,l),
(946,37,l),
(674,37,l),
(539,358,l),
(898,358,l),
(898,392,l),
(525,392,l),
(399,693,l),
(946,693,l),
(946,729,l),
(333,729,l),
(27,0,l)
);
},
{
closed = 1;
nodes = (
(316,599,l),
(356,696,l),
(361,696,l),
(402,598,l),
(552,234,l),
(165,234,l)
);
}
);
width = 978;
}
);
leftKerningGroup = A2;
rightKerningGroup = E;
unicode = 198;
},
{
glyphname = multiply;
layers = (
{
layerId = "805E1B73-1F0E-4383-AACE-2240222288D4";
shapes = (
{
closed = 1;
nodes = (
(320,231,l),
(442,108,l),
(572,238,l),
(450,361,l),
(572,483,l),
(442,612,l),
(320,491,l),
(197,612,l),
(67,483,l),
(190,361,l),
(67,238,l),
(197,108,l)
);
}
);
width = 636;
},
{
layerId = "61D7B067-829F-4380-BDB7-B27A2BACA267";
shapes = (
{
closed = 1;
nodes = (
(318,307,l),
(477,148,l),
(531,202,l),
(372,361,l),
(531,519,l),
(477,573,l),
(318,415,l),
(160,573,l),
(106,519,l),
(265,361,l),
(106,202,l),
(160,148,l)
);
}
);
width = 636;
},
{
layerId = "BADC4CB4-4A37-4FEF-A0FC-8F77938ABBAB";
shapes = (
{
closed = 1;
nodes = (
(318,337,l),
(491,164,l),
(515,188,l),
(342,361,l),
(515,534,l),
(491,558,l),
(318,385,l),
(145,558,l),
(121,534,l),
(294,361,l),
(121,188,l),
(145,164,l)
);
}
);
width = 636;
}
);
unicode = 215;
},
{
glyphname = Thorn;
layers = (
{
layerId = "805E1B73-1F0E-4383-AACE-2240222288D4";
shapes = (
{
closed = 1;
nodes = (
(302,0,l),
(302,729,l),
(47,729,l),
(47,0,l)
);
},
{
closed = 1;
nodes = (
(397,100,ls),
(486,100,o),
(560,121,o),
(611,165,cs),
(662,208,o),
(690,274,o),
(690,359,cs),
(690,440,o),
(665,506,o),
(615,551,cs),
(565,595,o),
(490,619,o),
(397,619,cs),
(239,619,l),
(239,413,l),
(366,413,ls),
(402,413,o),
(432,406,o),
(432,359,cs),
(432,314,o),
(402,306,o),
(366,306,cs),
(239,306,l),
(239,100,l)
);
}
);
width = 702;
},
{
layerId = "61D7B067-829F-4380-BDB7-B27A2BACA267";
shapes = (
{
closed = 1;
nodes = (
(175,0,l),
(175,729,l),
(76,729,l),
(76,0,l)
);
},
{
closed = 1;
nodes = (
(349,132,ls),
(429,132,o),
(495,154,o),
(540,194,cs),
(585,233,o),
(610,291,o),
(610,363,cs),
(610,438,o),
(586,494,o),
(542,534,cs),
(497,574,o),
(431,595,o),
(350,595,cs),
(146,595,l),
(146,510,l),
(339,510,ls),
(447,510,o),
(509,459,o),
(509,363,cs),
(509,271,o),
(447,216,o),
(339,216,cs),
(146,216,l),
(146,132,l)
);
}
);
width = 642;
},
{
layerId = "BADC4CB4-4A37-4FEF-A0FC-8F77938ABBAB";
shapes = (
{
closed = 1;
nodes = (
(125,0,l),
(125,729,l),
(87,729,l),
(87,0,l)
);
},
{
closed = 1;
nodes = (
(330,145,ls),
(406,145,o),
(468,167,o),
(512,205,cs),
(555,243,o),
(579,298,o),
(579,365,cs),
(579,436,o),
(556,490,o),
(513,528,cs),
(469,566,o),
(407,585,o),
(331,585,cs),
(110,585,l),
(110,548,l),
(328,548,ls),
(464,548,o),
(539,480,o),
(539,365,cs),
(539,254,o),
(465,181,o),
(328,181,cs),
(110,181,l),
(110,145,l)
);
}
);
width = 619;
}
);
leftKerningGroup = B;
unicode = 222;
},
{
glyphname = germandbls;
layers = (
{
layerId = "805E1B73-1F0E-4383-AACE-2240222288D4";
shapes = (
{
closed = 1;
nodes = (
(353,0,l),
(353,477,ls),
(353,518,o),
(376,537,o),
(412,537,cs),
(443,537,o),
(461,516,o),
(461,491,cs),
(461,476,o),
(456,463,o),
(445,455,cs),
(433,446,o),
(417,440,o),
(397,440,cs),
(386,440,l),
(386,299,l),
(420,299,ls),
(463,299,o),
(484,287,o),
(484,244,cs),
(484,204,o),
(464,185,o),
(421,185,cs),
(398,185,l),
(398,0,l),
(455,0,ls),
(550,0,o),
(619,22,o),
(664,61,cs),
(709,100,o),
(731,152,o),
(731,216,cs),
(731,264,o),
(716,306,o),
(691,335,cs),
(666,364,o),
(632,384,o),
(592,388,c),
(592,398,l),
(647,413,o),
(682,466,o),
(682,537,cs),
(682,596,o),
(657,647,o),
(611,683,cs),
(565,718,o),
(497,739,o),
(413,739,cs),
(333,739,o),
(257,720,o),
(202,676,cs),
(146,631,o),
(111,563,o),
(111,460,cs),
(111,0,l)
);
},
{
closed = 1;
nodes = (
(270,368,l),
(270,551,l),
(11,551,l),
(11,368,l)
);
}
);
width = 740;
},
{
layerId = "61D7B067-829F-4380-BDB7-B27A2BACA267";
shapes = (
{
closed = 1;
nodes = (
(220,0,l),
(220,504,ls),
(220,601,o),
(271,657,o),
(364,657,cs),
(449,657,o),
(501,613,o),
(501,537,cs),
(501,501,o),
(489,471,o),
(466,451,cs),
(443,431,o),
(409,419,o),
(366,419,cs),
(329,419,l),
(329,356,l),
(395,356,ls),
(487,356,o),
(542,309,o),
(542,222,cs),
(542,129,o),
(486,77,o),
(377,77,cs),
(300,77,l),
(300,0,l),
(389,0,ls),
(470,0,o),
(533,21,o),
(575,58,cs),
(617,95,o),
(638,149,o),
(638,213,cs),
(638,264,o),
(622,307,o),
(595,339,c),
(567,370,o),
(529,391,o),
(484,396,c),
(484,402,l),
(555,425,o),
(589,484,o),
(589,553,cs),
(589,609,o),
(568,656,o),
(529,688,cs),
(490,720,o),
(433,739,o),
(364,739,cs),
(297,739,o),
(238,721,o),
(195,682,cs),
(151,642,o),
(125,584,o),
(125,503,cs),
(125,0,l)
);
},
{
closed = 1;
nodes = (
(179,451,l),
(179,527,l),
(17,527,l),
(17,451,l)
);
}
);
width = 670;
},
{
layerId = "BADC4CB4-4A37-4FEF-A0FC-8F77938ABBAB";
shapes = (
{
closed = 1;
nodes = (
(167,0,l),
(167,515,ls),
(167,634,o),
(229,704,o),
(345,704,cs),
(452,704,o),
(516,651,o),
(516,555,cs),
(516,511,o),
(502,475,o),
(474,450,cs),
(446,425,o),
(406,411,o),
(353,411,cs),
(306,411,l),
(306,378,l),
(386,378,ls),
(498,378,o),
(565,317,o),
(565,214,cs),
(565,98,o),
(495,34,o),
(360,34,cs),
(262,34,l),
(262,0,l),
(363,0,ls),
(439,0,o),
(499,21,o),
(540,58,cs),
(580,94,o),
(602,147,o),
(602,212,cs),
(602,264,o),
(585,307,o),
(557,340,c),
(528,372,o),
(489,394,o),
(442,399,c),
(442,404,l),
(518,429,o),
(552,489,o),
(552,560,cs),
(552,615,o),
(533,659,o),
(497,691,cs),
(461,722,o),
(409,739,o),
(345,739,cs),
(284,739,o),
(231,721,o),
(192,684,cs),
(153,647,o),
(130,592,o),
(130,520,cs),
(130,0,l)
);
},
{
closed = 1;
nodes = (
(143,483,l),
(143,517,l),
(20,517,l),
(20,483,l)
);
}
);
width = 643;
}
);
unicode = 223;
},
